<svg width="48" height="48" viewBox="0 0 48 48" fill="none" xmlns="http://www.w3.org/2000/svg">
<g clip-path="url(#clip0_21093_78512)">
<path d="M3.02112 11.0529C3.02112 6.76263 6.49908 3.28467 10.7894 3.28467H36.6835C40.9738 3.28467 44.4518 6.76263 44.4518 11.0529V36.9471C44.4518 41.2374 40.9738 44.7153 36.6835 44.7153H10.7894C6.49908 44.7153 3.02112 41.2374 3.02112 36.9471V11.0529Z" fill="#FD701D"/>
<path d="M4.38936 6.26084C3.98294 6.47217 3.64301 6.79162 3.4072 7.1838C3.17139 7.57599 3.04889 8.02563 3.05324 8.48299L3.00009 14.7056C3.00009 14.7056 2.94005 16.5804 4.4316 16.6299C5.92314 16.6795 6.18072 15.0883 6.18072 15.0883L6.44753 13.6477L28.9528 43.7281C29.6813 45.0243 30.7427 46.1034 32.0278 46.8542C33.3129 47.605 34.7753 48.0006 36.2644 48C38.4876 48 40.6197 47.1186 42.1917 45.5496C43.7637 43.9807 44.6468 41.8527 44.6468 39.6339C44.6474 38.1553 44.2552 36.7029 43.5102 35.4249C42.7652 34.1468 41.694 33.0887 40.4059 32.3585L7.12059 6.61158C6.6365 6.23437 6.04494 6.02022 5.43111 6C5.06763 5.99997 4.70978 6.08957 4.38936 6.26084Z" fill="#265DD6"/>
<path d="M4.3896 41.7398C3.98318 41.5285 3.64326 41.2091 3.40745 40.8169C3.17164 40.4247 3.04913 39.975 3.05349 39.5177L3.00033 33.2951C3.00033 33.2951 2.94029 31.4203 4.43184 31.3707C5.92339 31.3212 6.18097 32.9123 6.18097 32.9123L6.44777 34.353L28.9529 4.27242C29.6813 2.97608 30.7428 1.89692 32.0279 1.14598C33.3131 0.395049 34.7755 -0.00052156 36.2647 -7.12828e-06C38.4878 -7.12828e-06 40.6199 0.88142 42.1919 2.45037C43.7639 4.01933 44.6471 6.14728 44.6471 8.36612C44.6477 9.84473 44.2555 11.2971 43.5105 12.5751C42.7655 13.8532 41.6943 14.9113 40.4061 15.6415L7.12083 41.3885C6.63674 41.7657 6.04518 41.9798 5.43136 42C5.06793 42.0002 4.71008 41.9109 4.3896 41.7398Z" fill="#265DD6"/>
</g>
<defs>
<clipPath id="clip0_21093_78512">
<rect width="48" height="48" fill="white"/>
</clipPath>
</defs>
</svg>
