<svg width="600" height="280" viewBox="0 0 600 280" fill="none" xmlns="http://www.w3.org/2000/svg">
<g filter="url(#filter0_f_849_4470)">
<path d="M176 162.2H197V206.6H176V240.2H127.4V206.6H32V162.2L98.9 30.2H150.5L83.6 162.2H127.4V117.2H176V162.2Z" fill="url(#paint0_linear_849_4470)"/>
<path d="M356.223 214.7C341.223 234.5 320.223 244.4 293.523 244.4C266.823 244.4 245.823 234.5 230.523 214.7C215.523 194.6 208.023 168.2 208.023 135.2C208.023 102.2 215.523 75.8 230.523 56C245.823 35.9 266.823 26 293.523 26C320.223 26 341.223 35.9 356.223 56C371.523 75.8 379.023 102.2 379.023 135.2C379.023 168.2 371.523 194.6 356.223 214.7ZM256.023 135.2C256.023 176.9 268.623 197.6 293.523 197.6C318.423 197.6 331.023 176.9 331.023 135.2C331.023 93.5 318.423 72.8 293.523 72.8C268.623 72.8 256.023 93.5 256.023 135.2Z" fill="url(#paint1_linear_849_4470)"/>
<path d="M536.988 162.2H557.988V206.6H536.988V240.2H488.388V206.6H392.988V162.2L459.888 30.2H511.488L444.588 162.2H488.388V117.2H536.988V162.2Z" fill="url(#paint2_linear_849_4470)"/>
</g>
<g filter="url(#filter1_f_849_4470)">
<path d="M40 216.6H133.4V248.2C133.4 249.305 134.295 250.2 135.4 250.2H184C185.105 250.2 186 249.305 186 248.2V216.6H205C206.105 216.6 207 215.705 207 214.6V170.2C207 169.095 206.105 168.2 205 168.2H186V125.2C186 124.095 185.105 123.2 184 123.2H135.4C134.295 123.2 133.4 124.095 133.4 125.2V168.2H94.8558L160.284 39.1041C160.598 38.4841 160.568 37.7454 160.204 37.1532C159.84 36.5609 159.195 36.2 158.5 36.2H106.9C106.146 36.2 105.457 36.6236 105.116 37.2959L38.216 169.296C38.074 169.576 38 169.886 38 170.2V214.6C38 215.705 38.8954 216.6 40 216.6ZM236.921 223.896L236.941 223.923C252.648 244.25 274.252 254.4 301.523 254.4C328.791 254.4 350.405 244.252 365.818 223.908C381.455 203.363 389.023 176.495 389.023 143.2C389.023 109.914 381.459 83.0415 365.816 62.7904C350.404 42.1467 328.788 32 301.523 32C274.249 32 252.64 42.153 236.932 62.7886L236.929 62.7923C221.591 83.0385 214.023 109.907 214.023 143.2C214.023 176.498 221.593 203.357 236.921 223.896ZM455.844 168.2L521.272 39.1041C521.586 38.4841 521.556 37.7454 521.192 37.1532C520.829 36.5609 520.183 36.2 519.488 36.2H467.888C467.135 36.2 466.445 36.6236 466.104 37.2959L399.204 169.296C399.062 169.576 398.988 169.886 398.988 170.2V214.6C398.988 215.705 399.884 216.6 400.988 216.6H494.388V248.2C494.388 249.305 495.284 250.2 496.388 250.2H544.988C546.093 250.2 546.988 249.305 546.988 248.2V216.6H565.988C567.093 216.6 567.988 215.705 567.988 214.6V170.2C567.988 169.095 567.093 168.2 565.988 168.2H546.988V125.2C546.988 124.095 546.093 123.2 544.988 123.2H496.388C495.284 123.2 494.388 124.095 494.388 125.2V168.2H455.844ZM301.523 203.6C289.748 203.6 281.036 198.77 275.149 189.005C269.164 179.079 266.023 163.913 266.023 143.2C266.023 122.487 269.164 107.321 275.149 97.3951C281.036 87.6303 289.748 82.8 301.523 82.8C313.299 82.8 322.011 87.6303 327.898 97.3951C333.882 107.321 337.023 122.487 337.023 143.2C337.023 163.913 333.882 179.079 327.898 189.005C322.011 198.77 313.299 203.6 301.523 203.6Z" stroke="url(#paint3_linear_849_4470)" stroke-opacity="0.87" stroke-width="4" stroke-linejoin="round"/>
</g>
<path d="M183.098 171.398H204.258V216.123H183.098V249.969H134.128V216.123H38V171.398L105.41 38.4308H157.404L89.9936 171.398H134.128V126.068H183.098V171.398ZM364.696 224.282C349.582 244.227 328.422 254.2 301.518 254.2C274.614 254.2 253.454 244.227 238.038 224.282C222.923 204.035 215.366 177.442 215.366 144.2C215.366 110.958 222.923 84.3649 238.038 64.4198C253.454 44.1725 274.614 34.2 301.518 34.2C328.422 34.2 349.582 44.1725 364.696 64.4198C380.113 84.3649 387.67 110.958 387.67 144.2C387.67 177.442 380.113 204.035 364.696 224.282ZM263.732 144.2C263.732 186.206 276.428 207.057 301.518 207.057C326.608 207.057 339.304 186.206 339.304 144.2C339.304 102.195 326.608 81.3429 301.518 81.3429C276.428 81.3429 263.732 102.195 263.732 144.2ZM546.84 171.398H568V216.123H546.84V249.969H497.869V216.123H401.742V171.398L469.152 38.4308H521.145L453.735 171.398H497.869V126.068H546.84V171.398Z" stroke="url(#paint4_linear_849_4470)" stroke-opacity="0.87" stroke-width="2" stroke-linejoin="round"/>
<defs>
<filter id="filter0_f_849_4470" x="16" y="10" width="557.988" height="250.4" filterUnits="userSpaceOnUse" color-interpolation-filters="sRGB">
<feFlood flood-opacity="0" result="BackgroundImageFix"/>
<feBlend mode="normal" in="SourceGraphic" in2="BackgroundImageFix" result="shape"/>
<feGaussianBlur stdDeviation="8" result="effect1_foregroundBlur_849_4470"/>
</filter>
<filter id="filter1_f_849_4470" x="32" y="26" width="541.988" height="234.4" filterUnits="userSpaceOnUse" color-interpolation-filters="sRGB">
<feFlood flood-opacity="0" result="BackgroundImageFix"/>
<feBlend mode="normal" in="SourceGraphic" in2="BackgroundImageFix" result="shape"/>
<feGaussianBlur stdDeviation="2" result="effect1_foregroundBlur_849_4470"/>
</filter>
<linearGradient id="paint0_linear_849_4470" x1="32" y1="135.2" x2="557.988" y2="135.2" gradientUnits="userSpaceOnUse">
<stop stop-color="#87ADA7"/>
<stop offset="0.325" stop-color="#A38C98"/>
<stop offset="0.665" stop-color="#D68678"/>
<stop offset="1" stop-color="#E5D385"/>
</linearGradient>
<linearGradient id="paint1_linear_849_4470" x1="32" y1="135.2" x2="557.988" y2="135.2" gradientUnits="userSpaceOnUse">
<stop stop-color="#87ADA7"/>
<stop offset="0.325" stop-color="#A38C98"/>
<stop offset="0.665" stop-color="#D68678"/>
<stop offset="1" stop-color="#E5D385"/>
</linearGradient>
<linearGradient id="paint2_linear_849_4470" x1="32" y1="135.2" x2="557.988" y2="135.2" gradientUnits="userSpaceOnUse">
<stop stop-color="#87ADA7"/>
<stop offset="0.325" stop-color="#A38C98"/>
<stop offset="0.665" stop-color="#D68678"/>
<stop offset="1" stop-color="#E5D385"/>
</linearGradient>
<linearGradient id="paint3_linear_849_4470" x1="302.994" y1="34" x2="302.994" y2="252.4" gradientUnits="userSpaceOnUse">
<stop stop-color="white" stop-opacity="0"/>
<stop offset="1" stop-color="white" stop-opacity="0.8"/>
</linearGradient>
<linearGradient id="paint4_linear_849_4470" x1="303" y1="34.2" x2="303" y2="254.2" gradientUnits="userSpaceOnUse">
<stop stop-color="white" stop-opacity="0.1"/>
<stop offset="1" stop-color="white" stop-opacity="0.87"/>
</linearGradient>
</defs>
</svg>
