<svg width="300" height="192" viewBox="0 0 300 192" fill="none" xmlns="http://www.w3.org/2000/svg">
<g clip-path="url(#clip0_23016_4483)">
<path d="M120.791 27.2225C118.278 24.7252 115.765 22.228 113.268 19.7151C112.709 19.1567 111.841 20.0254 112.399 20.5838C114.912 23.0811 117.425 25.5784 119.922 28.0912C120.481 28.6496 121.349 27.7809 120.791 27.2225Z" fill="#111827"/>
<path d="M170.768 13.4487C169.294 15.1549 167.82 16.8456 166.347 18.5518C165.819 19.1568 166.719 20.0254 167.231 19.4205C168.705 17.7142 170.178 16.0235 171.652 14.3173C172.179 13.7279 171.279 12.8437 170.768 13.4487Z" fill="#111827"/>
<path d="M184.169 22.5537C180.508 24.2134 176.863 25.8886 173.203 27.5483C172.474 27.8895 173.11 28.9443 173.839 28.6186C177.499 26.9589 181.144 25.2837 184.805 23.624C185.55 23.2827 184.914 22.228 184.169 22.5537Z" fill="#111827"/>
<path d="M175.576 116.613C165.261 118.056 166.083 133.458 177.484 133.381C190.42 133.288 188.326 114.814 175.576 116.613Z" fill="#D7E2FA"/>
<path d="M114.54 125.811L116.354 131.225L121.551 127.083L114.54 125.811Z" fill="#111827"/>
<path d="M32.8892 68.0634L38.2405 81.3874L46.9733 70.4676L32.8892 68.0634Z" fill="#111827"/>
<path d="M247.594 41.105L235.573 56.2284L250.448 69.5215L265.184 56.2284L247.594 41.105Z" fill="#D7E2FA"/>
<path d="M48.6172 46.7821C48.276 49.1708 47.9347 51.544 47.5935 53.9327C47.4849 54.7083 48.6638 55.0496 48.7878 54.2585C49.1291 51.8698 49.4703 49.4966 49.8116 47.1078C49.9202 46.3323 48.7258 45.9911 48.6172 46.7821Z" fill="#111827"/>
<path d="M243.267 34.3887C243.143 33.6132 241.948 33.9389 242.073 34.7145C242.243 35.7382 242.414 36.762 242.584 37.7857C242.708 38.5612 243.903 38.2355 243.779 37.46C243.608 36.4362 243.437 35.4125 243.267 34.3887Z" fill="#111827"/>
<path d="M268.736 64.5889C266.859 64.7595 264.982 64.9301 263.121 65.1008C262.33 65.1783 262.33 66.4037 263.121 66.3261C264.997 66.1555 266.874 65.9849 268.736 65.8143C269.511 65.7522 269.527 64.5268 268.736 64.5889Z" fill="#111827"/>
<path d="M40.4276 57.4848C39.4038 56.8023 38.3801 56.1198 37.3564 55.4528C36.6894 55.0185 36.0689 56.0733 36.7359 56.5231C37.7597 57.2056 38.7834 57.8881 39.8071 58.555C40.4741 58.9893 41.0946 57.9191 40.4276 57.4848Z" fill="#111827"/>
<path d="M102.069 29.8285C85.0068 34.4508 69.4181 43.3076 56.699 55.5925C56.125 56.1509 56.9937 57.0195 57.5676 56.4611C70.1471 44.3314 85.5342 35.5986 102.395 31.0228C103.155 30.8057 102.829 29.6268 102.069 29.8285Z" fill="#111827"/>
<path d="M224.266 35.5056C217.689 29.9371 210.057 26.0438 201.666 24.0273C200.89 23.8412 200.565 25.0355 201.34 25.2217C209.515 27.1916 216.975 30.9453 223.382 36.3742C223.986 36.886 224.871 36.0174 224.266 35.5056Z" fill="#111827"/>
<path d="M198.486 188.492C198.161 188.492 197.881 188.228 197.866 187.887L195.617 108.997C195.601 108.656 195.881 108.377 196.222 108.361C196.548 108.361 196.842 108.625 196.858 108.966L199.107 187.856C199.122 188.197 198.843 188.477 198.502 188.492C198.486 188.492 198.486 188.492 198.486 188.492Z" fill="#111827"/>
<path d="M99.1839 191.455C98.8427 191.455 98.5635 191.175 98.5635 190.834V178.937C98.5635 178.596 98.8427 178.317 99.1839 178.317C99.5252 178.317 99.8044 178.596 99.8044 178.937V190.834C99.8044 191.191 99.5252 191.455 99.1839 191.455Z" fill="#111827"/>
<path d="M136.814 145.681C136.799 145.681 136.783 145.681 136.768 145.681L119.256 144.223C119.085 144.208 118.93 144.13 118.837 144.006C118.728 143.882 118.682 143.711 118.697 143.541L119.799 133.567C119.83 133.257 120.093 133.024 120.403 133.024H136.814C137.156 133.024 137.435 133.303 137.435 133.645V145.076C137.435 145.247 137.357 145.418 137.233 145.526C137.109 145.619 136.954 145.681 136.814 145.681ZM119.969 143.044L136.194 144.394V134.249H120.946L119.969 143.044Z" fill="#111827"/>
<path d="M180.912 129.131C174.723 129.131 171.575 124.741 171.28 120.646C170.985 116.629 173.281 111.944 179.004 111.138C183.006 110.564 186.496 111.929 188.575 114.845C190.591 117.668 190.917 121.546 189.397 124.524C187.892 127.471 184.899 129.115 180.99 129.146C180.974 129.131 180.943 129.131 180.912 129.131ZM179.175 112.363C174.227 113.061 172.257 117.094 172.505 120.569C172.769 124.229 175.483 127.905 180.912 127.905C180.943 127.905 180.974 127.905 181.005 127.905C184.433 127.874 187.039 126.478 188.327 123.966C189.645 121.406 189.35 118.025 187.598 115.574C186.527 114.07 184.015 111.681 179.175 112.363Z" fill="#111827"/>
<path d="M96.6091 127.456C96.1747 124.353 94.7322 119.933 96.485 116.458C98.9822 111.526 103.232 106.081 104.83 107.974C107.451 111.06 114.68 155.965 113.346 168.7C112.012 181.434 99.6492 187.887 99.6492 187.887L99.1994 178.953C99.1994 178.953 105.202 173.338 105.528 162.402C105.854 151.467 99.1374 120.693 99.1374 120.693L96.6091 127.456Z" fill="#D7E2FA"/>
<path d="M203.248 167.723C202.333 172.097 200.394 175.664 198.192 178.503C198.114 177.277 198.036 176.037 197.959 174.811C197.54 168.467 195.663 111.619 196.439 109.726C195.275 103.786 199.262 110.781 201.278 115.295C202.984 119.111 205.032 124.074 204.737 128.96C205.063 144.022 204.737 160.618 203.248 167.723Z" fill="#D7E2FA"/>
<path d="M88.4967 148.349C88.1554 148.349 87.8762 148.07 87.8762 147.729L87.8452 100.839C87.8452 97.2865 90.6217 94.4324 94.1582 94.3394C109.344 93.9516 109.406 94.0292 109.669 94.3549C109.793 94.51 109.84 94.7116 109.793 94.8978C109.716 95.2235 109.375 95.4407 109.049 95.3476C109.033 95.3476 109.018 95.3321 109.002 95.3321C108.584 95.3011 106.226 95.2545 94.1893 95.5803C91.3197 95.6578 89.0706 97.969 89.0706 100.839L89.1016 147.729C89.1171 148.07 88.8379 148.349 88.4967 148.349Z" fill="#111827"/>
<path d="M200.549 122.585C200.208 122.585 199.929 122.306 199.929 121.965V99.6907C199.929 96.7901 197.571 94.4324 194.67 94.4324C194.329 94.4324 194.05 94.1532 194.05 93.812C194.05 93.4707 194.329 93.1915 194.67 93.1915C198.253 93.1915 201.154 96.1076 201.154 99.6752V121.949C201.154 122.306 200.89 122.585 200.549 122.585Z" fill="#111827"/>
<path d="M91.1956 191.455C90.8544 191.455 90.5752 191.175 90.5752 190.834V185.979C90.5752 185.638 90.8544 185.359 91.1956 185.359C91.5369 185.359 91.8161 185.638 91.8161 185.979V190.834C91.8161 191.191 91.5369 191.455 91.1956 191.455Z" fill="#111827"/>
<path d="M184.96 93.8275C184.371 84.5053 176.957 85.6686 176.957 85.6686C174.894 80.1001 169.558 79.4021 169.558 79.4021C169.108 72.5928 165.711 65.5507 150.944 66.3107C136.178 67.0708 129.772 73.3838 130.284 83.2334C124.126 83.311 121.923 87.0336 121.954 89.4844C120.76 86.7544 120.434 83.4971 120.403 79.7434C120.217 63.0999 128.252 57.64 158.762 57.3453C184.2 57.0971 186.698 62.557 187.427 75.059C187.908 83.6212 187.97 89.7481 184.96 93.8275Z" fill="#D7E2FA"/>
<path d="M160.205 101.009C125.599 101.009 119.938 94.7426 119.783 79.7589C119.705 72.5617 121.148 67.8308 124.483 64.4339C129.663 59.1446 139.59 56.911 158.747 56.7403C184.278 56.5077 187.272 62.1227 188.032 75.028C188.559 84.1795 188.621 90.9889 184.588 95.27C180.788 99.2874 173.498 101.009 160.205 101.009ZM158.762 57.9657C139.963 58.1363 130.299 60.2614 125.367 65.287C122.28 68.4357 120.931 72.8874 121.008 79.7434C121.163 93.3621 125.072 99.7682 160.205 99.7682C173.126 99.7682 180.152 98.1706 183.689 94.4169C187.396 90.4926 187.318 83.9314 186.806 75.09C186.139 63.6738 184.573 57.733 158.762 57.9657Z" fill="#111827"/>
<path d="M136.799 91.5319C136.721 91.5319 136.628 91.5164 136.55 91.4853C136.24 91.3457 136.101 90.989 136.24 90.6788C138.427 85.6687 143.903 73.3683 143.903 73.3683C144.042 73.0581 144.399 72.9185 144.694 73.0426C144.864 73.1046 161.508 79.8675 169.45 78.6421C169.791 78.5956 170.101 78.8282 170.148 79.154C170.194 79.4952 169.977 79.8054 169.636 79.852C162.113 81.0153 147.827 75.6019 144.787 74.4076C143.701 76.8428 139.28 86.7855 137.357 91.1751C137.264 91.3923 137.047 91.5319 136.799 91.5319Z" fill="#111827"/>
<path d="M129.756 96.3247C129.462 96.3247 129.198 96.1076 129.152 95.8128C128.95 94.5254 129.245 93.3621 130.005 92.4469C131.215 91.0199 133.51 90.3064 136.799 90.3064C137.14 90.3064 137.419 90.5856 137.419 90.9268C137.419 91.2681 137.14 91.5473 136.799 91.5473C133.913 91.5473 131.897 92.1367 130.935 93.2535C130.392 93.8895 130.206 94.6805 130.361 95.6267C130.408 95.968 130.191 96.2782 129.85 96.3402C129.819 96.3247 129.787 96.3247 129.756 96.3247Z" fill="#111827"/>
<path d="M156.281 98.1861C155.939 98.1861 155.66 97.9069 155.66 97.5657C155.66 97.2244 155.939 96.9452 156.281 96.9452C157.428 96.9452 158.375 96.635 158.824 96.1231C159.073 95.8284 159.15 95.4716 159.088 95.0373C158.917 94.0601 156.761 93.5172 155.738 93.4087C155.427 93.3776 155.195 93.114 155.195 92.8037V87.1577C155.195 86.8164 155.474 86.5372 155.815 86.5372C156.157 86.5372 156.436 86.8164 156.436 87.1577V92.2608C157.584 92.4625 160.034 93.0984 160.314 94.8357C160.453 95.6268 160.267 96.3558 159.786 96.9142C159.073 97.7363 157.832 98.1861 156.281 98.1861Z" fill="#111827"/>
<path d="M147.656 84.0399C146.648 84.1485 145.671 84.3191 144.694 84.6138C143.934 84.8465 144.446 85.9633 145.206 85.7306C146.059 85.4669 146.958 85.3428 147.858 85.2498C148.649 85.1567 148.448 83.9468 147.656 84.0399Z" fill="#111827"/>
<path d="M165.463 84.5052C164.827 84.0864 164.129 83.7917 163.524 83.3264C162.904 82.8455 162.035 83.7297 162.671 84.2105C163.353 84.7379 164.145 85.0947 164.858 85.5755C165.525 86.0098 166.114 84.924 165.463 84.5052Z" fill="#111827"/>
<path d="M170.396 100.234C170.054 100.234 169.775 99.9543 169.775 99.6286C169.729 93.8274 169.574 88.8949 168.938 79.4486C168.333 70.4366 162.454 66.3417 150.976 66.9311C143.034 67.3344 137.357 69.3664 134.1 72.9805C131.757 75.5863 130.672 79.0143 130.889 83.2023C130.904 83.5436 130.641 83.8383 130.299 83.8538C129.927 83.8538 129.663 83.6056 129.648 83.2644C129.415 78.7506 130.594 75.0124 133.169 72.1584C136.659 68.2961 142.615 66.1246 150.898 65.7057C163.028 65.0853 169.512 69.6766 170.147 79.3711C170.783 88.8173 170.939 93.9515 170.985 99.6286C171.016 99.9543 170.752 100.234 170.396 100.234Z" fill="#111827"/>
<path d="M101.138 116.644C101.045 116.644 100.952 116.629 100.875 116.582C100.564 116.443 100.44 116.07 100.58 115.76L100.968 114.954C103.341 110.052 110.554 95.1614 110.104 81.4806C109.669 68.5753 109.794 59.7029 115.021 54.212C120.636 48.3178 131.587 46.1927 158.436 45.7739C180.757 45.3551 193.445 46.9373 194.965 84.4897C195.058 86.894 195.136 89.1276 195.198 91.2061C195.446 99.1633 195.617 104.918 197.028 109.54C197.121 109.866 196.951 110.207 196.625 110.316C196.299 110.409 195.958 110.238 195.849 109.912C194.391 105.135 194.221 99.3184 193.972 91.2526C193.91 89.1741 193.833 86.9405 193.74 84.5363C192.189 46.3479 178.772 46.6115 158.467 46.9993C132.005 47.4026 121.272 49.4346 115.92 55.0496C111.019 60.1838 110.926 68.839 111.345 81.434C111.81 95.4096 104.489 110.517 102.084 115.481L101.697 116.288C101.588 116.52 101.371 116.644 101.138 116.644Z" fill="#111827"/>
<path d="M121.954 89.4998L121.334 89.4843C121.318 87.9952 121.97 86.4441 123.164 85.2187C124.296 84.0554 126.452 82.6594 130.284 82.6129C130.594 82.6129 130.904 82.8765 130.904 83.2178C130.904 83.559 130.64 83.8382 130.299 83.8382C126.887 83.8848 125.025 85.0791 124.048 86.0718C123.102 87.0335 122.559 88.3054 122.575 89.4688L121.954 89.4998Z" fill="#111827"/>
<path d="M184.387 94.7737C184.387 94.8202 184.387 94.8512 184.402 94.8978C184.775 94.541 185.178 94.1998 185.597 93.8895C185.597 93.8585 185.597 93.8275 185.597 93.7965C185.395 90.5081 184.34 88.0884 182.479 86.5993C180.571 85.0637 178.369 84.9706 177.391 85.0172C175.111 79.5727 169.884 78.8127 169.667 78.7817C169.326 78.7351 169.015 78.9678 168.969 79.3091C168.922 79.6503 169.155 79.9605 169.496 80.0071C169.698 80.0381 174.491 80.7516 176.414 85.8858C176.523 86.165 176.786 86.3201 177.081 86.2736C177.112 86.2736 179.671 85.9013 181.719 87.561C183.286 88.8329 184.185 90.9424 184.371 93.874C184.371 94.1687 184.387 94.4634 184.387 94.7737Z" fill="#111827"/>
<path d="M146.555 96.4488C145.702 96.4488 144.818 96.2472 144.011 95.8439C141.871 94.7736 140.63 92.6021 140.63 89.8721C140.63 89.5308 140.909 89.2516 141.25 89.2516C141.592 89.2516 141.871 89.5308 141.871 89.8721C141.886 92.1212 142.863 93.8895 144.57 94.7426C146.028 95.4716 147.734 95.3475 148.928 94.4634C150.293 93.4397 150.805 91.5783 150.386 89.2206C150.324 88.8794 150.557 88.5692 150.883 88.5071C151.224 88.4451 151.534 88.6777 151.596 89.0035C152.279 92.8347 150.681 94.6806 149.657 95.4406C148.773 96.1076 147.672 96.4488 146.555 96.4488Z" fill="#111827"/>
<path d="M164.02 95.7508C163.26 95.7508 162.5 95.5802 161.802 95.2079C159.801 94.1997 158.669 91.9661 158.669 89.112C158.669 88.7708 158.948 88.4916 159.289 88.4916C159.631 88.4916 159.91 88.7708 159.91 89.112C159.91 91.4852 160.809 93.3156 162.376 94.1066C163.601 94.7271 165.044 94.6185 166.145 93.8274C167.495 92.8502 168.069 91.0044 167.712 88.7708C167.665 88.4296 167.883 88.1193 168.224 88.0573C168.565 88.0108 168.875 88.2279 168.937 88.5691C169.372 91.2681 168.627 93.5482 166.874 94.8201C166.006 95.4406 165.029 95.7508 164.02 95.7508Z" fill="#111827"/>
<path d="M151.131 92.1523C150.914 92.1523 150.697 92.0437 150.588 91.8266C150.418 91.5318 150.542 91.1596 150.836 90.989C151.022 90.8804 155.49 88.4917 159.538 90.415C159.848 90.5546 159.972 90.9269 159.833 91.2371C159.693 91.5474 159.321 91.6715 159.011 91.5319C155.521 89.8722 151.472 92.0437 151.426 92.0747C151.333 92.1213 151.224 92.1523 151.131 92.1523Z" fill="#111827"/>
<path d="M161.57 89.3448L161.446 90.5701C161.275 92.1523 163.726 92.4005 163.897 90.8338L164.021 89.6085C164.176 88.0263 161.725 87.7626 161.57 89.3448Z" fill="#111827"/>
<path d="M144.957 89.7325L144.833 90.9579C144.663 92.54 147.113 92.7882 147.284 91.2216L147.408 89.9962C147.579 88.4141 145.128 88.1504 144.957 89.7325Z" fill="#111827"/>
<path d="M78.8489 154.895C78.0113 154.895 77.1272 154.802 76.181 154.585C70.1937 153.266 68.1772 143.184 65.8351 131.52C65.1836 128.247 64.5011 124.865 63.71 121.577C63.5704 121.034 63.4463 120.522 63.3222 119.979C61.8797 114.023 60.4527 108.377 58.6224 104.871C53.5037 94.9908 44.4297 88.4762 41.0017 87.7627C40.4898 87.6541 40.2572 87.7161 40.2106 87.7471C40.1331 87.9333 39.8694 89.0656 43.3439 92.6331C44.926 94.2463 45.2983 96.635 44.3211 98.7135C43.5455 100.373 43.2508 101.893 43.4525 103.258C43.499 103.6 43.2663 103.91 42.9406 103.956C42.5994 104.003 42.2891 103.77 42.2426 103.444C42.0099 101.831 42.3357 100.063 43.2198 98.1861C43.9799 96.573 43.6851 94.7272 42.4753 93.4863C39.6212 90.5547 38.5199 88.5072 39.1094 87.2198C39.2334 86.9561 39.5747 86.4907 40.4433 86.4597C40.4588 86.4597 40.4898 86.4597 40.5054 86.4597C44.0419 86.4597 54.2482 93.7344 59.7237 104.298C61.616 107.927 63.0741 113.651 64.5321 119.685C64.6562 120.212 64.7803 120.739 64.9199 121.267C65.711 124.586 66.3934 127.983 67.0604 131.271C69.2165 142.052 71.2484 152.227 76.4602 153.375C86.3408 155.562 90.2186 144.239 94.6858 131.147C96.454 125.998 98.2688 120.662 100.596 115.745C100.735 115.435 101.107 115.31 101.418 115.45C101.728 115.59 101.852 115.962 101.712 116.272C99.4167 121.112 97.6019 126.416 95.8646 131.535C91.7542 143.525 87.8764 154.895 78.8489 154.895Z" fill="#111827"/>
<path d="M34.4716 101.971C34.394 101.971 34.3165 101.955 34.2389 101.924C30.7799 100.466 21.2251 97.1313 18.5261 99.1168C18.0143 99.5046 17.7971 100.094 17.8747 100.932C17.9057 101.273 17.6575 101.568 17.3162 101.599C16.975 101.63 16.6803 101.381 16.6493 101.04C16.4942 99.4425 17.1766 98.5584 17.7971 98.1241C20.1858 96.3713 25.8629 97.7053 30.0199 99.0547C28.6859 98.4498 27.2744 97.9534 26.0025 97.5036C23.3656 96.5885 21.4422 95.9215 21.0389 94.6806C20.9303 94.3549 20.8838 93.8275 21.3181 93.1915C23.862 89.4533 38.8457 95.1925 43.375 97.0538C43.6852 97.1779 43.8403 97.5346 43.7162 97.8604C43.5921 98.1706 43.2199 98.3257 42.9096 98.2016C32.0829 93.7809 23.6138 92.0127 22.3419 93.905C22.1712 94.1532 22.2023 94.2618 22.2178 94.3083C22.4349 94.9598 24.5444 95.7043 26.4058 96.3558C29.3064 97.364 32.936 98.6359 34.9524 100.963C35.1385 101.18 35.1541 101.49 34.9834 101.723C34.8594 101.878 34.6732 101.971 34.4716 101.971Z" fill="#111827"/>
<path d="M31.4931 103.894C30.5314 103.646 29.368 103.274 28.1272 102.901C23.3342 101.412 17.9053 99.7217 16.1836 101.707C15.408 102.591 15.4856 103.972 16.4162 105.926C16.4162 105.942 16.4318 105.942 16.4318 105.957C16.7885 105.942 17.1453 105.957 17.4865 105.988C17.5951 105.818 17.6106 105.585 17.5175 105.399C16.835 103.987 16.6954 102.979 17.0987 102.514C18.2931 101.133 23.9702 102.917 27.7394 104.08C28.9958 104.468 30.1746 104.84 31.1673 105.104C31.4931 105.182 31.8343 104.996 31.9119 104.67C32.0204 104.313 31.8343 103.972 31.4931 103.894Z" fill="#111827"/>
<path d="M74.909 191.455C72.7995 191.455 70.5814 191.237 68.2392 190.772C45.0966 186.134 40.9551 154.026 38.9697 138.608C38.7836 137.15 38.613 135.863 38.4579 134.792C38.1631 132.838 37.8219 130.977 37.4651 129.286C37.3876 128.852 37.2945 128.433 37.1859 128.014C35.5107 120.631 33.3237 115.714 31.1676 114.488C28.7169 113.092 25.6301 112.286 22.9002 111.572C19.0844 110.58 16.0753 109.788 15.4548 107.725C15.2687 107.105 15.0826 106.205 15.672 105.569C16.7888 104.375 19.6894 104.964 28.7324 106.996C29.0581 107.074 29.2753 107.4 29.1977 107.725C29.1201 108.051 28.7944 108.268 28.4687 108.191C22.2022 106.779 17.2696 105.662 16.5871 106.392C16.4786 106.516 16.4941 106.857 16.6492 107.353C17.068 108.749 20.0616 109.54 23.2259 110.362C26.0179 111.091 29.1977 111.913 31.7881 113.403C35.154 115.31 37.3721 123.19 38.3958 127.704C38.5044 128.123 38.613 128.588 38.6905 129.038C39.0628 130.744 39.404 132.621 39.6987 134.606C39.8539 135.692 40.0245 136.979 40.2106 138.453C42.165 153.592 46.2289 185.111 68.5029 189.578C92.7158 194.448 104.179 170.639 104.287 170.39C104.427 170.08 104.799 169.956 105.109 170.096C105.419 170.235 105.544 170.608 105.404 170.918C105.28 171.135 95.4923 191.455 74.909 191.455Z" fill="#111827"/>
<path d="M37.7754 127.828C37.8995 128.262 37.977 128.697 38.0701 129.131C42.9716 130.031 48.0593 129.891 52.9453 128.604C57.3194 127.44 61.8021 125.02 64.346 121.422C64.2064 120.879 64.0823 120.352 63.9582 119.824C61.3213 124.54 55.0393 127.145 49.719 128.045C45.7171 128.728 41.6842 128.635 37.7754 127.828Z" fill="#111827"/>
<path d="M83.7349 190.121C83.4712 190.121 83.223 189.95 83.1455 189.686C81.9666 185.84 77.9027 181.962 72.5669 179.604C65.8506 176.626 58.3897 176.595 52.1232 179.511C51.813 179.651 51.4562 179.527 51.3011 179.216C51.1615 178.906 51.2856 178.549 51.5958 178.394C58.188 175.323 66.0057 175.339 73.0632 178.472C78.7248 180.985 83.0369 185.142 84.3243 189.33C84.4174 189.655 84.2468 189.997 83.921 190.105C83.859 190.105 83.7969 190.121 83.7349 190.121Z" fill="#111827"/>
<path d="M218.046 147.124C208.708 147.124 204.086 132.822 200.627 122.135L200.394 121.422C198.704 116.148 197.245 111.588 195.694 109.556C195.493 109.292 195.539 108.904 195.803 108.687C196.067 108.485 196.454 108.532 196.672 108.796C198.347 110.998 199.851 115.636 201.573 121.018L201.806 121.732C206.335 135.754 211.174 148.132 220.512 145.51C230.501 142.703 232.844 125.796 234.922 110.874L234.969 110.517C235.062 109.959 235.124 109.432 235.201 108.889C236.054 102.731 236.954 96.8986 238.474 93.0984C242.91 81.9924 252.45 73.725 255.924 73.4613C256.808 73.3992 257.165 73.818 257.32 74.0817C258.049 75.3071 257.134 77.4787 254.528 80.705C253.473 82.0079 253.365 83.8537 254.249 85.3118C255.35 87.1266 255.862 88.8793 255.769 90.5235C255.754 90.8648 255.459 91.1285 255.118 91.1129C254.776 91.0974 254.513 90.8027 254.528 90.4615C254.59 89.0655 254.14 87.5454 253.179 85.9477C252.031 84.0554 252.186 81.6356 253.551 79.9294C256.715 75.9896 256.343 74.8728 256.234 74.7022C256.203 74.6866 255.971 74.6401 255.459 74.7952C252.108 75.85 243.717 83.2178 239.591 93.5482C238.117 97.2243 237.233 102.979 236.38 109.044C236.303 109.587 236.225 110.114 236.147 110.672L236.101 111.014C233.976 126.308 231.572 143.649 220.807 146.658C219.861 147 218.93 147.124 218.046 147.124Z" fill="#111827"/>
<path d="M263.323 88.3675C263.152 88.3675 262.982 88.2899 262.857 88.1659C262.671 87.9487 262.656 87.6385 262.811 87.4058C264.595 84.893 268.069 83.2799 270.861 81.9924C272.661 81.1703 274.693 80.2242 274.832 79.5572C274.848 79.5106 274.863 79.4021 274.677 79.1694C273.219 77.4166 264.967 80.007 254.621 85.4514C254.326 85.6065 253.954 85.4979 253.783 85.1877C253.628 84.893 253.737 84.5207 254.047 84.3501C258.375 82.07 272.723 74.8883 275.623 78.3628C276.104 78.9367 276.12 79.4641 276.042 79.8053C275.763 81.0618 273.917 81.9149 271.389 83.0937C270.163 83.6676 268.798 84.2881 267.526 85.0326C271.528 83.2798 277.066 81.3875 279.61 82.9076C280.261 83.2954 281.037 84.0864 281.037 85.6996C281.037 86.0408 280.757 86.32 280.416 86.32C280.075 86.32 279.796 86.0408 279.796 85.6996C279.796 84.862 279.532 84.2881 278.974 83.9623C276.104 82.2561 266.906 86.5062 263.618 88.2899C263.524 88.352 263.431 88.3675 263.323 88.3675Z" fill="#111827"/>
<path d="M266.751 91.175C266.503 91.175 266.27 91.0199 266.177 90.7717C266.053 90.446 266.224 90.1047 266.55 89.9806C267.48 89.6394 268.613 89.1585 269.807 88.6622C274.429 86.7078 279.672 84.4897 281.58 86.3045C282.433 87.1111 282.495 88.4916 281.751 90.5235C281.626 90.8493 281.285 91.0044 280.959 90.8958C280.634 90.7872 280.479 90.4305 280.587 90.1047C281.13 88.6312 281.177 87.6229 280.727 87.1886C279.408 85.9322 273.917 88.2589 270.288 89.7945C269.078 90.3064 267.93 90.7872 266.984 91.144C266.891 91.1595 266.813 91.175 266.751 91.175Z" fill="#111827"/>
<path d="M224.018 182.815C206.599 182.815 198.068 170.732 197.975 170.592C197.788 170.313 197.85 169.925 198.13 169.739C198.409 169.553 198.797 169.615 198.983 169.894C199.091 170.049 209.856 185.235 231.99 180.752C255.149 176.068 258.98 142.439 261.027 124.369C261.151 123.283 261.26 122.259 261.384 121.282C261.493 120.32 261.555 119.359 261.617 118.397C261.679 117.466 261.741 116.551 261.834 115.652C261.865 115.217 261.927 114.752 262.005 114.287C262.578 109.711 264.021 101.661 267.185 99.427C269.621 97.7052 272.692 96.5729 275.406 95.5647C278.477 94.4324 281.378 93.3621 281.657 91.9351C281.75 91.4232 281.75 91.082 281.626 90.9734C280.882 90.3064 276.073 91.904 269.977 93.9205C269.652 94.0291 269.31 93.8585 269.202 93.5327C269.093 93.207 269.264 92.8657 269.589 92.7572C278.384 89.8566 281.223 88.9724 282.448 90.0582C283.1 90.6321 283.007 91.5473 282.883 92.1833C282.479 94.2928 279.548 95.3786 275.84 96.728C273.204 97.7052 270.21 98.8065 267.899 100.435C265.867 101.862 264.161 106.981 263.23 114.457C263.152 114.907 263.106 115.341 263.075 115.76C262.966 116.66 262.92 117.544 262.858 118.459C262.796 119.436 262.734 120.414 262.609 121.406C262.501 122.383 262.377 123.407 262.253 124.477C260.159 142.858 256.265 177.06 232.239 181.915C229.307 182.567 226.577 182.815 224.018 182.815Z" fill="#111827"/>
<path d="M262.625 114.426C262.547 114.876 262.501 115.31 262.47 115.76C257.677 117.141 252.605 117.497 247.626 116.691C243.158 115.962 238.474 113.992 235.589 110.657C235.682 110.099 235.744 109.571 235.822 109.028C238.908 113.465 245.407 115.45 250.79 115.822C254.807 116.086 258.809 115.59 262.625 114.426Z" fill="#111827"/>
<path d="M216.913 182.241C216.836 182.241 216.774 182.225 216.696 182.21C216.37 182.086 216.215 181.745 216.324 181.419C221.132 168.296 240.444 163.085 250.619 166.109C250.945 166.202 251.131 166.544 251.038 166.869C250.945 167.195 250.604 167.381 250.278 167.288C240.537 164.403 222.063 169.351 217.487 181.853C217.394 182.086 217.162 182.241 216.913 182.241Z" fill="#111827"/>
<path d="M156.544 4.28168C153.721 1.53621 147.594 -1.11619 134.425 1.84643C134.224 1.89297 134.053 2.03257 133.991 2.23421C133.913 2.43586 133.944 2.65301 134.069 2.80813L136.705 6.42222C136.861 6.63938 137.124 6.73244 137.372 6.65489C142.972 4.97968 147.749 5.18133 150.836 7.21329C152.728 8.45418 153.876 10.3776 154.156 12.7818C154.869 18.8622 143.298 20.5063 143.189 20.5218C142.879 20.5684 142.646 20.8476 142.662 21.1578L143.174 31.4572C143.189 31.7829 143.468 32.0466 143.794 32.0466H146.043C146.214 32.0466 146.369 31.9846 146.493 31.8605C146.602 31.7364 146.679 31.5813 146.664 31.4107L146.431 24.0429C148.758 23.531 157.909 21.1268 159.274 14.1468C160.019 10.238 159.057 6.73244 156.544 4.28168Z" fill="#111827"/>
<path d="M146.477 34.2027H143.39C143.096 34.2027 142.848 34.4043 142.786 34.6835L141.917 38.5613C141.886 38.732 141.917 38.9026 142.01 39.0422C142.103 39.1818 142.258 39.2748 142.429 39.3059L146.369 39.9108C146.4 39.9108 146.431 39.9108 146.462 39.9108C146.601 39.9108 146.756 39.8643 146.865 39.7557C147.005 39.6316 147.082 39.461 147.082 39.2904V34.8076C147.098 34.4819 146.818 34.2027 146.477 34.2027Z" fill="#111827"/>
</g>
<defs>
<clipPath id="clip0_23016_4483">
<rect width="300" height="190.909" fill="white" transform="translate(0 0.545471)"/>
</clipPath>
</defs>
</svg>
