<svg width="40" height="80" viewBox="0 0 40 80" fill="none" xmlns="http://www.w3.org/2000/svg">
<path d="M30 61.25H10C9.31667 61.25 8.75 60.6833 8.75 60C8.75 59.3167 9.31667 58.75 10 58.75H30C30.6833 58.75 31.25 59.3167 31.25 60C31.25 60.6833 30.6833 61.25 30 61.25Z" fill="#3D444C"/>
<path d="M30 21.25H10C9.31667 21.25 8.75 20.6833 8.75 20C8.75 19.3167 9.31667 18.75 10 18.75H30C30.6833 18.75 31.25 19.3167 31.25 20C31.25 20.6833 30.6833 21.25 30 21.25Z" fill="#3D444C"/>
<path d="M20 31.25C19.3167 31.25 18.75 30.6833 18.75 30V10C18.75 9.31667 19.3167 8.75 20 8.75C20.6833 8.75 21.25 9.31667 21.25 10V30C21.25 30.6833 20.6833 31.25 20 31.25Z" fill="#3D444C"/>
</svg>
