<svg width="200" height="128" viewBox="0 0 200 128" fill="none" xmlns="http://www.w3.org/2000/svg">
<g clip-path="url(#clip0_23016_3646)">
<path d="M160.639 112.097C159.372 106.743 158.095 101.388 156.765 96.0431C154.992 88.9071 152.803 82.0371 150.755 74.981C150.755 74.981 139.364 98.4365 128.514 104.633C116.254 111.636 95.476 109.349 87.5156 104.003C88.411 109.03 84.6169 115.492 81.2041 116.228C82.0551 118.878 82.4806 122.451 83.1898 125.136C83.2873 125.385 83.367 125.642 83.4646 125.89L163.423 124.188L160.639 112.097Z" fill="#D7E2FA"/>
<path d="M69.7065 31.9434L85.6183 40.3469L83.8188 66.382L46.9778 68.4741L45.1074 41.9691L69.7065 31.9434Z" fill="#D7E2FA"/>
<path d="M117.575 0.181909C116.644 1.55591 115.678 2.90332 114.65 4.21527C114.339 4.61417 114.898 5.1815 115.208 4.77373C116.281 3.41746 117.291 2.01687 118.257 0.580813C118.55 0.155316 117.858 -0.243588 117.575 0.181909Z" fill="#111827"/>
<path d="M50.7103 66.533C50.5064 66.533 50.3291 66.3735 50.3114 66.1607L48.441 39.6558C48.4321 39.4874 48.5296 39.3278 48.6892 39.2569L73.2883 29.2222C73.3946 29.1779 73.5187 29.1868 73.6251 29.24L89.5369 37.6613C89.6788 37.7322 89.7586 37.8829 89.7497 38.0424L87.9502 64.0776C87.9325 64.2726 87.7729 64.4321 87.5779 64.4499L50.728 66.5419C50.7192 66.533 50.7103 66.533 50.7103 66.533ZM49.2565 39.8951L51.0738 65.7175L87.179 63.6698L88.9342 38.2463L73.4124 30.0378L49.2565 39.8951Z" fill="#111827"/>
<path d="M89.3507 38.0068L74.4849 52.6688L70.7441 49.4066L67.2958 52.2876L48.8398 39.629L89.3507 38.0068Z" fill="#111827"/>
<path d="M74.4848 53.0675C74.3961 53.0675 74.2986 53.0321 74.2277 52.97L70.7439 49.9295L67.5527 52.5889C67.4197 52.7041 67.2159 52.713 67.074 52.6155L48.6092 39.9569C48.4674 39.8594 48.4053 39.6821 48.4496 39.5225C48.494 39.3541 48.6447 39.2389 48.8131 39.2389L89.324 37.6167C89.5013 37.5989 89.6431 37.7053 89.7052 37.856C89.7672 38.0067 89.7406 38.184 89.6165 38.2992L74.7684 52.9523C74.6887 53.0232 74.5911 53.0675 74.4848 53.0675ZM70.7439 49.0165C70.8414 49.0165 70.9301 49.0519 71.001 49.114L74.467 52.1279L88.34 38.4499L50.0453 39.9835L67.269 51.7911L70.4869 49.1051C70.5666 49.0431 70.6553 49.0165 70.7439 49.0165Z" fill="#111827"/>
<path d="M50.7017 66.5333C50.5421 66.5333 50.3914 66.4358 50.3294 66.2851C50.2673 66.1255 50.3116 65.9482 50.4446 65.833L70.4873 49.1145C70.638 48.9904 70.8596 48.9904 71.0014 49.1233L87.8086 63.7587C87.9327 63.865 87.977 64.0335 87.9238 64.1842C87.8706 64.3349 87.7288 64.4412 87.5692 64.4501L50.7194 66.5421C50.7194 66.5333 50.7105 66.5333 50.7017 66.5333ZM70.7444 49.93L51.8807 65.6645L86.5587 63.6966L70.7444 49.93Z" fill="#111827"/>
<path d="M75.6817 57.1009C75.1144 56.4538 74.6179 55.7535 74.0683 55.0887C73.7404 54.6898 73.1819 55.2571 73.5099 55.6472C74.0595 56.312 74.5559 57.0123 75.1232 57.6594C75.4512 58.0494 76.0185 57.4821 75.6817 57.1009Z" fill="#111827"/>
<path d="M45.542 46.4902L70.2031 45.7012V27.2896L45.3115 26.9971" fill="white"/>
<path d="M45.5418 46.8801C45.3291 46.8801 45.1518 46.7117 45.1429 46.4989C45.134 46.2773 45.3113 46.1 45.5241 46.0912L69.804 45.3111V27.6884L45.3025 27.3959C45.0809 27.3959 44.9036 27.2097 44.9124 26.997C44.9124 26.7754 45.072 26.5803 45.3113 26.6069L70.2029 26.8995C70.4245 26.8995 70.593 27.0767 70.593 27.2984V45.7011C70.593 45.9139 70.4245 46.0912 70.2118 46.1L45.5507 46.8801H45.5418Z" fill="#111827"/>
<path d="M51.3661 32.1118H47.9975C47.7759 32.1118 47.5986 31.9345 47.5986 31.7129C47.5986 31.4913 47.7759 31.314 47.9975 31.314H51.3661C51.5877 31.314 51.765 31.4913 51.765 31.7129C51.765 31.9345 51.5877 32.1118 51.3661 32.1118Z" fill="#111827"/>
<path d="M64.8397 32.1118H55.5053C55.2837 32.1118 55.1064 31.9345 55.1064 31.7129C55.1064 31.4913 55.2837 31.314 55.5053 31.314H64.8486C65.0702 31.314 65.2475 31.4913 65.2475 31.7129C65.2386 31.9345 65.0613 32.1118 64.8397 32.1118Z" fill="#111827"/>
<path d="M49.6818 41.9248H47.9975C47.7759 41.9248 47.5986 41.7475 47.5986 41.5259C47.5986 41.3042 47.7759 41.127 47.9975 41.127H49.6818C49.9034 41.127 50.0807 41.3042 50.0807 41.5259C50.0807 41.7475 49.9034 41.9248 49.6818 41.9248Z" fill="#111827"/>
<path d="M57.7577 41.9248H51.978C51.7564 41.9248 51.5791 41.7475 51.5791 41.5259C51.5791 41.3042 51.7564 41.127 51.978 41.127H57.7577C57.9793 41.127 58.1566 41.3042 58.1566 41.5259C58.1566 41.7475 57.9793 41.9248 57.7577 41.9248Z" fill="#111827"/>
<path d="M62.5441 36.686H60.1684C59.9468 36.686 59.7695 36.5087 59.7695 36.2871C59.7695 36.0655 59.9468 35.8882 60.1684 35.8882H62.5441C62.7657 35.8882 62.943 36.0655 62.943 36.2871C62.943 36.5087 62.7657 36.686 62.5441 36.686Z" fill="#111827"/>
<path d="M63.1558 42.9531H60.1684C59.9468 42.9531 59.7695 42.7758 59.7695 42.5542C59.7695 42.3326 59.9468 42.1553 60.1684 42.1553H63.1558C63.3774 42.1553 63.5547 42.3326 63.5547 42.5542C63.5547 42.7758 63.3774 42.9531 63.1558 42.9531Z" fill="#111827"/>
<path d="M61.7551 42.9531C61.5513 42.9531 61.374 42.7935 61.3562 42.5808L60.9573 36.7302C60.9396 36.5086 61.108 36.3224 61.3296 36.3047C61.5513 36.3047 61.7374 36.4554 61.7551 36.677L62.154 42.5276C62.1718 42.7492 62.0034 42.9354 61.7817 42.9531C61.7729 42.9531 61.764 42.9531 61.7551 42.9531Z" fill="#111827"/>
<path d="M59.5214 127.264C59.3352 127.264 59.1756 127.131 59.1313 126.954L48.4496 78.8726C48.423 78.7574 48.4496 78.6421 48.5205 78.5446C48.5914 78.456 48.6978 78.3939 48.813 78.3851L70.1765 77.1706C70.3715 77.1529 70.5311 77.277 70.5843 77.4543L71.453 80.5126C71.5151 80.7253 71.391 80.9469 71.1782 81.0001C70.9655 81.0622 70.7439 80.9381 70.6907 80.7253L69.9106 77.9773L49.3272 79.1474L59.8405 126.457L83.4556 125.624L80.5214 115.315C80.4594 115.102 80.5835 114.88 80.7962 114.827C81.009 114.765 81.2306 114.889 81.2838 115.102L84.3509 125.899C84.3864 126.014 84.3598 126.138 84.2889 126.245C84.2179 126.342 84.1027 126.404 83.9786 126.404L59.5214 127.273C59.5302 127.264 59.5302 127.264 59.5214 127.264Z" fill="#111827"/>
<path d="M54.3712 89.9711C54.2027 89.9711 54.052 89.8648 53.9988 89.7052L51.3661 81.8955C51.3218 81.7714 51.3483 81.6296 51.4281 81.5232C51.5079 81.4169 51.632 81.3637 51.7738 81.3725L56.3125 81.6828C56.4809 81.6917 56.6139 81.8069 56.6671 81.9665L58.7946 88.934C58.83 89.0492 58.8123 89.1645 58.7502 89.262C58.6882 89.3595 58.5818 89.4215 58.4666 89.4393L54.4332 89.9711C54.4066 89.9711 54.3889 89.9711 54.3712 89.9711ZM52.3057 82.2058L54.646 89.1379L57.8904 88.7124L55.9756 82.454L52.3057 82.2058Z" fill="#111827"/>
<path d="M56.4186 96.0254C56.2502 96.0254 56.0995 95.919 56.0463 95.7594L55.1687 93.2242C55.1333 93.1178 55.1421 93.0026 55.1953 92.9051C55.2485 92.8076 55.3372 92.7366 55.4435 92.71L58.8564 91.8413C58.9628 91.8147 59.0691 91.8325 59.1666 91.8856C59.2553 91.9388 59.3262 92.0363 59.3439 92.1427L60.0265 95.3605C60.0531 95.4758 60.0265 95.591 59.9556 95.6797C59.8847 95.7683 59.7783 95.8304 59.6631 95.8392L56.4452 96.0342C56.4364 96.0254 56.4275 96.0254 56.4186 96.0254ZM56.0552 93.366L56.6934 95.2098L59.1489 95.0591L58.6436 92.7012L56.0552 93.366Z" fill="#111827"/>
<path d="M75.4955 121.21C74.8927 121.21 73.9265 121.156 72.3841 121.006C72.2334 120.988 72.1093 120.89 72.0561 120.757L68.723 112.363C68.6787 112.248 68.6876 112.123 68.7496 112.017C68.8117 111.911 68.918 111.84 69.0333 111.822L73.0489 111.237C73.2351 111.21 73.4124 111.317 73.4833 111.494C76.7277 120.341 76.7277 120.616 76.7277 120.704C76.7277 120.82 76.6656 120.952 76.5859 121.023C76.5061 121.103 76.382 121.21 75.4955 121.21ZM72.7032 120.243C73.9088 120.359 75.2384 120.438 75.8412 120.421C75.4601 119.259 73.9442 115.075 72.845 112.07L69.6449 112.54L72.7032 120.243Z" fill="#111827"/>
<path d="M133.559 19.0454C141.891 20.6676 143.354 31.2075 143.354 31.2075C143.354 31.2075 154.248 34.452 152.13 43.6711C150.401 51.1882 141.936 52.1899 136.714 52.0658C134.427 52.0126 132.637 50.0979 132.761 47.8108L133.301 38.1041C133.301 38.1041 138.496 37.6255 137.503 35.2498C136.51 32.8741 131.387 31.2075 131.387 31.2075L133.559 19.0454Z" fill="#111827"/>
<path d="M119.446 19.0454C119.189 19.0543 118.923 19.0897 118.666 19.1075C115.528 19.3468 113.303 22.21 112.505 24.045C111.964 25.286 112.026 26.6512 111.583 27.8745C111.29 28.6812 111.645 28.5216 110.688 28.6723C109.899 28.7964 109.154 29.0446 108.418 29.3549C103.046 31.6419 99.1904 37.3152 101.69 43.0949C104.119 48.715 110.289 50.222 116.015 50.1067C115.891 49.9294 115.758 49.5748 115.599 49.4153C114.251 48.0856 114.783 41.9425 114.074 39.6909C113.923 39.2122 113.285 38.9197 113.037 38.8754C111.991 38.6803 111.166 37.3773 112.771 36.9429C114.632 36.4376 114.26 34.8686 114.331 32.3688C114.384 30.2856 114.145 26.403 114.553 24.3553C115.049 21.8909 117.221 20.1003 119.446 19.0454Z" fill="#111827"/>
<path d="M120.244 40.6929C119.987 41.2337 119.49 41.9074 118.808 41.7478C118.311 41.6326 118.081 42.386 118.577 42.5101C119.632 42.7584 120.483 42.0226 120.917 41.1184C121.139 40.6663 120.465 40.232 120.244 40.6929Z" fill="#111827"/>
<path d="M114.074 39.7619C112.984 39.7619 112.053 39.425 111.574 38.8577C111.273 38.5031 111.158 38.0688 111.237 37.6078C111.468 36.2249 113.826 35.9235 114.092 35.8969C114.313 35.8703 114.508 36.0299 114.526 36.2515C114.553 36.4731 114.393 36.6682 114.172 36.6859C113.516 36.7568 112.115 37.1114 112.009 37.7319C111.973 37.9712 112.026 38.1663 112.168 38.3436C112.487 38.7247 113.232 38.9641 114.065 38.9641C114.287 38.9641 114.464 39.1414 114.464 39.363C114.473 39.5846 114.296 39.7619 114.074 39.7619Z" fill="#111827"/>
<path d="M118.294 31.9788V32.7678C118.294 33.7872 116.707 33.7961 116.707 32.7678V31.9788C116.707 30.9594 118.294 30.9505 118.294 31.9788Z" fill="#111827"/>
<path d="M116.778 27.3072C117.247 27.4402 117.691 27.6618 118.169 27.7593C118.666 27.8657 118.604 28.6547 118.098 28.5483C117.549 28.433 117.043 28.2026 116.512 28.0519C116.024 27.9189 116.29 27.1654 116.778 27.3072Z" fill="#111827"/>
<path d="M124.782 57.2426C124.622 57.2426 124.481 57.154 124.419 56.9944C124.33 56.7905 124.427 56.56 124.631 56.4714C126.218 55.8066 126.785 53.8829 126.972 52.9344C125.349 53.2358 120.669 53.9007 117.717 52.1987C114.402 50.2839 113.746 46.2063 113.684 39.354C113.684 39.1324 113.861 38.9551 114.074 38.9551C114.295 38.9551 114.473 39.1324 114.473 39.3451C114.535 46.9066 115.457 49.9737 118.107 51.5073C121.369 53.3954 127.291 52.048 127.353 52.0391C127.477 52.0125 127.61 52.0391 127.698 52.1278C127.796 52.2076 127.849 52.3317 127.831 52.4646C127.823 52.6153 127.495 56.1345 124.924 57.2071C124.879 57.2337 124.835 57.2426 124.782 57.2426Z" fill="#111827"/>
<path d="M123.107 52.926L124.783 56.8441C126.476 56.1173 127.247 54.1671 127.442 52.4385C126.015 52.7487 124.561 52.9083 123.107 52.926Z" fill="#111827"/>
<path d="M114.136 36.686C113.915 36.686 113.737 36.5087 113.737 36.2871C113.746 34.4432 113.782 32.7235 113.826 30.7911C113.853 29.5589 113.879 28.2381 113.906 26.7488C114.003 20.4816 118.028 17.3081 125.855 17.3081C134.799 17.3081 138.966 20.7121 138.966 28.0342V34.3901C138.966 34.6117 138.788 34.789 138.567 34.789C138.345 34.789 138.168 34.6117 138.168 34.3901V28.0342C138.168 21.1642 134.374 18.1059 125.855 18.1059C118.444 18.1059 114.792 20.9426 114.704 26.7666C114.677 28.2647 114.65 29.5766 114.624 30.8088C114.579 32.7413 114.544 34.4521 114.535 36.2871C114.535 36.5087 114.358 36.686 114.136 36.686Z" fill="#111827"/>
<path d="M137.671 34.461L138.558 34.3901C138.558 34.3901 138.558 34.3901 138.558 28.0342C138.558 21.6783 135.384 17.707 125.846 17.707C121.086 17.707 118.214 18.8683 116.529 20.5791C120.119 26.1727 125.42 30.3035 131.448 32.9806C133.682 32.6438 136.129 32.9274 137.671 34.461Z" fill="#111827"/>
<path d="M133.408 49.2382C133.186 49.2382 133.009 49.0609 133.009 48.8482L132.911 38.1132C132.911 38.0069 132.956 37.9005 133.035 37.8207C133.115 37.7409 133.221 37.6966 133.328 37.7055C134.702 37.7675 135.774 37.4573 136.43 36.819C137.024 36.2517 137.113 35.5868 137.113 35.25C137.113 34.6915 136.909 34.2128 136.501 33.8228C135.659 33.025 133.984 32.6704 131.635 32.7945C131.422 32.7945 131.227 32.635 131.218 32.4222C131.209 32.2006 131.378 32.0144 131.59 32.0056C134.197 31.8726 136.032 32.2892 137.042 33.2555C137.751 33.9292 137.902 34.7181 137.902 35.2589C137.902 36.0655 137.574 36.8279 136.971 37.4041C136.439 37.9093 135.455 38.4944 133.7 38.5121L133.798 48.8393C133.807 49.0521 133.629 49.2293 133.408 49.2382Z" fill="#111827"/>
<path d="M126.352 61.1611C126.192 61.1611 126.041 61.0635 125.979 60.9128L122.841 53.0766C122.761 52.8727 122.859 52.6422 123.063 52.5625C123.267 52.4827 123.497 52.5802 123.577 52.7841L126.715 60.6203C126.795 60.8242 126.697 61.0547 126.493 61.1345C126.449 61.1522 126.396 61.1611 126.352 61.1611Z" fill="#111827"/>
<path d="M125.793 57.3315C125.43 57.3315 125.066 57.3049 124.712 57.234C124.499 57.1985 124.348 56.9857 124.393 56.773C124.428 56.5603 124.641 56.4096 124.853 56.4539C129.729 57.3226 135.828 50.9224 135.89 50.8515C136.041 50.6919 136.289 50.6831 136.448 50.8338C136.608 50.9845 136.617 51.2327 136.466 51.3922C136.218 51.6582 130.81 57.3315 125.793 57.3315Z" fill="#111827"/>
<path d="M100.059 103.799C99.5009 103.799 98.9247 103.781 98.3308 103.737C89.874 103.143 83.3586 99.6506 78.1285 96.8405C75.4071 95.3779 73.0492 94.1191 71.0281 93.6138C65.9132 92.3285 63.6616 94.651 63.0854 95.3956C62.4738 96.2023 62.3851 96.9026 62.5181 97.1419C62.6333 97.3458 62.7397 97.461 62.8372 97.4699C63.112 97.5054 63.6084 96.9912 63.9808 96.6101C64.2821 96.3087 64.5835 95.9984 64.9027 95.7768C66.5692 94.6155 69.2286 96.025 69.725 96.5214C69.8845 96.6721 69.5388 96.5657 69.4324 96.7607C69.3172 96.9469 69.0779 97.009 68.8917 96.9026C68.8651 96.8849 66.6135 95.5729 65.3636 96.4416C65.1065 96.6189 64.8229 96.9026 64.5481 97.1862C63.9542 97.789 63.3868 98.3564 62.7397 98.2677C62.3851 98.2234 62.0749 97.9752 61.8355 97.5408C61.4898 96.9203 61.738 95.8654 62.4649 94.9258C63.112 94.0837 65.6384 91.4598 71.2231 92.8604C73.3417 93.3922 75.7351 94.6776 78.5009 96.158C83.6689 98.9237 90.0957 102.372 98.384 102.957C111.636 103.897 117.203 93.5341 120.581 84.4125C120.944 83.4285 121.308 82.4179 121.68 81.3985C125.19 71.7362 129.17 60.7885 135.429 60.3807C135.65 60.3719 135.837 60.5314 135.854 60.753C135.872 60.9746 135.704 61.1608 135.482 61.1785C129.747 61.5508 125.855 72.2415 122.425 81.6733C122.052 82.6927 121.689 83.7033 121.317 84.6873C118.001 93.6582 112.585 103.799 100.059 103.799Z" fill="#111827"/>
<path d="M60.4789 104.491C60.3105 104.491 60.1598 104.384 60.1066 104.216C59.6191 102.762 60.213 101.122 61.7732 99.5797C63.8297 97.5409 67.6681 95.7946 69.8842 96.5569C70.0881 96.6279 70.2033 96.8583 70.1324 97.0622C70.0615 97.2661 69.831 97.3813 69.6271 97.3104C67.9074 96.7165 64.4325 98.0728 62.3316 100.147C61.5604 100.909 60.346 102.416 60.8601 103.968C60.931 104.172 60.8158 104.402 60.6119 104.473C60.5676 104.482 60.5233 104.491 60.4789 104.491Z" fill="#111827"/>
<path d="M62.0745 107.416C61.9947 107.416 60.798 107.399 60.2218 106.583C59.8584 106.069 59.8318 105.377 60.1421 104.544C61.064 102.027 65.1682 99.8371 67.5351 98.7556C67.739 98.667 67.9694 98.7556 68.0581 98.9507C68.1467 99.1545 68.0581 99.385 67.8631 99.4737C64.0336 101.229 61.4895 103.17 60.8867 104.81C60.6739 105.386 60.6739 105.83 60.8778 106.122C61.1615 106.53 61.844 106.618 62.0834 106.627C62.305 106.627 62.4823 106.805 62.4823 107.026C62.4734 107.239 62.2961 107.416 62.0745 107.416Z" fill="#111827"/>
<path d="M101.69 121.245C101.663 121.245 101.637 121.245 101.61 121.245C88.9518 121.218 78.8905 115.084 74.9458 111.467L74.5026 111.059C72.2864 109.021 68.9622 105.945 67.7123 106.015C67.0298 106.051 66.0458 106.973 65.2569 107.709C64.5122 108.409 63.8651 109.012 63.2978 109.127C62.695 109.366 62.0834 109.286 61.7199 108.914C61.4274 108.613 61.1792 108.001 61.7022 106.849C62.5532 104.978 65.2569 102.753 68.4392 101.3C68.6343 101.211 68.8736 101.3 68.9622 101.495C69.0509 101.698 68.9622 101.929 68.7672 102.018C65.3012 103.604 63.0496 105.803 62.4202 107.177C62.1188 107.842 62.1454 108.223 62.2784 108.356C62.4114 108.489 62.7216 108.498 63.023 108.373C63.0496 108.365 63.0851 108.356 63.1117 108.347C63.4574 108.294 64.1222 107.664 64.7073 107.124C65.6824 106.21 66.6841 105.271 67.6592 105.218C69.1041 105.138 71.7457 107.443 75.0344 110.465L75.4688 110.864C79.3337 114.41 89.1822 120.411 101.593 120.438C101.619 120.438 101.646 120.438 101.672 120.438C119.596 120.438 134.569 107.398 140.756 86.3983C140.818 86.1855 141.04 86.0614 141.252 86.1323C141.465 86.1944 141.58 86.416 141.518 86.6287C135.242 107.983 119.978 121.245 101.69 121.245Z" fill="#111827"/>
<path d="M98.5608 89.5098C96.7436 89.5098 94.8909 89.0931 93.0028 88.2421C91.4426 87.5418 89.9711 86.8681 88.5971 86.2388C81.0091 82.755 76.0006 80.4591 71.1163 81.0264C67.0297 81.5051 62.562 83.0387 61.9326 85.042C61.8706 85.2548 61.6401 85.37 61.4362 85.2991C61.2234 85.2371 61.1082 85.0066 61.1791 84.8027C62.0567 82.0104 67.7832 80.6187 71.0276 80.2375C76.1336 79.6347 81.2218 81.9749 88.934 85.5119C90.308 86.1413 91.7706 86.815 93.3308 87.5153C102.86 91.788 109.686 83.7124 113.728 76.1775C114.765 74.2451 115.661 72.153 116.529 70.123C118.648 65.1766 120.642 60.505 124.552 57.8102C124.729 57.6861 124.977 57.7304 125.101 57.9077C125.225 58.085 125.181 58.3332 125.004 58.4573C121.281 61.0192 119.33 65.5933 117.256 70.4244C116.379 72.4721 115.474 74.5819 114.419 76.541C109.828 85.1307 104.42 89.5098 98.5608 89.5098Z" fill="#111827"/>
<path d="M62.0126 88.6675C61.7821 88.6675 61.3388 88.6232 60.9754 88.3129C60.7715 88.1356 60.5233 87.8076 60.4879 87.2403C60.4169 85.8042 62.8192 83.464 67.4288 81.9482C67.6415 81.8772 67.8631 81.9925 67.9341 82.2052C68.005 82.4091 67.8897 82.6396 67.677 82.7105C63.0674 84.2263 61.2325 86.3893 61.2768 87.2048C61.2857 87.4442 61.3566 87.6037 61.4807 87.7101C61.7023 87.8963 62.0569 87.8697 62.0657 87.8697C62.2785 87.8431 62.4824 88.0026 62.5001 88.2243C62.5267 88.4459 62.3671 88.6409 62.1455 88.6586C62.1455 88.6675 62.0923 88.6675 62.0126 88.6675Z" fill="#111827"/>
<path d="M62.9339 90.2278C62.5794 90.2278 62.2159 90.1657 61.9322 89.9707C61.6574 89.7845 61.5067 89.492 61.489 89.1374C61.4092 87.6925 64.1218 84.7584 68.7047 83.2514C68.9175 83.1805 69.1391 83.2957 69.21 83.5085C69.2809 83.7123 69.1657 83.9428 68.9529 84.0137C64.4498 85.4941 62.2336 88.251 62.278 89.102C62.2868 89.2438 62.3312 89.297 62.3843 89.3325C62.668 89.5363 63.4303 89.43 63.8824 89.297C64.0952 89.2349 64.3168 89.3502 64.3789 89.5629C64.4409 89.7757 64.3257 89.9973 64.1129 90.0593C64.0331 90.0771 63.5013 90.2278 62.9339 90.2278Z" fill="#111827"/>
<path d="M70.6106 93.1621C70.4954 93.1621 70.3801 93.1089 70.3003 93.0203C70.1585 92.8519 70.1851 92.6036 70.3535 92.4618C71.045 91.8945 72.747 90.1748 72.3215 89.0312C72.1885 88.6767 72.0289 88.6146 71.9757 88.5969C71.5591 88.4462 70.7347 88.9337 70.0167 89.3592C69.671 89.5631 69.3252 89.7759 68.9973 89.9266C68.6959 90.0684 68.2438 90.3521 67.7562 90.6535C65.9745 91.7615 64.6536 92.515 63.8558 92.1959C63.6697 92.125 63.4215 91.9477 63.324 91.5665C62.863 89.7847 64.3877 88.5082 69.5291 85.3259C69.7153 85.2106 69.9635 85.2638 70.0787 85.4588C70.194 85.645 70.1408 85.8932 69.9458 86.0084C64.6448 89.2972 63.8027 90.2723 64.0863 91.3715C64.104 91.4424 64.1306 91.4513 64.1484 91.4601C64.6448 91.664 66.4 90.5648 67.3396 89.9797C67.8626 89.6518 68.3147 89.377 68.6515 89.2085C68.9618 89.0578 69.2809 88.8628 69.6089 88.6678C70.522 88.1271 71.4616 87.5597 72.2417 87.8345C72.614 87.9675 72.8888 88.2689 73.0661 88.7387C73.7575 90.6091 71.1513 92.8164 70.8499 93.0646C70.7879 93.1355 70.6993 93.1621 70.6106 93.1621Z" fill="#111827"/>
<path d="M87.037 101.087C86.9572 101.087 86.8774 101.06 86.8065 101.016C77.5696 94.527 75.7347 93.747 73.82 94.3054C73.6072 94.3675 73.3856 94.2434 73.3324 94.0306C73.2704 93.8179 73.3945 93.5963 73.6072 93.5431C75.8411 92.896 77.6849 93.6317 87.2674 100.369C87.4447 100.493 87.4891 100.741 87.3649 100.918C87.2852 101.025 87.1611 101.087 87.037 101.087Z" fill="#111827"/>
<path d="M86.647 86.3453C86.4875 85.7603 86.2836 84.8738 85.8758 84.2622C85.5035 84.1824 85.1401 84.0849 84.7766 83.9785C84.7234 84.1381 84.7589 84.3154 84.945 84.4217C85.5212 84.7497 85.7783 86.106 85.929 86.7265C86.3368 88.3576 86.39 90.095 86.0442 91.7438C85.6099 93.8536 84.4132 96.575 82.1261 97.1423C82.1173 97.1423 82.1173 97.1512 82.1084 97.1512C82.2768 97.3817 82.4541 97.6033 82.6403 97.816C85.1401 97.0005 86.4432 94.0132 86.8687 91.6109C87.1789 89.8646 87.1257 88.0562 86.647 86.3453Z" fill="#111827"/>
<path d="M87.7908 85.627C89.3598 89.678 88.8634 97.3547 83.6865 98.4983C84.0322 98.6401 84.378 98.8085 84.6971 99.0035C89.2712 97.2484 90.131 90.4936 88.7836 86.1234C88.4202 85.9904 88.1011 85.822 87.7908 85.627Z" fill="#111827"/>
<path d="M86.416 100.839C86.3629 100.919 86.3451 101.025 86.3717 101.14C87.6128 105.705 86.6731 113.418 81.8242 115.802C82.1167 115.953 82.4093 116.086 82.7107 116.219C87.4 113.364 88.4372 105.909 87.1784 101.06C86.9213 100.99 86.6642 100.919 86.416 100.839Z" fill="#111827"/>
<path d="M89.1908 101.734C89.6695 105.422 90.1393 109.233 88.3841 112.682C87.4977 114.419 86.2567 115.873 84.9004 117.238C85.1486 117.362 85.3879 117.486 85.6184 117.628C87.1254 116.094 88.4817 114.446 89.377 112.451C90.8574 109.145 90.4673 105.51 90.0152 102.026C89.7493 101.92 89.4656 101.823 89.1908 101.734Z" fill="#111827"/>
<path d="M121.024 78.7304C120.997 78.2252 120.208 78.2163 120.226 78.7304C120.306 80.4767 120.722 82.1876 120.696 83.9428C120.687 84.4569 121.485 84.4569 121.494 83.9428C121.511 82.1965 121.103 80.4856 121.024 78.7304Z" fill="#111827"/>
<path d="M138.097 95.6173C138.088 95.4134 137.928 95.2538 137.715 95.245C137.512 95.2361 137.325 95.3957 137.299 95.5996C137.157 96.6456 130.5 108.045 126.13 110.829C126.014 110.9 125.943 111.024 125.943 111.166V115.554C125.943 115.678 126.005 115.802 126.103 115.873C126.174 115.926 126.254 115.953 126.333 115.953C126.378 115.953 126.413 115.944 126.458 115.935C126.59 115.882 138.664 111.831 138.097 95.6173Z" fill="#111827"/>
<path d="M160.392 112.035C160.214 112.035 160.055 111.919 160.01 111.733C159.957 111.512 154.373 89.7314 150.543 75.3708C146.74 61.1433 138.416 55.0268 138.337 54.9647C138.266 54.9115 138.212 54.8406 138.186 54.7608L137.131 51.2505C137.069 51.0377 137.184 50.8161 137.397 50.754C137.61 50.692 137.831 50.8072 137.893 51.02L138.913 54.4062C139.932 55.1952 147.68 61.5776 151.314 75.167C155.153 89.5275 160.728 111.317 160.79 111.538C160.844 111.751 160.72 111.964 160.507 112.026C160.462 112.026 160.427 112.035 160.392 112.035Z" fill="#111827"/>
<path d="M50.71 101.725H36.7573C36.5977 101.725 36.4559 101.628 36.3938 101.477C36.3318 101.326 36.3672 101.158 36.4736 101.043L44.3453 93.0913L44.2212 91.212C44.2035 90.9904 44.3719 90.8042 44.5935 90.7865C44.8063 90.7776 45.0013 90.9372 45.019 91.1588L45.152 93.2154C45.1608 93.3306 45.1165 93.437 45.0367 93.5168L37.7058 100.919H50.71C50.9316 100.919 51.1089 101.096 51.1089 101.318C51.1001 101.548 50.9228 101.725 50.71 101.725Z" fill="#111827"/>
<path d="M46.0561 91.5932C46.0206 91.5932 45.9763 91.5844 45.9408 91.5755L43.3346 90.7954C43.1751 90.7511 43.0598 90.6004 43.051 90.432L40.4448 12.4153C40.4359 12.238 40.5512 12.0784 40.7196 12.0252L44.9923 10.6867C45.1076 10.6512 45.2405 10.6689 45.3469 10.7399C45.4444 10.8108 45.5065 10.9349 45.5153 11.059L46.4461 91.1943C46.4461 91.3184 46.3929 91.4425 46.2865 91.5134C46.2245 91.5666 46.1447 91.5932 46.0561 91.5932ZM43.8399 90.1217L45.6483 90.6624L44.7352 11.5997L41.2603 12.6901L43.8399 90.1217Z" fill="#111827"/>
</g>
<defs>
<clipPath id="clip0_23016_3646">
<rect width="200" height="127.273" fill="white"/>
</clipPath>
</defs>
</svg>
