<svg width="200" height="128" viewBox="0 0 200 128" fill="none" xmlns="http://www.w3.org/2000/svg">
<g clip-path="url(#clip0_23016_3567)">
<path d="M110.661 105.361C113.42 106.299 116.258 106.974 119.108 107.568V102.959H105.099C106.884 103.909 108.738 104.709 110.661 105.361Z" fill="#111827"/>
<path d="M86.2932 108.54C84.9198 108.677 83.718 109.672 82.5276 110.278C82.2872 110.404 81.8981 110.313 81.8523 110.004C81.5204 108.003 82.8595 106.642 84.3704 105.544C85.4348 104.766 86.877 104.034 87.7926 102.971H43.5664V112.303H90.5854C89.0974 111.113 87.7354 109.775 86.2932 108.54Z" fill="#111827"/>
<path d="M80.3991 106.162H76.0039C75.2943 106.162 75.2943 107.259 76.0039 107.259H80.3991C81.1087 107.259 81.1087 106.162 80.3991 106.162Z" fill="white"/>
<path d="M70.5096 108.357H68.4951C67.7855 108.357 67.7855 109.455 68.4951 109.455H70.5096C71.2192 109.455 71.2192 108.357 70.5096 108.357Z" fill="white"/>
<path d="M57.496 105.247H51.2695C50.5599 105.247 50.5599 106.344 51.2695 106.344H57.496C58.2056 106.344 58.2056 105.247 57.496 105.247Z" fill="white"/>
<path d="M77.0669 83.5752H67.0977V100.283H77.0669V83.5752Z" fill="white"/>
<path d="M77.0674 100.844H67.0982C66.7892 100.844 66.5488 100.604 66.5488 100.295V83.5865C66.5488 83.2778 66.7892 83.0376 67.0982 83.0376H77.0674C77.3765 83.0376 77.6168 83.2778 77.6168 83.5865V100.295C77.6168 100.592 77.365 100.844 77.0674 100.844ZM67.6476 99.7458H76.518V84.1355H67.6476V99.7458Z" fill="#111827"/>
<path d="M106.323 90.5172H37.8432C36.5612 90.5172 35.3823 90.0597 34.4667 89.2935C33.3107 88.3329 32.5781 86.8805 32.5781 85.2565V30.3402C32.5781 28.682 33.345 27.1953 34.5468 26.2346C35.451 25.5142 36.5956 25.0796 37.8432 25.0796H106.323C107.776 25.0796 109.093 25.6628 110.043 26.6235C110.993 27.5727 111.588 28.8878 111.588 30.3402V85.2451C111.588 86.3773 111.233 87.418 110.626 88.2757C109.676 89.6366 108.108 90.5172 106.323 90.5172Z" fill="white"/>
<path d="M106.231 91.066H37.9343C34.6723 91.066 32.0283 88.4128 32.0283 85.1649V30.443C32.0283 27.1837 34.6837 24.542 37.9343 24.542H106.231C109.493 24.542 112.137 27.1952 112.137 30.443V85.1649C112.137 88.4128 109.493 91.066 106.231 91.066ZM37.9343 25.6284C35.2789 25.6284 33.1271 27.7784 33.1271 30.4316V85.1535C33.1271 87.8067 35.2789 89.9567 37.9343 89.9567H106.231C108.886 89.9567 111.038 87.8067 111.038 85.1535V30.443C111.038 27.7899 108.886 25.6399 106.231 25.6399H37.9343V25.6284Z" fill="#111827"/>
<path d="M37.5572 59.056C37.4428 59.056 37.3168 59.0217 37.2253 58.9417C37.0879 58.8387 37.0078 58.6786 37.0078 58.5071V29.8824C37.0078 29.5737 37.2482 29.3335 37.5572 29.3335H62.2227C62.383 29.3335 62.5318 29.4021 62.6348 29.5165C62.7378 29.6308 62.7836 29.7909 62.7721 29.9396C61.1926 43.7202 51.1204 55.4079 37.706 59.0331C37.6602 59.0446 37.603 59.056 37.5572 59.056ZM38.1066 30.4314V57.7752C50.5366 54.1156 59.8649 43.2627 61.5932 30.4314H38.1066Z" fill="#111827"/>
<path d="M106.609 80.5674H37.5572C37.2482 80.5674 37.0078 80.3272 37.0078 80.0184V29.8824C37.0078 29.5737 37.2482 29.3335 37.5572 29.3335H106.598C106.907 29.3335 107.147 29.5737 107.147 29.8824V80.0184C107.159 80.3272 106.907 80.5674 106.609 80.5674ZM38.1066 79.4695H106.048V30.4314H38.1066V79.4695Z" fill="#111827"/>
<path d="M87.9183 101.004H56.248V98.4651C56.248 98.0991 56.5456 97.8018 56.9119 97.8018H87.2545C87.6207 97.8018 87.9183 98.0991 87.9183 98.4651V101.004Z" fill="white"/>
<path d="M87.9179 101.553H56.2476C55.9386 101.553 55.6982 101.313 55.6982 101.004C55.6982 98.934 57.3808 97.2529 59.4524 97.2529H84.7246C86.7962 97.2529 88.4788 98.934 88.4788 101.004C88.4673 101.313 88.227 101.553 87.9179 101.553ZM56.8543 100.455H87.3113C87.0595 99.2543 85.995 98.3508 84.7131 98.3508H59.4524C58.1705 98.3508 57.1061 99.2543 56.8543 100.455Z" fill="#111827"/>
<path d="M101.287 86.7548C102.299 86.7548 103.119 85.9356 103.119 84.925C103.119 83.9144 102.299 83.0952 101.287 83.0952C100.276 83.0952 99.4561 83.9144 99.4561 84.925C99.4561 85.9356 100.276 86.7548 101.287 86.7548Z" fill="#D7E2FA"/>
<path d="M101.287 87.3213C99.9707 87.3213 98.9062 86.2563 98.9062 84.9394C98.9062 83.6226 99.9707 82.5576 101.287 82.5576C102.603 82.5576 103.668 83.6226 103.668 84.9394C103.668 86.2563 102.603 87.3213 101.287 87.3213ZM101.287 83.6455C100.577 83.6455 100.005 84.218 100.005 84.928C100.005 85.6379 100.577 86.2105 101.287 86.2105C101.997 86.2105 102.569 85.6379 102.569 84.928C102.569 84.2295 101.997 83.6455 101.287 83.6455Z" fill="#111827"/>
<path d="M69.5706 69.3942C65.2784 69.3942 61.4556 69.3828 61.1237 69.3828C60.8261 69.3828 60.5743 69.1426 60.5743 68.8339L60.4941 48.935C60.4941 48.6377 60.7345 48.3861 61.0435 48.3861C62.9779 48.3746 68.2658 48.1116 69.6049 46.9909C70.1429 46.5448 71.0127 44.9323 71.9399 43.2284C73.9886 39.443 76.3236 35.1544 78.6928 35.8521C79.1735 35.9893 79.5398 36.3209 79.7344 36.8127C80.6729 39.0999 77.7314 45.1382 76.5296 47.4254C80.3296 47.4369 86.1669 47.7342 86.1783 51.8969C86.1898 53.3036 85.3428 54.2414 84.4271 54.8017C85.3084 55.2363 86.1325 55.9911 86.2012 57.2148C86.2355 57.7866 86.041 58.3126 85.6633 58.7358C85.3657 59.0674 84.9651 59.2961 84.5645 59.4677C85.4458 59.948 86.3157 60.7371 86.3271 61.9951C86.3271 63.1615 85.6404 63.8706 84.8392 64.2708C85.4 64.7512 85.6289 65.4145 85.6404 66.0091C85.6404 67.5073 84.2783 69.1426 81.9777 69.2799C80.5814 69.3714 74.7326 69.3942 69.5706 69.3942ZM61.673 68.2849C64.7291 68.2964 79.6543 68.3307 81.8976 68.1934C83.5458 68.0905 84.5301 67.0041 84.5301 66.0206C84.5301 65.2772 83.9464 64.7969 82.9735 64.7397C82.6759 64.7283 82.4585 64.4767 82.4585 64.1908C82.4585 63.8935 82.6874 63.6533 82.985 63.6419C83.0765 63.6419 85.2283 63.5275 85.2169 62.0065C85.2054 60.4054 82.5157 59.8908 82.4813 59.8794C82.2066 59.8222 82.0121 59.582 82.035 59.2961C82.0579 59.0217 82.2868 58.7929 82.5615 58.7929C83.0079 58.7701 84.3012 58.5985 84.8506 58.0038C85.0337 57.798 85.1139 57.5693 85.1024 57.2834C85.0109 55.6938 82.7332 55.4422 82.7103 55.4422C82.4356 55.4193 82.2295 55.1906 82.2181 54.9275C82.2067 54.6531 82.3898 54.4129 82.653 54.3672C82.756 54.3443 85.0795 53.8297 85.0795 51.9313C85.0681 50.5132 84.038 49.5754 81.932 49.0494C80.0434 48.5805 77.6741 48.5576 75.6139 48.5576C75.4193 48.5576 75.2362 48.4547 75.1446 48.2946C75.0416 48.123 75.0416 47.9172 75.1332 47.7456C76.8844 44.5664 79.4025 38.9169 78.7157 37.2701C78.647 37.0872 78.544 36.9957 78.3838 36.9499C76.8501 36.5039 74.4808 40.884 72.9127 43.7887C71.8483 45.7443 71.0128 47.2768 70.326 47.86C68.6893 49.2323 63.4242 49.4611 61.6158 49.5068L61.673 68.2849Z" fill="#111827"/>
<path d="M76.5748 69.3139C76.5519 69.3139 76.5175 69.314 76.4947 69.3025C75.5447 69.1653 74.629 68.5935 74.1254 67.8387C73.7133 67.2326 73.5874 66.5464 73.7591 65.8717C74.3314 63.5501 77.8796 63.5959 81.0043 63.6416C81.7254 63.6531 82.4007 63.6645 82.9844 63.6416C83.282 63.6188 83.5452 63.8703 83.5567 64.1677C83.5681 64.465 83.3278 64.7281 83.0302 64.7395C82.4235 64.7624 81.7254 64.7509 80.9928 64.7395C78.5434 64.7052 75.1898 64.6594 74.8236 66.1347C74.732 66.5121 74.8007 66.8781 75.0411 67.2326C75.3844 67.7358 76.0139 68.136 76.6663 68.2275C76.9639 68.2733 77.17 68.5477 77.1242 68.8565C77.0784 69.1195 76.8495 69.3139 76.5748 69.3139Z" fill="#111827"/>
<path d="M76.2658 64.8655C76.2429 64.8655 76.2086 64.8655 76.1857 64.8541C75.2815 64.7169 74.3315 64.065 73.7592 63.1844C73.3014 62.464 73.1526 61.6977 73.3472 61.0116C73.9652 58.8158 77.5821 58.8158 80.7754 58.8158C81.4164 58.8158 82.023 58.8158 82.561 58.793C82.8585 58.7701 83.1218 59.0217 83.1332 59.319C83.1447 59.6164 82.9043 59.8794 82.6067 59.8908C82.0574 59.9137 81.4278 59.9137 80.7754 59.9137C78.2574 59.9137 74.8008 59.9137 74.4002 61.3089C74.2514 61.8235 74.5146 62.3382 74.6863 62.5897C75.0755 63.1959 75.7622 63.6876 76.3459 63.7677C76.6435 63.8134 76.8496 64.0879 76.8038 64.3967C76.7694 64.6597 76.5291 64.8655 76.2658 64.8655Z" fill="#111827"/>
<path d="M76.2433 60.1882C76.1861 60.1882 76.1403 60.1768 76.0831 60.1653C72.9241 59.2047 73.0958 57.2491 73.3247 56.46C73.9427 54.2872 77.9144 54.31 81.4282 54.3215C82.1608 54.3215 82.8475 54.3329 83.4083 54.31C83.7174 54.2872 83.9692 54.5388 83.9806 54.8361C83.9921 55.1334 83.7517 55.3965 83.4541 55.4079C82.8704 55.4308 82.1608 55.4308 81.4168 55.4193C78.9331 55.4079 74.7668 55.385 74.3777 56.7574C74.0801 57.8209 74.7554 58.6215 76.4036 59.1132C76.6897 59.2047 76.8614 59.5135 76.7698 59.7994C76.7012 60.0281 76.4837 60.1882 76.2433 60.1882Z" fill="#111827"/>
<path d="M75.6252 55.6593C75.6023 55.6593 75.568 55.6593 75.5451 55.6479C74.5722 55.4992 73.6222 54.9045 73.1186 54.1269C72.7294 53.5208 72.615 52.846 72.7981 52.1942C73.4162 49.9984 77.033 49.9984 80.2264 49.9984C80.8673 49.9984 81.4739 49.9984 82.0119 49.9756C82.3095 49.9527 82.5727 50.2043 82.5842 50.5016C82.5956 50.799 82.3553 51.062 82.0577 51.0734C81.5083 51.0963 80.8788 51.0963 80.2264 51.0963C77.7083 51.0963 74.2517 51.0963 73.8511 52.4915C73.7481 52.846 73.8168 53.2006 74.0342 53.5322C74.3662 54.0468 75.0415 54.4585 75.6939 54.5615C75.9914 54.6072 76.1975 54.8817 76.1517 55.1904C76.1288 55.4649 75.8999 55.6593 75.6252 55.6593Z" fill="#111827"/>
<path d="M86.2695 42.9654C86.155 42.9654 86.0291 42.9311 85.9375 42.851C85.6972 42.668 85.6514 42.3249 85.846 42.0848L89.5773 37.2816C89.7604 37.0414 90.1038 36.9957 90.3441 37.1901C90.5845 37.3731 90.6303 37.7162 90.4357 37.9563L86.7044 42.7595C86.6014 42.8967 86.4412 42.9654 86.2695 42.9654Z" fill="#111827"/>
<path d="M88.1466 46.9679C87.9291 46.9679 87.7231 46.8306 87.6315 46.6133C87.517 46.3274 87.6658 46.0072 87.952 45.9043L91.42 44.5663C91.7062 44.4633 92.0267 44.6006 92.1297 44.8865C92.2441 45.1724 92.0953 45.4926 91.8092 45.5955L88.3411 46.9336C88.2725 46.9564 88.2038 46.9679 88.1466 46.9679Z" fill="#111827"/>
<path d="M55.8475 19.7505H15.2725V33.085H55.8475V19.7505Z" fill="#D7E2FA"/>
<path d="M49.1742 26.1662H21.9449C21.6359 26.1662 21.3955 25.9261 21.3955 25.6173C21.3955 25.3085 21.6359 25.0684 21.9449 25.0684H49.1742C49.4833 25.0684 49.7236 25.3085 49.7236 25.6173C49.7236 25.9261 49.4718 26.1662 49.1742 26.1662Z" fill="#111827"/>
<path d="M51.3036 18.1547C53.3643 18.1547 55.0349 16.4843 55.0349 14.4238C55.0349 12.3633 53.3643 10.6929 51.3036 10.6929C49.2428 10.6929 47.5723 12.3633 47.5723 14.4238C47.5723 16.4843 49.2428 18.1547 51.3036 18.1547Z" fill="#D7E2FA"/>
<path d="M28.4805 94.9087C27.7479 93.9367 27.0154 92.9532 26.2829 91.9811C25.8594 91.4207 24.9094 91.9696 25.3329 92.53C26.0654 93.5021 26.7979 94.4856 27.5305 95.4577C27.954 96.018 28.904 95.4691 28.4805 94.9087Z" fill="#111827"/>
<path d="M127.326 15.3474C127.132 15.153 126.731 15.1187 126.548 15.3474C126.056 15.9535 125.575 16.5711 125.083 17.1772C124.9 17.4059 124.854 17.7261 125.083 17.9549C125.277 18.1493 125.678 18.1836 125.861 17.9549C126.353 17.3487 126.834 16.7312 127.326 16.1251C127.509 15.8963 127.544 15.5761 127.326 15.3474Z" fill="#D7E2FA"/>
<path d="M152.667 61.4348C154.727 59.9252 157.245 58.7588 159.82 58.8388L156.329 46.3048C156.329 46.3048 162.201 42.4508 161.548 31.4836C161.274 26.8176 159.019 22.3575 155.505 19.6815C149.736 15.29 136.734 14.1349 135.99 23.7985C136.402 32.2383 134.502 41.2843 135.258 46.6822C135.509 48.4891 136.23 50.4561 137.272 51.2566C140.385 53.6354 144.139 52.1715 144.139 52.1715L148.798 65.163C149.908 63.7335 151.247 62.4869 152.667 61.4348Z" fill="white"/>
<path d="M149.221 64.6599L144.677 51.9772C144.632 51.84 144.517 51.7256 144.391 51.6684C144.323 51.6341 144.243 51.6227 144.162 51.6227C144.094 51.6227 144.025 51.6341 143.968 51.657C143.934 51.6684 140.465 52.9836 137.627 50.8221C136.814 50.2046 136.082 48.5006 135.819 46.6022C135.441 43.9147 135.75 40.1637 136.082 36.1839C136.402 32.3299 136.757 27.9613 136.562 23.7985C136.791 20.9395 138.153 18.9268 140.603 17.8289C144.964 15.8733 151.671 17.4286 155.185 20.1047C158.561 22.6778 160.747 26.9435 161.011 31.5065C161.629 41.9934 156.089 45.8017 156.032 45.8474C155.837 45.9732 155.745 46.2248 155.803 46.4535L159.259 58.8503C159.637 58.8389 160.026 58.8503 160.415 58.8846L156.97 46.5221C158.241 45.5043 162.682 41.2272 162.109 31.4493C161.823 26.5661 159.477 22.0031 155.849 19.2355C152.094 16.3765 145.021 14.6496 140.145 16.8339C137.329 18.0919 135.704 20.4821 135.452 23.7528C135.452 23.7757 135.452 23.7985 135.452 23.8214C135.647 27.9156 135.292 32.2613 134.972 36.0924C134.64 40.1293 134.319 43.9376 134.72 46.7509C134.96 48.5006 135.681 50.7192 136.952 51.6913C139.596 53.704 142.606 53.1894 143.819 52.8578L148.432 65.7005C148.672 65.3346 148.935 64.9915 149.221 64.6599Z" fill="#111827"/>
<path d="M161.56 31.4835C161.285 26.8175 159.031 22.3574 155.517 19.6814C151.247 16.4335 143.018 14.9582 138.737 18.3319C140.878 18.5492 142.915 19.2125 144.586 20.5391C145.067 22.8949 145.548 25.2508 146.04 27.618C146.291 28.8531 146.303 31.6092 147.791 32.1124C148.409 32.3183 148.89 32.2039 149.244 31.8608C149.29 32.2725 149.382 32.2154 149.416 32.6271C149.76 33.2904 150.069 33.9537 150.309 34.6284C151.499 37.8877 151.442 43.3542 154.521 45.6071C155.299 46.1674 155.723 46.785 156.616 46.8651C157.955 45.71 162.098 40.6209 161.56 31.4835Z" fill="#111827"/>
<path d="M134.354 41.6388C134.228 41.6388 134.102 41.5931 133.999 41.513C131.149 39.1686 132.213 36.8242 133.976 32.9473C134.411 31.9981 134.903 30.9231 135.395 29.7109C135.51 29.425 135.83 29.2992 136.116 29.4136C136.403 29.5279 136.529 29.8481 136.414 30.1341C135.91 31.3577 135.418 32.4441 134.983 33.4048C133.141 37.4532 132.614 38.9399 134.697 40.6667C134.926 40.8611 134.96 41.2042 134.766 41.4444C134.663 41.5702 134.514 41.6388 134.354 41.6388Z" fill="#111827"/>
<path d="M148.638 31.6206C153.582 27.6409 157.897 29.7566 158.801 32.5813C160.312 37.2472 156.741 40.6781 149.599 40.6781" fill="white"/>
<path d="M149.599 41.2273C149.29 41.2273 149.05 40.9871 149.05 40.6784C149.05 40.3696 149.29 40.1294 149.599 40.1294C153.502 40.1294 156.398 39.0887 157.771 37.2132C158.664 35.9895 158.836 34.4457 158.286 32.7531C157.897 31.5638 156.833 30.5802 155.493 30.1914C153.513 29.6082 151.213 30.2715 148.981 32.0555C148.741 32.2499 148.397 32.2042 148.214 31.9755C148.019 31.7353 148.065 31.3922 148.294 31.2092C151.682 28.476 154.463 28.739 155.814 29.1507C157.519 29.6539 158.836 30.889 159.328 32.4329C159.992 34.48 159.763 36.3669 158.653 37.8879C157.073 40.0265 153.857 41.2273 149.599 41.2273Z" fill="#111827"/>
<path d="M155.231 33.1421C153.296 33.0163 151.442 34.1142 150.641 35.8753C150.343 36.5158 151.293 37.0761 151.591 36.4243C152.255 34.9833 153.651 34.137 155.231 34.24C155.94 34.2857 155.94 33.1878 155.231 33.1421Z" fill="#111827"/>
<path d="M137.558 31.6209C137.937 31.6209 138.245 31.3137 138.245 30.9347C138.245 30.5557 137.937 30.2485 137.558 30.2485C137.179 30.2485 136.871 30.5557 136.871 30.9347C136.871 31.3137 137.179 31.6209 137.558 31.6209Z" fill="#111827"/>
<path d="M138.783 26.7262C138.462 26.5889 138.142 26.4517 137.821 26.3145C137.547 26.2001 137.238 26.2344 137.066 26.5089C136.929 26.7376 136.986 27.1493 137.26 27.2637L138.222 27.6754C138.497 27.7897 138.806 27.7554 138.977 27.4809C139.115 27.2522 139.057 26.852 138.783 26.7262Z" fill="#111827"/>
<path d="M140.866 42.5425C140.648 43.3659 139.927 43.9949 139.069 44.052C138.371 44.0978 138.359 45.1956 139.069 45.1499C140.42 45.0699 141.587 44.155 141.93 42.8284C142.102 42.1536 141.049 41.8563 140.866 42.5425Z" fill="#111827"/>
<path d="M128.219 111.057C128.173 111.057 128.116 111.045 128.07 111.034C127.955 110.999 116.441 107.706 109.367 105.396C106.14 104.344 103.679 102.651 101.882 101.427C100.337 100.375 99.1235 99.5404 98.6199 99.9521C98.5513 100.009 98.4826 100.078 98.4826 100.147C98.494 100.512 99.4669 101.256 100.051 101.702C100.806 102.274 101.47 102.777 101.676 103.326C101.779 103.612 101.642 103.932 101.355 104.035C101.069 104.138 100.749 104.001 100.646 103.715C100.554 103.463 99.879 102.96 99.3868 102.582C98.4139 101.839 97.3952 101.073 97.3838 100.181C97.3838 99.9064 97.4639 99.4947 97.9217 99.1173C99.0663 98.1795 100.508 99.1745 102.5 100.535C104.24 101.725 106.62 103.36 109.699 104.366C116.75 106.665 128.253 109.959 128.367 109.993C128.665 110.073 128.825 110.382 128.745 110.668C128.676 110.908 128.459 111.057 128.219 111.057Z" fill="#111827"/>
<path d="M102.248 104.195C102.248 104.195 97.4295 101.153 95.003 100.204C91.535 98.8428 88.0211 100.238 89.7036 101.496C90.5735 102.148 91.6609 101.896 92.9084 102.148C94.9687 102.56 96.4795 104.755 96.4795 104.755" fill="white"/>
<path d="M96.48 105.293C96.3083 105.293 96.1366 105.213 96.0222 105.052C96.0107 105.03 94.6029 103.028 92.7945 102.674C92.3939 102.594 92.0047 102.571 91.627 102.548C90.8601 102.502 90.0704 102.445 89.3722 101.93C88.4336 101.233 88.7427 100.489 88.8571 100.284C89.5095 99.1171 92.4168 98.6024 95.1981 99.6889C97.6474 100.649 102.34 103.611 102.535 103.737C102.787 103.897 102.867 104.24 102.706 104.492C102.546 104.744 102.203 104.824 101.951 104.664C101.905 104.629 97.1438 101.633 94.7975 100.718C92.9661 99.9976 91.0662 100.101 90.1505 100.569C89.8987 100.695 89.8186 100.81 89.8071 100.844C89.8071 100.855 89.8644 100.947 90.0246 101.061C90.4595 101.381 91.0089 101.416 91.6957 101.461C92.0963 101.484 92.5427 101.519 93.0119 101.61C95.2667 102.056 96.8577 104.343 96.9264 104.446C97.098 104.698 97.0294 105.041 96.789 105.213C96.6974 105.258 96.583 105.293 96.48 105.293Z" fill="#111827"/>
<path d="M85.7891 104.629C86.4644 103.508 88.639 102.136 90.2872 102.273C92.8854 102.502 96.4679 104.743 96.4679 104.743" fill="white"/>
<path d="M96.4795 105.293C96.3765 105.293 96.2735 105.27 96.1934 105.213C96.159 105.19 92.691 103.04 90.2531 102.822C88.7651 102.697 86.8193 104 86.27 104.915C86.1097 105.178 85.7778 105.258 85.5145 105.098C85.2513 104.938 85.1712 104.607 85.3314 104.344C86.144 103.005 88.5248 101.565 90.3446 101.725C93.0458 101.953 96.6169 104.183 96.7771 104.275C97.0289 104.435 97.109 104.778 96.9488 105.03C96.8343 105.201 96.6627 105.293 96.4795 105.293Z" fill="#111827"/>
<path d="M93.4581 105.979C93.4581 105.979 90.0588 103.92 87.4606 103.691C85.4461 103.52 83.2142 105.132 83.0654 106.447" fill="white"/>
<path d="M83.054 106.996C83.0311 106.996 83.0196 106.996 82.9967 106.996C82.6992 106.962 82.4817 106.699 82.5046 106.39C82.6877 104.652 85.2973 102.96 87.4949 103.143C90.1961 103.371 93.5955 105.418 93.7328 105.51C93.9961 105.67 94.0762 106.002 93.916 106.265C93.7557 106.528 93.4238 106.608 93.1605 106.448C93.1262 106.425 89.8413 104.446 87.3919 104.24C85.6064 104.08 83.6949 105.567 83.5919 106.516C83.569 106.791 83.3401 106.996 83.054 106.996Z" fill="#111827"/>
<path d="M133.003 127.273C130.324 127.273 127.52 126.346 123.743 125.1C123.022 124.86 122.255 124.608 121.454 124.357C113.35 121.749 92.8168 113.767 90.4476 112.509C89.6006 112.063 88.8337 111.411 88.0783 110.782C86.5446 109.49 85.7548 108.952 85.1825 109.524C84.1982 110.507 82.7675 111.422 81.703 111.045C81.4055 110.942 80.8904 110.622 80.8103 109.741C80.65 107.957 83.0765 105.052 84.8849 104.892C86.5102 104.755 89.5205 106.287 89.8638 106.459C90.1271 106.596 90.2415 106.928 90.0927 107.202C89.9554 107.477 89.6235 107.58 89.3488 107.431C88.5132 106.997 86.0753 105.876 84.9765 105.979C84.4271 106.024 83.6145 106.596 82.9392 107.397C82.2639 108.197 81.8518 109.101 81.8976 109.638C81.932 109.958 82.035 110.004 82.0693 110.016C82.3898 110.13 83.3283 109.821 84.3928 108.758C85.7434 107.408 87.3572 108.758 88.7765 109.947C89.4861 110.542 90.2072 111.148 90.9512 111.548C93.2975 112.783 113.705 120.72 121.774 123.316C122.576 123.579 123.343 123.831 124.064 124.071C130.611 126.232 133.895 127.307 138.634 124.471C142.846 121.944 152.369 98.5795 156.81 86.583C156.913 86.2971 157.233 86.1485 157.519 86.2628C157.806 86.3657 157.954 86.686 157.84 86.9719C157.313 88.4014 144.792 122.058 139.195 125.42C136.986 126.735 135.029 127.273 133.003 127.273Z" fill="#111827"/>
<path d="M150.961 100.284C146.715 100.284 136.86 97.2186 134.88 93.4219C134.743 93.1474 134.846 92.8157 135.109 92.6785C135.384 92.5413 135.716 92.6442 135.853 92.9072C137.971 96.9671 150.114 99.8489 152.003 99.0599C152.278 98.9455 152.61 99.0713 152.724 99.3572C152.839 99.6431 152.713 99.9633 152.426 100.078C152.083 100.226 151.58 100.284 150.961 100.284Z" fill="#111827"/>
<path d="M183.445 115.585C183.181 115.585 182.941 115.39 182.907 115.116C182.884 114.956 180.56 99.4713 175.868 81.5852C171.381 64.5339 163.678 58.3698 158.035 59.8337C148.776 62.2238 146.074 68.7424 141.187 80.5902L140.821 81.4823C135.659 93.9705 128.253 112.051 128.185 112.234C128.07 112.52 127.75 112.646 127.464 112.531C127.177 112.417 127.052 112.097 127.166 111.811C127.235 111.628 134.64 93.5474 139.802 81.0591L140.168 80.1671C145.193 67.9991 147.963 61.2975 157.76 58.7701C163.483 57.2948 171.942 62.3153 176.932 81.3107C181.648 99.254 183.971 114.807 183.994 114.956C184.04 115.253 183.834 115.539 183.536 115.585C183.502 115.585 183.479 115.585 183.445 115.585Z" fill="#111827"/>
<path d="M146.898 121.085C146.612 121.085 146.372 120.868 146.349 120.582L145.708 113.355C145.685 113.057 145.902 112.783 146.211 112.76C146.509 112.737 146.784 112.954 146.806 113.263L147.447 120.491C147.47 120.788 147.253 121.063 146.944 121.085C146.932 121.085 146.921 121.085 146.898 121.085Z" fill="#111827"/>
<path d="M120.79 87.7264L130.13 86.2168C126.57 83.7352 122.576 83.5979 120.79 87.7264Z" fill="white"/>
<path d="M120.79 88.2755C120.721 88.2755 120.641 88.264 120.572 88.2297C120.298 88.1039 120.172 87.7837 120.286 87.5092C121.053 85.7366 122.278 84.5702 123.835 84.1242C125.769 83.5638 128.127 84.147 130.45 85.7595C130.702 85.9311 130.759 86.2741 130.587 86.5257C130.416 86.7773 130.072 86.8345 129.821 86.663C127.772 85.2449 125.746 84.7188 124.132 85.1763C122.885 85.5308 121.935 86.4571 121.294 87.9324C121.213 88.1497 121.007 88.2755 120.79 88.2755Z" fill="#111827"/>
<path d="M134.422 95.2286C132.694 92.3124 130.347 88.8359 128.402 88.7787C116.67 88.4013 116.258 98.2135 116.303 98.2821H133.243C133.667 97.2872 134.067 96.2693 134.422 95.2286Z" fill="#111827"/>
<path d="M137.009 88.4127C130.691 86.2169 124.098 84.0212 120.791 87.7265C117.151 91.8206 120.138 91.306 122.439 89.6478C124.911 87.8637 133.015 89.6478 129.718 92.118C126.594 94.4624 124.27 96.1892 126.01 97.0584C127.383 97.7445 134.526 94.1765 134.526 94.1765" fill="white"/>
<path d="M126.467 97.6761C126.181 97.6761 125.952 97.6418 125.78 97.5504C125.093 97.2073 124.922 96.7384 124.887 96.4182C124.773 95.1488 126.604 93.7879 129.374 91.7065C130.152 91.1232 129.958 90.8488 129.866 90.7344C128.985 89.5336 124.384 88.9389 122.77 90.094C121.671 90.8831 119.599 91.981 118.787 91.0889C118.192 90.4256 118.684 89.2706 120.389 87.3608C123.995 83.3009 131.011 85.7483 137.191 87.8983C137.478 88.0012 137.626 88.31 137.535 88.5959C137.432 88.8818 137.123 89.0304 136.837 88.9389C130.976 86.9033 124.338 84.5932 121.213 88.1041C119.977 89.4879 119.714 90.1169 119.668 90.3456C120.034 90.3456 121.019 90.0139 122.129 89.2134C124.12 87.7725 129.443 88.31 130.748 90.094C131.022 90.4714 131.526 91.4778 130.061 92.5756C128.195 93.9708 125.917 95.6748 125.975 96.3381C125.986 96.4067 126.089 96.4982 126.261 96.5897C126.936 96.9328 130.954 95.3775 134.284 93.7078C134.559 93.5706 134.891 93.6849 135.017 93.948C135.154 94.2224 135.04 94.5541 134.776 94.6799C133.254 95.4347 128.573 97.6761 126.467 97.6761Z" fill="#111827"/>
<path d="M122.198 91.1573C122.14 93.0442 122.083 94.9426 122.037 96.8296C122.015 97.5386 123.113 97.5386 123.136 96.8296C123.193 94.9426 123.251 93.0442 123.296 91.1573C123.319 90.4482 122.221 90.4482 122.198 91.1573Z" fill="white"/>
<path d="M119.394 0H81.1885V22.7007H119.394V0Z" fill="#D7E2FA"/>
<path d="M109.231 8.30246H90.2769C89.9679 8.30246 89.7275 8.0623 89.7275 7.75352C89.7275 7.44475 89.9679 7.20459 90.2769 7.20459H109.231C109.54 7.20459 109.78 7.44475 109.78 7.75352C109.78 8.05086 109.54 8.30246 109.231 8.30246Z" fill="#111827"/>
<path d="M109.231 13.8947H90.2769C89.9679 13.8947 89.7275 13.6546 89.7275 13.3458C89.7275 13.037 89.9679 12.7969 90.2769 12.7969H109.231C109.54 12.7969 109.78 13.037 109.78 13.3458C109.78 13.6546 109.54 13.8947 109.231 13.8947Z" fill="#111827"/>
<path d="M119.394 22.7008V30.1228L110.249 20.9854L119.394 22.7008Z" fill="#D7E2FA"/>
</g>
<defs>
<clipPath id="clip0_23016_3567">
<rect width="200" height="127.273" fill="white"/>
</clipPath>
</defs>
</svg>
