<svg width="200" height="128" viewBox="0 0 200 128" fill="none" xmlns="http://www.w3.org/2000/svg">
<g clip-path="url(#clip0_23016_3493)">
<path d="M169.74 124.286H112.96C112.631 124.286 112.375 124.03 112.375 123.701C112.375 123.372 112.631 123.116 112.96 123.116H169.74C172.166 123.116 174.128 121.141 174.128 118.728C174.128 116.302 172.153 114.34 169.74 114.34H166.522C166.193 114.34 165.937 114.084 165.937 113.755C165.937 113.425 166.193 113.169 166.522 113.169H169.74C172.812 113.169 175.298 115.668 175.298 118.728C175.31 121.788 172.812 124.286 169.74 124.286Z" fill="#111827"/>
<path d="M115.41 98.8222C113.911 98.8222 112.57 98.1395 111.668 97.079C110.961 96.2379 110.534 95.1409 110.534 93.9463V68.5795C110.534 67.2386 111.083 66.0075 111.96 65.1298C112.838 64.2522 114.057 63.7036 115.41 63.7036C118.104 63.7036 120.286 65.8856 120.286 68.5795V93.9463C120.286 96.6402 118.104 98.8222 115.41 98.8222Z" fill="#D7E2FA"/>
<path d="M167.496 108.586H114.032V60.3392C114.032 58.5595 114.861 56.987 116.141 55.9509C117.104 55.183 118.311 54.7319 119.639 54.7319H167.496V108.586Z" fill="#D7E2FA"/>
<path d="M167.496 105.063H119.896V119.496H167.496V105.063Z" fill="#D7E2FA"/>
<path d="M167.496 109.171H114.032C113.703 109.171 113.447 108.915 113.447 108.586C113.447 108.257 113.715 108.001 114.032 108.001H167.496C167.826 108.001 168.082 108.257 168.082 108.586C168.082 108.915 167.826 109.171 167.496 109.171Z" fill="white"/>
<path d="M130.818 114.632H123.017C122.688 114.632 122.432 114.376 122.432 114.047C122.432 113.718 122.688 113.462 123.017 113.462H130.818C131.147 113.462 131.403 113.718 131.403 114.047C131.403 114.364 131.147 114.632 130.818 114.632Z" fill="#111827"/>
<path d="M160.378 84.1946H144.58C144.251 84.1946 143.995 83.9386 143.995 83.6095C143.995 83.2804 144.251 83.0244 144.58 83.0244H160.378C160.707 83.0244 160.963 83.2804 160.963 83.6095C160.963 83.9386 160.707 84.1946 160.378 84.1946Z" fill="#111827"/>
<path d="M160.378 88.2903H144.58C144.251 88.2903 143.995 88.0343 143.995 87.7052C143.995 87.3761 144.251 87.1201 144.58 87.1201H160.378C160.707 87.1201 160.963 87.3761 160.963 87.7052C160.963 88.0343 160.707 88.2903 160.378 88.2903Z" fill="#111827"/>
<path d="M160.378 92.386H144.58C144.251 92.386 143.995 92.1301 143.995 91.8009C143.995 91.4718 144.251 91.2158 144.58 91.2158H160.378C160.707 91.2158 160.963 91.4718 160.963 91.8009C160.963 92.1301 160.707 92.386 160.378 92.386Z" fill="#111827"/>
<path d="M111.643 113.023C111.656 113.035 111.668 113.035 111.68 113.047C112.228 113.34 112.509 113.962 112.363 114.595C112.204 115.29 111.375 115.741 110.705 115.534C110.107 115.351 109.656 114.888 109.254 114.425C108.986 114.108 108.706 113.779 108.462 113.437C108.486 113.645 108.523 113.852 108.547 114.047C108.547 114.059 108.547 114.071 108.547 114.083C108.803 114.937 109.01 115.827 108.888 116.716C108.767 117.692 108.181 118.411 107.365 118.716C107.121 118.996 106.804 119.227 106.402 119.423C105.573 119.837 104.854 119.959 104.208 119.861C103.939 119.983 103.647 120.056 103.342 120.056C102.574 120.056 101.879 119.569 101.477 118.947C101.172 118.484 101.111 117.935 100.916 117.448C100.734 117.021 100.465 116.619 100.258 116.192C99.222 114.693 98.1737 113.255 96.6744 113.047C96.6134 113.035 96.5647 113.023 96.5037 113.011H93.0297C93.1881 115.132 93.0297 117.204 92.3227 119.264C92.1398 119.813 91.2256 120.081 90.9452 119.447C90.031 117.362 90.2382 115.193 90.543 113.023H81.7664C81.8395 113.389 81.6567 113.815 81.3154 113.937C80.9009 114.364 80.133 114.547 79.6576 114.181C79.1212 113.767 78.5361 113.437 77.951 113.084C77.9144 113.059 77.89 113.047 77.8535 113.023H74.9401C75.635 113.888 76.342 114.754 77.0246 115.632C77.7316 116.521 78.3898 117.362 78.7921 118.435C79.0481 119.118 78.4995 119.91 77.8535 120.093C77.1099 120.3 76.4517 119.837 76.1957 119.154C76.3054 119.447 76.0616 118.874 76.025 118.813C75.9275 118.642 75.83 118.472 75.7203 118.313C75.4521 117.923 75.1352 117.545 74.8426 117.18C74.672 116.972 74.5013 116.753 74.3307 116.546C74.7207 117.533 74.9889 118.533 75.0864 119.483C75.1839 120.471 75.0864 121.495 74.1234 122.007C73.5993 122.287 73.1361 122.056 72.6119 122.153C71.6611 122.324 71.6245 122.446 70.7713 123.409C70.3812 123.847 69.6742 123.579 69.5157 123.079C69.4548 122.872 69.3329 122.665 69.211 122.458C69.0159 122.823 68.8087 123.177 68.5527 123.555C68.2968 123.933 67.7116 124.091 67.3703 123.701C66.0173 122.214 65.0299 119.349 62.982 118.74C61.1658 118.204 59.7761 119.947 58.4353 120.885C57.9233 121.239 57.3748 121.531 56.875 121.665V127.273H115.41V113.035H111.643V113.023Z" fill="#D7E2FA"/>
<path d="M85.4594 122.287H81.3637C80.6079 122.287 80.6079 123.457 81.3637 123.457H85.4594C86.2152 123.457 86.2152 122.287 85.4594 122.287Z" fill="#111827"/>
<path d="M88.0926 117.606H86.3373C85.5816 117.606 85.5816 118.777 86.3373 118.777H88.0926C88.8484 118.777 88.8484 117.606 88.0926 117.606Z" fill="#111827"/>
<path d="M110.632 121.117H106.829C106.073 121.117 106.073 122.287 106.829 122.287H110.632C111.387 122.287 111.387 121.117 110.632 121.117Z" fill="#111827"/>
<path d="M76.3909 123.75H74.9281C74.1724 123.75 74.1724 124.92 74.9281 124.92H76.3909C77.1467 124.92 77.1467 123.75 76.3909 123.75Z" fill="#111827"/>
<path d="M101.258 121.702H98.0395C97.2837 121.702 97.2837 122.872 98.0395 122.872H101.258C102.013 122.872 102.013 121.702 101.258 121.702Z" fill="#111827"/>
<path d="M35.6286 47.857C33.1175 53.6227 40.3582 57.2674 44.9659 54.7807C48.0255 53.1351 49.3664 49.8683 50.0002 46.6258C50.4147 44.4804 50.561 42.1644 51.6093 40.2019C53.0111 37.5811 55.6684 36.6668 58.338 35.9842V35.9964C58.1186 36.7156 59.2522 37.0203 59.4716 36.3012C61.1172 30.8524 54.6689 28.4876 50.5488 30.5964C47.2454 32.2907 45.4778 35.7404 43.5884 38.7513C42.0891 41.1283 40.4069 42.7495 38.3469 44.5902C37.2864 45.5531 36.2015 46.5405 35.6286 47.857Z" fill="#111827"/>
<path d="M79.1212 41.1162C84.8869 38.7514 85.7646 31.462 80.0354 30.8159C74.3062 30.1699 61.4339 30.6331 57.4966 36.5329C53.5594 42.4327 48.6591 49.0639 54.8758 54.0617C61.1048 59.0717 79.1212 41.1162 79.1212 41.1162Z" fill="#111827"/>
<path d="M66.334 69.6521L67.6139 64.1789C70.9173 65.0322 73.4162 64.9956 75.6469 62.5089C77.902 59.9979 78.4262 53.1594 79.2794 46.6501C79.5598 44.4926 79.511 42.6519 79.121 41.1038C78.0605 36.8618 74.4279 34.8505 68.138 34.7164C60.8242 34.558 59.5199 38.8609 59.5199 38.8609C59.2274 38.1661 58.4838 37.3006 57.4842 36.5327C55.0585 34.6677 51.1578 33.4243 48.6955 36.8618C45.2214 41.7133 49.3415 46.4673 54.6562 48.5517C54.6562 48.5517 54.2174 54.1346 56.4237 56.731C56.4237 56.731 55.7899 63.0209 55.0219 69.7496C54.9 70.8955 63.5059 79.5136 66.334 69.6521Z" fill="white"/>
<path d="M61.8119 74.918C61.4462 74.918 61.0805 74.8814 60.7514 74.8083C57.7893 74.2232 54.3274 70.8954 54.4615 69.6764C55.1319 63.7644 55.717 58.1206 55.8389 56.9016C54.0105 54.5124 54.0227 50.2948 54.0714 48.9295C50.4876 47.4302 47.9034 44.9679 47.1111 42.2861C46.5382 40.348 46.9283 38.3489 48.2447 36.5082C49.2077 35.1674 50.4389 34.375 51.9138 34.1556C54.559 33.7655 56.9604 35.3502 57.8624 36.0572C58.5207 36.5692 59.0814 37.1177 59.4837 37.654C60.3857 36.2766 62.6895 34.0215 68.1505 34.1312C74.7939 34.2775 78.5727 36.5082 79.6942 40.9696C80.1086 42.5787 80.1574 44.4681 79.8648 46.7354C79.7429 47.6618 79.6332 48.6004 79.5113 49.5268C78.8043 55.2316 78.1461 60.6195 76.086 62.9111C73.77 65.4831 71.1858 65.6172 68.053 64.898L66.9072 69.7983C66.9072 69.8105 66.9072 69.8227 66.895 69.8227C65.737 73.8697 63.6525 74.918 61.8119 74.918ZM55.6195 69.7617C55.8389 70.4322 58.8376 73.6746 61.69 73.7478C63.5794 73.7721 64.9446 72.3703 65.7735 69.5179L67.0535 64.057C67.09 63.8985 67.1875 63.7766 67.3216 63.6913C67.4557 63.6059 67.6142 63.5816 67.7727 63.6303C70.8323 64.4226 73.1483 64.447 75.2206 62.1432C77.0368 60.1319 77.7073 54.6709 78.3533 49.4049C78.463 48.4785 78.5849 47.5399 78.7068 46.6013C78.975 44.5169 78.9262 42.725 78.5605 41.2744C77.5732 37.3371 74.2576 35.4477 68.1261 35.3258C61.3852 35.1795 60.1297 38.8974 60.0809 39.0559C60.0078 39.2875 59.8006 39.4581 59.5568 39.4703C59.313 39.4825 59.0814 39.3484 58.9839 39.1168C58.7279 38.5073 58.0087 37.7028 57.131 37.0202C55.4854 35.7525 53.5838 35.1308 52.0723 35.3502C50.9265 35.5209 49.9513 36.1547 49.1834 37.2274C48.0741 38.7877 47.745 40.3845 48.2204 41.9814C48.9274 44.3706 51.4872 46.6866 54.8881 48.0153C55.1319 48.1128 55.2782 48.3444 55.2538 48.6004C55.2538 48.6492 54.8637 53.9761 56.8751 56.3652C56.9726 56.4871 57.0213 56.6456 57.0091 56.8041C57.0091 56.8528 56.3753 63.1305 55.6195 69.7617Z" fill="#111827"/>
<path d="M72.9905 53.7201C72.8198 53.7201 72.6613 53.647 72.5395 53.5129C72.3322 53.2691 72.3566 52.8912 72.6126 52.684C74.6726 50.9409 74.758 48.2957 72.9295 42.6153C72.832 42.3105 73.0027 41.9814 73.3074 41.8839C73.6121 41.7864 73.9413 41.957 74.0388 42.2618C75.7575 47.6131 76.1964 51.1847 73.3683 53.586C73.2586 53.6714 73.1246 53.7201 72.9905 53.7201Z" fill="#111827"/>
<path d="M66.5014 44.894C66.6677 44.5258 66.504 44.0926 66.1358 43.9264C65.7677 43.7601 65.3345 43.9238 65.1682 44.2919C65.002 44.6601 65.1656 45.0933 65.5338 45.2595C65.9019 45.4258 66.3351 45.2621 66.5014 44.894Z" fill="#111827"/>
<path d="M77.7905 46.1254C77.9567 45.7573 77.7931 45.3241 77.4249 45.1578C77.0568 44.9916 76.6235 45.1552 76.4573 45.5234C76.291 45.8915 76.4547 46.3247 76.8228 46.491C77.191 46.6572 77.6242 46.4936 77.7905 46.1254Z" fill="#111827"/>
<path d="M65.3962 55.4026C63.909 55.1589 63.0435 53.6839 63.6043 52.2699C63.8846 51.5751 62.8119 51.0875 62.5316 51.7823C61.6905 53.9033 62.9338 56.1828 65.2011 56.5607C65.9569 56.6826 66.1397 55.5245 65.3962 55.4026Z" fill="#111827"/>
<path d="M67.6628 41.1282C67.6262 40.7991 67.3337 40.5918 67.0167 40.604C66.6876 40.6162 66.3585 40.6284 66.0415 40.6284C65.7246 40.6406 65.493 40.9697 65.5174 41.2745C65.554 41.6036 65.8465 41.8108 66.1634 41.7986C66.4926 41.7864 66.8217 41.7742 67.1386 41.7742C67.4556 41.7621 67.6872 41.4207 67.6628 41.1282Z" fill="#111827"/>
<path d="M77.8657 41.3479L77.1953 41.0432C76.5126 40.7384 76.0251 41.7989 76.7077 42.1159L77.3781 42.4206C78.0729 42.7254 78.5483 41.6527 77.8657 41.3479Z" fill="#111827"/>
<path d="M56.3144 44.4193C55.9975 44.4193 55.7415 44.1755 55.7293 43.8586C55.6927 42.8103 54.3397 39.9457 52.4503 39.5069C52.1333 39.4337 51.9383 39.1168 52.0114 38.7999C52.0846 38.483 52.4015 38.2879 52.7185 38.3611C55.1686 38.9218 56.8386 42.2496 56.8995 43.8098C56.9117 44.1268 56.6557 44.4071 56.3388 44.4193C56.3266 44.4193 56.3266 44.4193 56.3144 44.4193Z" fill="#111827"/>
<path d="M59.0326 38.6904C59.8128 40.0679 61.629 39.3243 62.653 38.7148C64.3473 37.7031 65.6272 36.1672 66.4196 34.3753C66.7121 33.6927 65.7126 33.0954 65.4078 33.778C65.3469 33.9121 65.2859 34.0462 65.2128 34.1803C65.164 34.1681 65.1275 34.1437 65.0787 34.1437C63.3843 34.0827 61.7265 34.5338 60.3613 35.5699C59.4714 36.2525 58.35 37.508 59.0326 38.6904Z" fill="#111827"/>
<path d="M33.2266 117.265C33.0194 117.265 32.8122 117.155 32.7147 116.96C32.5684 116.68 32.6659 116.314 32.9585 116.168C57.7645 102.906 67.5163 104.295 73.2333 106.989L73.7818 107.245C78.938 109.671 81.766 111 82.3512 112.718C82.5462 113.279 82.4852 113.876 82.1805 114.461C81.4979 115.778 79.2672 114.669 76.6829 113.389C75.8662 112.986 74.7813 112.45 74.3547 112.353C74.2084 112.45 74.0134 112.474 73.8427 112.401C73.538 112.292 73.3917 111.95 73.5014 111.646C73.5746 111.451 73.7208 111.304 73.9159 111.219C74.44 111.012 75.1958 111.341 77.1949 112.34C78.3042 112.889 80.5836 114.01 81.1566 113.876C81.3028 113.584 81.3272 113.34 81.2419 113.096C80.8153 111.853 77.8166 110.439 73.282 108.306L72.7335 108.05C67.2603 105.478 57.862 104.185 33.507 117.204C33.4095 117.241 33.312 117.265 33.2266 117.265Z" fill="#111827"/>
<path d="M77.8894 121.178C76.9873 121.178 76.2559 120.264 75.4149 119.203C74.9882 118.667 74.5494 118.106 74.0862 117.704C73.8424 117.484 73.8302 117.119 74.0496 116.875C74.269 116.631 74.6347 116.619 74.8785 116.838C75.4027 117.314 75.8781 117.911 76.3291 118.484C76.8411 119.13 77.5481 120.02 77.8894 120.02C77.9503 120.02 78.0356 119.959 78.121 119.837C78.1575 119.788 78.2063 119.605 78.1575 119.24C77.8528 117.277 75.0126 112.925 71.0875 110.305C70.8193 110.122 70.7462 109.768 70.929 109.488C71.1119 109.22 71.4654 109.147 71.7458 109.329C75.7318 111.987 78.9377 116.595 79.3278 119.057C79.4253 119.703 79.34 120.215 79.0474 120.568C78.7061 120.971 78.3282 121.178 77.8894 121.178Z" fill="#111827"/>
<path d="M73.4404 123.214C73.3551 123.214 73.282 123.214 73.1966 123.202C72.2824 123.08 71.5632 122.275 71.5632 121.361C71.5632 121.032 71.8314 120.776 72.1483 120.776C72.4774 120.776 72.7334 121.032 72.7334 121.361C72.7334 121.69 73.0138 121.995 73.3551 122.031C73.8427 122.104 74.2693 121.617 74.5131 120.764C75.1714 118.374 72.3799 114.461 67.8697 111.463C67.6016 111.28 67.5284 110.926 67.7113 110.646C67.8941 110.378 68.2476 110.305 68.528 110.488C73.5989 113.876 76.4635 118.131 75.6468 121.081C75.1957 122.653 74.2571 123.214 73.4404 123.214Z" fill="#111827"/>
<path d="M70.5396 124.493C70.4542 124.493 70.3811 124.481 70.3202 124.481C69.3206 124.347 68.4795 123.384 68.4795 122.397C68.4795 122.068 68.7355 121.812 69.0646 121.812C69.3937 121.812 69.6497 122.068 69.6497 122.397C69.6497 122.811 70.0642 123.275 70.4786 123.323C71.015 123.396 71.3075 122.677 71.4294 122.238C72.0511 120.008 70.5152 116.302 65.6637 113.084C65.3955 112.901 65.3224 112.548 65.5052 112.267C65.6881 111.999 66.0416 111.926 66.3219 112.109C71.6488 115.656 73.2945 119.91 72.5631 122.555C72.0877 124.25 71.0637 124.493 70.5396 124.493Z" fill="#111827"/>
<path d="M48.586 125.603C48.3544 125.603 48.135 125.457 48.0375 125.225C47.9156 124.92 48.0741 124.579 48.3666 124.469C48.4641 124.433 58.3987 120.544 60.5685 119.24C61.824 118.484 62.9943 118.289 64.0426 118.655C65.2737 119.094 66.2733 120.325 66.9803 122.312C67.2241 123.007 67.7726 123.555 68.0042 123.555C68.0408 123.555 68.1993 123.445 68.3455 122.933C69.0769 120.386 67.1875 117.521 62.8724 114.657C62.6042 114.474 62.5311 114.108 62.7139 113.84C62.8967 113.572 63.2624 113.499 63.5306 113.681C69.5523 117.704 70.0887 121.105 69.4792 123.25C69.1379 124.433 68.5162 124.701 68.053 124.713C68.0408 124.713 68.0286 124.713 68.0164 124.713C67.1022 124.713 66.2367 123.689 65.8832 122.702C65.2859 121.056 64.5424 120.069 63.6525 119.74C62.9577 119.496 62.1288 119.654 61.178 120.215C58.9229 121.568 49.2077 125.359 48.7933 125.53C48.7323 125.591 48.6592 125.603 48.586 125.603Z" fill="#111827"/>
<path d="M56.5461 121.824C56.9118 121.641 57.2897 121.458 57.6553 121.263C57.6432 121.251 57.6188 121.227 57.6066 121.214C56.2779 120.105 54.9614 116.509 55.1199 112.925C55.2052 111.073 55.7294 108.586 57.7041 107.221C57.9723 107.038 58.0332 106.672 57.8504 106.404C57.6675 106.136 57.3018 106.075 57.0337 106.258C54.6567 107.891 54.035 110.756 53.9375 112.877C53.779 116.278 54.9248 120.154 56.5461 121.824Z" fill="#111827"/>
<path d="M111.326 116.473C109.998 116.473 108.913 114.778 107.864 113.133C107.328 112.292 106.524 111.036 106.146 110.951C105.829 110.878 105.634 110.573 105.707 110.256C105.78 109.939 106.085 109.744 106.402 109.817C107.255 110.012 107.962 111.109 108.852 112.511C109.608 113.693 110.644 115.315 111.326 115.315C111.533 115.315 111.57 115.254 111.582 115.229C111.741 114.949 111.619 113.949 110.656 112.316C108.766 109.135 104.012 104.442 98.6002 104.551C90.3478 104.71 85.606 107.684 83.68 113.925C83.5825 114.23 83.2534 114.413 82.9486 114.315C82.6439 114.218 82.4611 113.889 82.5586 113.584C84.643 106.794 89.7383 103.552 98.5758 103.381C104.11 103.283 109.23 107.623 111.655 111.719C112.277 112.767 113.228 114.693 112.594 115.802C112.35 116.241 111.899 116.473 111.326 116.473Z" fill="#111827"/>
<path d="M103.074 121.056C103.013 121.056 102.952 121.056 102.891 121.044C102.135 120.971 101.05 120.398 100.209 118.082C99.0632 114.925 95.1259 112.633 94.2604 112.621C94.0288 113.035 93.9191 114.657 93.846 115.741C93.6875 118.106 93.5534 119.581 92.883 120.154C92.2857 120.666 91.5909 120.776 91.0302 120.459C89.7502 119.74 89.4943 117.107 90.2378 112.426C90.2866 112.109 90.5913 111.889 90.9083 111.938C91.2252 111.987 91.4446 112.292 91.3959 112.609C90.4329 118.594 91.4812 119.374 91.6031 119.435C91.7859 119.532 92.0663 119.301 92.1272 119.252C92.4685 118.947 92.6026 116.887 92.688 115.656C92.8586 113.096 92.9805 111.743 93.8825 111.487C95.4428 111.048 100.099 114.279 101.33 117.667C101.806 118.996 102.44 119.813 103.025 119.874C103.293 119.91 103.512 119.752 103.622 119.593C103.744 118.789 101.989 114.547 99.8311 111.317C99.6483 111.048 99.7214 110.683 99.9896 110.5C100.258 110.317 100.623 110.39 100.806 110.658C102.513 113.218 105.414 118.886 104.646 120.154C104.378 120.593 103.829 121.056 103.074 121.056Z" fill="#111827"/>
<path d="M104.135 120.459C103.842 120.459 103.586 120.239 103.55 119.947C103.513 119.63 103.732 119.337 104.062 119.288C105.012 119.167 105.658 118.996 105.89 118.508C106.438 117.399 105.366 114.559 102.708 110.073C102.538 109.793 102.635 109.439 102.916 109.269C103.196 109.098 103.55 109.195 103.72 109.476C106.755 114.595 107.718 117.448 106.95 119.02C106.426 120.093 105.256 120.325 104.208 120.446C104.183 120.459 104.159 120.459 104.135 120.459Z" fill="#111827"/>
<path d="M106.426 119.691C106.133 119.691 105.877 119.471 105.841 119.179C105.804 118.862 106.023 118.569 106.353 118.52C107.303 118.398 107.949 118.228 108.181 117.74C108.73 116.631 107.657 113.791 104.999 109.305C104.829 109.025 104.926 108.671 105.207 108.5C105.487 108.33 105.841 108.427 106.011 108.708C109.046 113.827 110.009 116.68 109.241 118.252C108.717 119.325 107.547 119.557 106.499 119.678C106.474 119.691 106.45 119.691 106.426 119.691Z" fill="#111827"/>
<path d="M25.7668 120.971C25.4621 120.971 25.2061 120.739 25.1817 120.434C25.1695 120.239 23.4874 100.346 24.1578 87.5707C24.877 73.9182 32.4834 70.9927 54.9856 69.1521C55.3147 69.1277 55.595 69.3715 55.6194 69.6884C55.6438 70.0054 55.4 70.2979 55.0831 70.3223C31.8007 72.2239 25.9619 75.6248 25.328 87.6317C24.6576 100.321 26.3276 120.129 26.3519 120.324C26.3763 120.641 26.1447 120.934 25.8156 120.958C25.8034 120.971 25.779 120.971 25.7668 120.971Z" fill="#111827"/>
<path d="M91.8964 104.966C91.6038 104.966 91.3478 104.746 91.3113 104.454C91.3113 104.405 90.6896 99.2243 88.6295 85.7424C86.606 72.4557 82.8638 69.8471 66.3467 70.2371C66.0298 70.2371 65.7494 69.9933 65.7494 69.6642C65.7373 69.3473 65.9932 69.0791 66.3224 69.0669C83.3026 68.6769 87.6909 71.7487 89.7875 85.5596C91.8476 99.0658 92.4693 104.259 92.4693 104.307C92.5058 104.624 92.2742 104.917 91.9573 104.953C91.9451 104.966 91.9207 104.966 91.8964 104.966Z" fill="#111827"/>
<path d="M39.9561 113.901C39.6392 113.901 39.3832 113.657 39.371 113.34L38.3471 88.1682C38.3349 87.8512 38.5909 87.5709 38.9078 87.5587C39.2248 87.5343 39.5051 87.8025 39.5173 88.1194L40.5412 113.291C40.5534 113.608 40.2975 113.888 39.9805 113.901C39.9683 113.901 39.9561 113.901 39.9561 113.901Z" fill="#111827"/>
<path d="M82.3389 108.488C82.0464 108.488 81.7904 108.269 81.7538 107.964L79.0233 83.7675C78.9868 83.4506 79.2184 83.158 79.5353 83.1215C79.8522 83.0849 80.1448 83.3165 80.1814 83.6335L82.9118 107.83C82.9484 108.147 82.7168 108.439 82.3999 108.476C82.3755 108.476 82.3633 108.488 82.3389 108.488Z" fill="#111827"/>
<path d="M38.9312 92.3859C38.858 92.3859 38.7727 92.3737 38.6996 92.3371L24.9496 86.4861C24.657 86.3642 24.5107 86.0107 24.6448 85.7181C24.7667 85.4256 25.108 85.2793 25.4128 85.4134L39.1628 91.2644C39.4553 91.3863 39.6016 91.7398 39.4675 92.0324C39.37 92.2518 39.1506 92.3859 38.9312 92.3859Z" fill="#111827"/>
<path d="M88.5802 81.2321C88.3974 80.9639 88.0317 80.903 87.7635 81.0858L80.1084 86.364C80.1572 86.815 80.1937 87.2538 80.2181 87.7048L88.4218 82.0488C88.69 81.8538 88.7631 81.4881 88.5802 81.2321Z" fill="#111827"/>
<path d="M120.579 45.2727H89.7511C89.422 45.2727 89.166 45.0167 89.166 44.6876V30.2428C89.166 29.9137 89.422 29.6577 89.7511 29.6577H120.579C120.908 29.6577 121.164 29.9137 121.164 30.2428V44.6754C121.164 45.0046 120.908 45.2727 120.579 45.2727ZM90.3362 44.1025H119.994V30.8279H90.3362V44.1025Z" fill="#111827"/>
<path d="M113.558 38.2513H96.5773C96.2482 38.2513 95.9922 37.9953 95.9922 37.6662C95.9922 37.337 96.2482 37.0811 96.5773 37.0811H113.545C113.874 37.0811 114.13 37.337 114.13 37.6662C114.13 37.9953 113.874 38.2513 113.558 38.2513Z" fill="#111827"/>
<path d="M159.987 32.7781C159.841 32.7781 159.682 32.7172 159.573 32.6075L149.992 23.0264H115.507C115.178 23.0264 114.922 22.7704 114.922 22.4412V0.585104C114.922 0.255982 115.178 0 115.507 0H159.987C160.316 0 160.572 0.255982 160.572 0.585104V32.193C160.572 32.4246 160.426 32.644 160.207 32.7294C160.146 32.7659 160.06 32.7781 159.987 32.7781ZM116.092 21.8561H150.235C150.394 21.8561 150.54 21.9171 150.65 22.0268L159.402 30.779V1.17021H116.092V21.8561Z" fill="#111827"/>
<path d="M140.484 8.98369H122.333C122.004 8.98369 121.748 8.72771 121.748 8.39858C121.748 8.06946 122.004 7.81348 122.333 7.81348H140.484C140.813 7.81348 141.069 8.06946 141.069 8.39858C141.069 8.72771 140.801 8.98369 140.484 8.98369Z" fill="#111827"/>
<path d="M146.042 15.1272H122.333C122.004 15.1272 121.748 14.8713 121.748 14.5421C121.748 14.213 122.004 13.957 122.333 13.957H146.042C146.371 13.957 146.627 14.213 146.627 14.5421C146.627 14.8713 146.359 15.1272 146.042 15.1272Z" fill="#111827"/>
<path d="M152.186 8.98369H144.872C144.543 8.98369 144.287 8.72771 144.287 8.39858C144.287 8.06946 144.543 7.81348 144.872 7.81348H152.186C152.515 7.81348 152.771 8.06946 152.771 8.39858C152.771 8.72771 152.503 8.98369 152.186 8.98369Z" fill="#111827"/>
<path d="M28.2167 25.2693C27.6925 24.4891 27.1805 23.709 26.6564 22.9289C26.2419 22.3072 25.2302 22.8923 25.6446 23.514C26.1688 24.2941 26.6808 25.0742 27.2049 25.8544C27.6194 26.4882 28.6311 25.9031 28.2167 25.2693Z" fill="#111827"/>
<path d="M170.117 43.1029C169.337 44.0171 168.556 44.9191 167.776 45.8334C167.289 46.4063 168.118 47.2352 168.605 46.6623C169.385 45.748 170.166 44.846 170.946 43.9318C171.421 43.3588 170.604 42.53 170.117 43.1029Z" fill="#111827"/>
<path d="M37.4682 67.5068C34.9937 67.5068 32.9824 65.4955 32.9824 63.021C32.9824 60.5465 34.9937 58.5352 37.4682 58.5352C39.9427 58.5352 41.954 60.5465 41.954 63.021C41.954 65.4955 39.9427 67.5068 37.4682 67.5068ZM37.4682 59.7054C35.6398 59.7054 34.1526 61.1925 34.1526 63.021C34.1526 64.8494 35.6398 66.3366 37.4682 66.3366C39.2967 66.3366 40.7838 64.8494 40.7838 63.021C40.7838 61.1925 39.2967 59.7054 37.4682 59.7054Z" fill="#111827"/>
<path d="M111.643 21.0152C108.022 14.4937 104.402 7.98438 100.782 1.46289C100.416 0.804644 99.4041 1.38975 99.7698 2.04799C103.39 8.56949 107.011 15.0788 110.631 21.6003C111.009 22.2707 112.02 21.6734 111.643 21.0152Z" fill="#111827"/>
</g>
<defs>
<clipPath id="clip0_23016_3493">
<rect width="200" height="127.273" fill="white"/>
</clipPath>
</defs>
</svg>
