<svg width="24" height="24" viewBox="0 0 24 24" fill="none" xmlns="http://www.w3.org/2000/svg">
<path d="M3.11783 2C3.11783 1.44772 2.67012 1 2.11783 1C1.56555 1 1.11783 1.44772 1.11783 2H2.11783H3.11783ZM2.11783 8H1.11783C1.11783 8.55228 1.56555 9 2.11783 9V8ZM21 22C21 22.5523 21.4477 23 22 23C22.5523 23 23 22.5523 23 22H22H21ZM22 16H23C23 15.4477 22.5523 15 22 15V16ZM20.7721 16.5L21.6659 16.9485L21.6742 16.9318L21.682 16.9148L20.7721 16.5ZM2.99516 12.9018C2.94092 12.3522 2.45139 11.9506 1.90178 12.0048C1.35216 12.0591 0.950588 12.5486 1.00484 13.0982L2 13L2.99516 12.9018ZM3.22792 7.5L2.33413 7.05151L2.32575 7.06822L2.318 7.08522L3.22792 7.5ZM21.0048 11.0982C21.0591 11.6478 21.5486 12.0494 22.0982 11.9952C22.6478 11.9409 23.0494 11.4514 22.9952 10.9018L22 11L21.0048 11.0982ZM8.08248 9C8.63477 9 9.08248 8.55228 9.08248 8C9.08248 7.44772 8.63477 7 8.08248 7V8V9ZM16.0353 15C15.4831 15 15.0353 15.4477 15.0353 16C15.0353 16.5523 15.4831 17 16.0353 17V16V15ZM2.11783 2H1.11783V8H2.11783H3.11783V2H2.11783ZM22 22H23V16H22H21V22H22ZM20.7721 16.5L19.8783 16.0515C18.4032 18.9912 15.3782 21 11.892 21V22V23C16.1683 23 19.8668 20.5339 21.6659 16.9485L20.7721 16.5ZM11.892 22V21C7.26131 21 3.4444 17.4532 2.99516 12.9018L2 13L1.00484 13.0982C1.55314 18.6534 6.21309 23 11.892 23V22ZM3.22792 7.5L4.12171 7.94849C5.59682 5.00875 8.62178 3 12.108 3V2V1C7.83175 1 4.13324 3.46609 2.33413 7.05151L3.22792 7.5ZM12.108 2V3C16.7387 3 20.5556 6.54678 21.0048 11.0982L22 11L22.9952 10.9018C22.4469 5.34658 17.7869 1 12.108 1V2ZM2.11783 8V9H3V8V7H2.11783V8ZM3 8V9H8.08248V8V7H3V8ZM3.22792 7.5L2.318 7.08522L2.09008 7.58522L3 8L3.90992 8.41478L4.13784 7.91478L3.22792 7.5ZM22 16V15H21V16V17H22V16ZM21 16V15H16.0353V16V17H21V16ZM20.7721 16.5L21.682 16.9148L21.9099 16.4148L21 16L20.0901 15.5852L19.8622 16.0852L20.7721 16.5Z" fill="#FF9557"/>
</svg>
