<svg xmlns="http://www.w3.org/2000/svg" width="16" height="16" viewBox="0 0 16 16" fill="none">
  <path fill-rule="evenodd" clip-rule="evenodd" d="M8.00004 1.33333C6.18937 1.33333 5.96271 1.34088 5.2516 1.37333C4.54182 1.40577 4.05693 1.51866 3.63293 1.68355C3.18849 1.85066 2.78537 2.11288 2.45204 2.45244C2.11303 2.78539 1.85064 3.18821 1.68315 3.63288C1.51915 4.05688 1.40582 4.54222 1.37337 5.252C1.34137 5.96266 1.33337 6.18888 1.33337 8C1.33337 9.81111 1.34093 10.0373 1.37337 10.7484C1.40582 11.4582 1.51871 11.9431 1.6836 12.3671C1.85071 12.8116 2.11293 13.2147 2.45249 13.548C2.78544 13.887 3.18827 14.1494 3.63293 14.3169C4.05693 14.4813 4.54182 14.5942 5.2516 14.6267C5.96271 14.6591 6.18937 14.6667 8.00004 14.6667C9.81071 14.6667 10.0374 14.6591 10.7485 14.6267C11.4583 14.5942 11.9432 14.4813 12.3672 14.3164C12.8116 14.1493 13.2147 13.8871 13.548 13.5476C13.8871 13.2146 14.1494 12.8118 14.3169 12.3671C14.4814 11.9431 14.5943 11.4582 14.6267 10.7484C14.6592 10.0373 14.6667 9.81066 14.6667 8C14.6667 6.18933 14.6592 5.96266 14.6267 5.25155C14.5943 4.54177 14.4814 4.05688 14.3165 3.63288C14.1491 3.18802 13.8867 2.78503 13.5476 2.45199C13.2146 2.11298 12.8118 1.8506 12.3672 1.68311C11.9432 1.51911 11.4578 1.40577 10.748 1.37333C10.0374 1.34133 9.81115 1.33333 8.00004 1.33333ZM8.00004 2.53466C9.78004 2.53466 9.99115 2.54133 10.6943 2.57333C11.344 2.60311 11.6969 2.71111 11.932 2.80311C12.2432 2.92355 12.4654 3.06844 12.6987 3.30133C12.932 3.53466 13.0765 3.75688 13.1969 4.068C13.2885 4.30311 13.3969 4.656 13.4267 5.30577C13.4587 6.00888 13.4654 6.22 13.4654 8C13.4654 9.77999 13.4587 9.99111 13.4267 10.6942C13.3969 11.344 13.2889 11.6969 13.1969 11.932C13.0902 12.2216 12.92 12.4835 12.6987 12.6987C12.4836 12.92 12.2216 13.0902 11.932 13.1969C11.6969 13.2884 11.344 13.3969 10.6943 13.4267C9.99115 13.4587 9.78049 13.4653 8.00004 13.4653C6.2196 13.4653 6.00893 13.4587 5.30582 13.4267C4.65604 13.3969 4.30315 13.2889 4.06804 13.1969C3.77847 13.0902 3.51649 12.9199 3.30137 12.6987C3.08012 12.4835 2.90988 12.2216 2.80315 11.932C2.7116 11.6969 2.60315 11.344 2.57337 10.6942C2.54137 9.99111 2.53471 9.77999 2.53471 8C2.53471 6.22 2.54137 6.00888 2.57337 5.30577C2.60315 4.656 2.71115 4.30311 2.80315 4.068C2.9236 3.75688 3.06849 3.53466 3.30137 3.30133C3.51646 3.08001 3.77845 2.90976 4.06804 2.80311C4.30315 2.71155 4.65604 2.60311 5.30582 2.57333C6.00893 2.54133 6.22004 2.53466 8.00004 2.53466Z" fill="#857155"/>
  <path fill-rule="evenodd" clip-rule="evenodd" d="M8.00005 10.2244C7.70793 10.2244 7.41867 10.1669 7.14879 10.0551C6.87891 9.94333 6.63369 9.77947 6.42713 9.57292C6.22057 9.36636 6.05672 9.12114 5.94493 8.85125C5.83314 8.58137 5.77561 8.29211 5.77561 8C5.77561 7.70788 5.83314 7.41862 5.94493 7.14874C6.05672 6.87885 6.22057 6.63363 6.42713 6.42708C6.63369 6.22052 6.87891 6.05667 7.14879 5.94488C7.41867 5.83309 7.70793 5.77555 8.00005 5.77555C8.59001 5.77555 9.15581 6.00991 9.57297 6.42708C9.99014 6.84424 10.2245 7.41004 10.2245 8C10.2245 8.58995 9.99014 9.15575 9.57297 9.57292C9.15581 9.99008 8.59001 10.2244 8.00005 10.2244ZM8.00005 4.57333C7.09124 4.57333 6.21966 4.93435 5.57703 5.57698C4.93441 6.2196 4.57338 7.09119 4.57338 8C4.57338 8.9088 4.93441 9.78039 5.57703 10.423C6.21966 11.0656 7.09124 11.4267 8.00005 11.4267C8.90886 11.4267 9.78045 11.0656 10.4231 10.423C11.0657 9.78039 11.4267 8.9088 11.4267 8C11.4267 7.09119 11.0657 6.2196 10.4231 5.57698C9.78045 4.93435 8.90886 4.57333 8.00005 4.57333ZM12.4236 4.51111C12.4236 4.72593 12.3383 4.93196 12.1864 5.08386C12.0345 5.23577 11.8284 5.32111 11.6136 5.32111C11.3988 5.32111 11.1928 5.23577 11.0409 5.08386C10.8889 4.93196 10.8036 4.72593 10.8036 4.51111C10.8036 4.29628 10.8889 4.09025 11.0409 3.93835C11.1928 3.78644 11.3988 3.70111 11.6136 3.70111C11.8284 3.70111 12.0345 3.78644 12.1864 3.93835C12.3383 4.09025 12.4236 4.29628 12.4236 4.51111Z" fill="#857155"/>
</svg>