<svg xmlns="http://www.w3.org/2000/svg" width="16" height="16" viewBox="0 0 16 16" fill="none">
  <path d="M7.99992 15.1667C4.04659 15.1667 0.833252 11.9533 0.833252 8C0.833252 4.04666 4.04659 0.833328 7.99992 0.833328C11.9533 0.833328 15.1666 4.04666 15.1666 8C15.1666 11.9533 11.9533 15.1667 7.99992 15.1667ZM7.99992 1.83333C4.59992 1.83333 1.83325 4.6 1.83325 8C1.83325 11.4 4.59992 14.1667 7.99992 14.1667C11.3999 14.1667 14.1666 11.4 14.1666 8C14.1666 4.6 11.3999 1.83333 7.99992 1.83333Z" fill="#857155"/>
  <path d="M5.99991 14.5H5.33325C5.05991 14.5 4.83325 14.2733 4.83325 14C4.83325 13.7267 5.04658 13.5067 5.31991 13.5C4.27325 9.92667 4.27325 6.07333 5.31991 2.5C5.04658 2.49333 4.83325 2.27333 4.83325 2C4.83325 1.72667 5.05991 1.5 5.33325 1.5H5.99991C6.15991 1.5 6.31325 1.58 6.40658 1.70667C6.49991 1.84 6.52658 2.00667 6.47325 2.16C5.21991 5.92667 5.21991 10.0733 6.47325 13.8467C6.52658 14 6.49991 14.1667 6.40658 14.3C6.31325 14.42 6.15991 14.5 5.99991 14.5Z" fill="#857155"/>
  <path d="M10.0001 14.5C9.94677 14.5 9.89344 14.4933 9.8401 14.4733C9.5801 14.3867 9.43344 14.1 9.52677 13.84C10.7801 10.0733 10.7801 5.92666 9.52677 2.15333C9.4401 1.89333 9.5801 1.60666 9.8401 1.51999C10.1068 1.43333 10.3868 1.57333 10.4734 1.83333C11.8001 5.80666 11.8001 10.18 10.4734 14.1467C10.4068 14.3667 10.2068 14.5 10.0001 14.5Z" fill="#857155"/>
  <path d="M8 11.4667C6.14 11.4667 4.28667 11.2067 2.5 10.68C2.49333 10.9467 2.27333 11.1667 2 11.1667C1.72667 11.1667 1.5 10.94 1.5 10.6667V10C1.5 9.84 1.58 9.68666 1.70667 9.59333C1.84 9.5 2.00667 9.47333 2.16 9.52666C5.92667 10.78 10.08 10.78 13.8467 9.52666C14 9.47333 14.1667 9.5 14.3 9.59333C14.4333 9.68666 14.5067 9.84 14.5067 10V10.6667C14.5067 10.94 14.28 11.1667 14.0067 11.1667C13.7333 11.1667 13.5133 10.9533 13.5067 10.68C11.7133 11.2067 9.86 11.4667 8 11.4667Z" fill="#857155"/>
  <path d="M14 6.5C13.9467 6.5 13.8934 6.49333 13.84 6.47333C10.0734 5.22 5.92002 5.22 2.15335 6.47333C1.88669 6.56 1.60669 6.42 1.52002 6.16C1.44002 5.89333 1.58002 5.61333 1.84002 5.52666C5.81335 4.2 10.1867 4.2 14.1534 5.52666C14.4134 5.61333 14.56 5.9 14.4667 6.16C14.4067 6.36666 14.2067 6.5 14 6.5Z" fill="#857155"/>
</svg>