<svg width="128" height="48" viewBox="0 0 128 48" fill="none" xmlns="http://www.w3.org/2000/svg">
<path d="M7.4377 23.0751C7.40709 23.8985 7.55206 24.7189 7.86304 25.4824C8.17403 26.2458 8.64396 26.9349 9.24184 27.5042C9.81969 28.1024 10.5163 28.574 11.2873 28.889C12.0583 29.204 12.8868 29.3555 13.7198 29.3338C14.5629 29.3309 15.3968 29.1589 16.1718 28.8281C16.9467 28.4973 17.6469 28.0144 18.2305 27.4082C18.8389 26.8267 19.3235 26.1292 19.6556 25.3573C19.9877 24.5853 20.1605 23.7546 20.1637 22.9147C20.1853 22.0848 20.0331 21.2595 19.7168 20.4914C19.4006 19.7233 18.9272 19.0292 18.3268 18.4535C17.7521 17.8566 17.0579 17.3867 16.2893 17.0743C15.5206 16.7618 14.6946 16.6138 13.8648 16.6397C13.0237 16.6491 12.1929 16.8257 11.4211 17.1592C10.6494 17.4926 9.9522 17.9762 9.37048 18.5816C8.7619 19.1629 8.27711 19.8604 7.94503 20.6324C7.61296 21.4044 7.44042 22.2352 7.4377 23.0751ZM11.8818 9.40157C14.796 9.06339 17.7351 9.78135 20.1618 11.4242V4.74028C20.1618 4.37032 20.2575 4.0066 20.4396 3.68417C20.6217 3.36174 20.8841 3.09146 21.2014 2.89938L24.2612 1.04877C24.5889 0.850708 24.9634 0.742969 25.3466 0.736584C25.7298 0.730199 26.1078 0.825399 26.4419 1.01243C26.776 1.19946 27.0542 1.47161 27.248 1.80099C27.4417 2.13037 27.5442 2.50515 27.5448 2.88695L27.5717 22.7221C27.6828 24.5844 27.3895 26.4488 26.7118 28.188C26.0341 29.9271 24.9879 31.5003 23.6445 32.8001C22.3946 34.0915 20.8876 35.1083 19.2201 35.7854C17.5526 36.4625 15.7614 36.785 13.9615 36.732C12.1332 36.7216 10.3257 36.3455 8.64608 35.626C6.96647 34.9065 5.44903 33.8582 4.18379 32.5433C2.86673 31.2892 1.81818 29.7824 1.10131 28.1137C0.384439 26.445 0.0140982 24.649 0.0126032 22.8339C-0.0272837 21.0447 0.305651 19.2667 0.990383 17.6122C1.67511 15.9576 2.69677 14.4625 3.99082 13.2212C6.0883 11.0619 8.88339 9.70921 11.8837 9.40157" fill="#265DD6"/>
<path d="M30.7932 32.8599V14.7487C30.7932 13.7435 31.194 12.7795 31.9075 12.0687C32.6209 11.3579 33.5886 10.9586 34.5976 10.9586C35.6065 10.9586 36.5742 11.3579 37.2877 12.0687C38.0011 12.7795 38.4019 13.7435 38.4019 14.7487V32.8595C38.402 33.3572 38.3036 33.8501 38.1124 34.31C37.9213 34.7699 37.6411 35.1878 37.2878 35.5398C36.9345 35.8918 36.5151 36.171 36.0535 36.3615C35.5919 36.552 35.0972 36.65 34.5976 36.65C33.5886 36.6499 32.621 36.2506 31.9076 35.5398C31.1942 34.829 30.7933 33.865 30.7932 32.8599Z" fill="#265DD6"/>
<path d="M48.386 22.2992C48.3704 22.9639 48.4872 23.625 48.7297 24.2445C48.9722 24.8639 49.3355 25.4293 49.7987 25.9079C50.2458 26.3868 50.7896 26.7659 51.3943 27.0203C51.999 27.2746 52.6509 27.3985 53.3072 27.3838C53.9593 27.3939 54.6064 27.2678 55.2066 27.0136C55.8069 26.7595 56.347 26.3828 56.7923 25.9079C57.2615 25.4325 57.6302 24.8682 57.8767 24.2484C58.1231 23.6285 58.2424 22.9657 58.2272 22.2992C58.2392 21.6399 58.1183 20.9849 57.8718 20.3729C57.6254 19.761 57.2583 19.2044 56.7923 18.7362C56.3469 18.2616 55.8067 17.8851 55.2065 17.6309C54.6063 17.3767 53.9593 17.2505 53.3072 17.2604C52.653 17.2451 52.0028 17.3665 51.3986 17.6167C50.7943 17.867 50.2493 18.2405 49.7987 18.7133C49.3349 19.1867 48.9709 19.748 48.7282 20.3638C48.4856 20.9797 48.3692 21.6378 48.386 22.2992ZM41.0961 22.2992C41.0961 18.8802 42.273 16.0357 44.6268 13.7658C45.7723 12.6498 47.1305 11.7737 48.6212 11.1891C50.112 10.6044 51.7052 10.3231 53.3068 10.3616C54.7029 10.3517 56.0903 10.5824 57.4074 11.0436H64.7429C65.6129 11.0437 66.4473 11.3881 67.0625 12.0011C67.6777 12.6141 68.0233 13.4454 68.0233 14.3122C68.0233 15.179 67.6777 16.0103 67.0625 16.6232C66.4473 17.2361 65.6129 17.5804 64.7429 17.5804H64.1503C65.0525 18.9872 65.5125 20.6303 65.4715 22.2992C65.4893 24.3192 64.9706 26.308 63.9679 28.0638C65.0044 29.0546 65.8262 30.2464 66.3827 31.5658C66.9392 32.8851 67.2185 34.304 67.2035 35.735C67.2035 39.0028 65.9278 41.7642 63.3765 44.0191C60.8252 46.274 57.6964 47.4013 53.9902 47.4011C51.2874 47.4011 49.0852 46.9698 47.3837 46.1074C46.548 45.6752 45.7509 45.1726 45.0011 44.6052C44.5841 44.2873 44.2403 43.8841 43.9929 43.4227C43.7455 42.9614 43.6002 42.4526 43.5667 41.9305C43.5333 41.4085 43.6125 40.8854 43.7991 40.3965C43.9857 39.9076 44.2752 39.4641 44.6483 39.096C45.2766 38.4788 46.1046 38.1043 46.9846 38.0393C47.8645 37.9742 48.739 38.223 49.4518 38.7411C49.7712 38.9681 50.0841 39.1692 50.3905 39.3442C51.4907 39.9512 52.7328 40.2565 53.9902 40.2289C55.4596 40.2912 56.9062 39.8507 58.0896 38.9807C58.596 38.6057 59.005 38.1155 59.2823 37.5509C59.5597 36.9863 59.6974 36.3638 59.684 35.7354C59.703 34.7263 59.3269 33.7494 58.6354 33.0117C56.9892 33.8603 55.1603 34.2966 53.3068 34.2829C51.7033 34.3208 50.1085 34.0369 48.6174 33.4482C47.1263 32.8594 45.7693 31.9778 44.6272 30.8559C43.474 29.7525 42.5644 28.4217 41.9564 26.9483C41.3485 25.475 41.0552 23.8916 41.0961 22.2992Z" fill="#265DD6"/>
<path d="M71.1279 32.8401L71.2199 14.7297C71.2224 14.232 71.3232 13.7396 71.5167 13.2807C71.7102 12.8218 71.9926 12.4054 72.3476 12.0552C72.7027 11.705 73.1235 11.428 73.586 11.2398C74.0485 11.0516 74.5437 10.9561 75.0433 10.9586C75.5429 10.9611 76.0372 11.0616 76.4978 11.2544C76.9585 11.4472 77.3765 11.7285 77.728 12.0823C78.0795 12.436 78.3576 12.8553 78.5464 13.3161C78.7353 13.777 78.8311 14.2704 78.8286 14.7682L78.7366 32.8789C78.7314 33.8841 78.3257 34.846 77.6087 35.5531C76.8916 36.2603 75.922 36.6547 74.9131 36.6497C74.4135 36.6472 73.9192 36.5466 73.4586 36.3538C72.998 36.161 72.58 35.8797 72.2285 35.526C71.877 35.1722 71.5989 34.7529 71.41 34.2921C71.2212 33.8312 71.1253 33.3378 71.1279 32.8401Z" fill="#265DD6"/>
<path d="M38.3251 4.9434C38.3251 5.43618 38.2277 5.92413 38.0384 6.37939C37.8491 6.83464 37.5716 7.24828 37.2218 7.59668C36.872 7.94507 36.4567 8.22139 35.9997 8.40987C35.5427 8.59834 35.0528 8.69527 34.5582 8.69511C33.5596 8.69501 32.6019 8.29975 31.8958 7.59626C31.1897 6.89278 30.793 5.93867 30.7928 4.94379C30.7928 4.45113 30.8902 3.96328 31.0794 3.5081C31.2686 3.05293 31.5459 2.63934 31.8956 2.29095C32.2452 1.94257 32.6603 1.66621 33.1172 1.47767C33.574 1.28912 34.0637 1.19208 34.5582 1.19208C35.0528 1.19187 35.5426 1.28875 35.9996 1.47718C36.4567 1.66561 36.8719 1.9419 37.2217 2.29027C37.5716 2.63863 37.8491 3.05224 38.0384 3.50747C38.2277 3.96271 38.3251 4.45064 38.3251 4.9434Z" fill="#265DD6"/>
<path d="M78.7447 4.9434C78.7447 5.43618 78.6473 5.92413 78.4579 6.37939C78.2686 6.83464 77.9911 7.24828 77.6413 7.59668C77.2915 7.94507 76.8762 8.22139 76.4192 8.40987C75.9622 8.59834 75.4724 8.69527 74.9778 8.69511C73.9792 8.69501 73.0215 8.29975 72.3154 7.59626C71.6092 6.89278 71.2125 5.93867 71.2124 4.94379C71.2124 4.45113 71.3097 3.96328 71.4989 3.5081C71.6881 3.05293 71.9655 2.63934 72.3151 2.29095C72.6648 1.94257 73.0799 1.66621 73.5367 1.47767C73.9936 1.28912 74.4833 1.19208 74.9778 1.19208C75.4724 1.19187 75.9622 1.28875 76.4192 1.47718C76.8762 1.66561 77.2915 1.9419 77.6413 2.29027C77.9911 2.63863 78.2686 3.05224 78.4579 3.50747C78.6473 3.96271 78.7447 4.45064 78.7447 4.9434Z" fill="#265DD6"/>
<g clip-path="url(#clip0_21096_2272)">
<path d="M88.0941 9.9375C88.0941 5.2776 91.3177 1.5 95.2941 1.5H119.294C123.271 1.5 126.494 5.2776 126.494 9.9375V38.0625C126.494 42.7224 123.271 46.5 119.294 46.5H95.2941C91.3177 46.5 88.0941 42.7224 88.0941 38.0625V9.9375Z" fill="#FD701D"/>
<path d="M87.97 6.26084C87.5659 6.47217 87.2279 6.79162 86.9934 7.1838C86.7589 7.57598 86.6371 8.02563 86.6414 8.48299L86.5886 14.7056C86.5886 14.7056 86.5289 16.5804 88.012 16.6299C89.4951 16.6795 89.7512 15.0883 89.7512 15.0883L90.0165 13.6477L112.395 43.7281C113.119 45.0243 114.174 46.1034 115.452 46.8542C116.73 47.605 118.184 48.0005 119.665 48C121.876 48 123.996 47.1186 125.559 45.5496C127.122 43.9807 128 41.8527 128 39.6339C128.001 38.1553 127.611 36.7029 126.87 35.4249C126.129 34.1468 125.064 33.0887 123.783 32.3585L90.6858 6.61158C90.2044 6.23437 89.6162 6.02022 89.0059 6C88.6445 5.99997 88.2886 6.08957 87.97 6.26084Z" fill="#265DD6"/>
<path d="M87.97 41.7398C87.5659 41.5285 87.2279 41.209 86.9934 40.8169C86.7589 40.4247 86.6371 39.975 86.6414 39.5177L86.5886 33.2951C86.5886 33.2951 86.5289 31.4203 88.012 31.3707C89.4951 31.3212 89.7512 32.9123 89.7512 32.9123L90.0165 34.353L112.394 4.27243C113.119 2.97609 114.174 1.89693 115.452 1.14599C116.73 0.395057 118.184 -0.000513931 119.665 5.01116e-07C121.876 5.01116e-07 123.996 0.881427 125.559 2.45038C127.122 4.01933 128 6.14729 128 8.36612C128.001 9.84474 127.611 11.2971 126.87 12.5751C126.129 13.8532 125.064 14.9113 123.783 15.6415L90.6858 41.3885C90.2044 41.7657 89.6162 41.9798 89.0059 42C88.6445 42.0002 88.2887 41.9109 87.97 41.7398Z" fill="#265DD6"/>
</g>
<defs>
<clipPath id="clip0_21096_2272">
<rect width="41.4118" height="48" fill="white" transform="translate(86.5883 1.52588e-05)"/>
</clipPath>
</defs>
</svg>
