<svg xmlns="http://www.w3.org/2000/svg" width="48" height="48" viewBox="0 0 48 48" fill="none">
  <path d="M27.8002 37.2C28.1002 37.5 28.4802 37.64 28.8602 37.64C29.2402 37.64 29.6202 37.5 29.9202 37.2L42.0602 25.06C42.6402 24.48 42.6402 23.52 42.0602 22.94L29.9202 10.8C29.3402 10.22 28.3802 10.22 27.8002 10.8C27.2202 11.38 27.2202 12.34 27.8002 12.92L37.3802 22.5H7C6.18 22.5 5.5 23.18 5.5 24C5.5 24.82 6.18 25.5 7 25.5H37.3802L27.8002 35.08C27.2202 35.66 27.2202 36.62 27.8002 37.2Z" fill="white"/>
</svg>