<svg xmlns="http://www.w3.org/2000/svg" width="48" height="48" viewBox="0 0 48 48" fill="none">
  <g opacity="1">
    <path d="M18.0801 37.2C18.3801 37.5 18.7601 37.64 19.1401 37.64C19.5201 37.64 19.9201 37.5 20.2001 37.2C20.7801 36.62 20.7801 35.66 20.2001 35.08L10.6201 25.5H41.0001C41.8201 25.5 42.5001 24.82 42.5001 24C42.5001 23.18 41.8201 22.5 41.0001 22.5H10.6201L20.2001 12.92C20.7801 12.34 20.7801 11.38 20.2001 10.8C19.6201 10.22 18.6601 10.22 18.0801 10.8L5.94013 22.94C5.36013 23.52 5.36013 24.48 5.94013 25.06L18.0801 37.2Z" fill="white"/>
  </g>
</svg>