<svg xmlns="http://www.w3.org/2000/svg" width="16" height="16" viewBox="0 0 16 16" fill="none">
  <path d="M11.2145 3.42293C10.7258 2.86262 10.432 2.13203 10.432 1.33333H9.81956C9.97727 2.20633 10.497 2.9555 11.2145 3.42293Z" fill="#857155"/>
  <path d="M5.54786 7.93651C4.48692 7.93651 3.62394 8.80024 3.62394 9.86206C3.62394 10.602 4.0446 11.2459 4.65704 11.5678C4.42815 11.252 4.29206 10.8651 4.29206 10.4441C4.29206 9.38223 5.15504 8.51851 6.216 8.51851C6.41395 8.51851 6.60571 8.55255 6.78512 8.60829V6.26794C6.59951 6.24315 6.41085 6.22765 6.216 6.22765C6.18196 6.22765 6.15102 6.23075 6.117 6.23075V8.02629C5.9345 7.97055 5.74582 7.93651 5.54786 7.93651Z" fill="#857155"/>
  <path d="M12.9497 4.45071V6.23075C11.7619 6.23075 10.6608 5.85 9.76373 5.20607V9.86516C9.76373 12.1901 7.87386 14.0847 5.54781 14.0847C4.6508 14.0847 3.81566 13.7998 3.13208 13.32C3.90227 14.1465 5.00033 14.6667 6.21595 14.6667C8.53886 14.6667 10.4319 12.7752 10.4319 10.4472V5.78807C11.3289 6.432 12.43 6.81275 13.6178 6.81275V4.52195C13.3858 4.52195 13.1631 4.49715 12.9497 4.45071Z" fill="#857155"/>
  <path d="M9.76373 9.86516V5.20607C10.6608 5.85 11.7619 6.23075 12.9497 6.23075V4.45071C12.263 4.30525 11.6599 3.93375 11.2145 3.42293C10.4969 2.9555 9.98028 2.20633 9.81631 1.33333H8.13985L8.13675 10.5183C8.09966 11.5461 7.25211 12.3727 6.21595 12.3727C5.57256 12.3727 5.00652 12.0538 4.6539 11.5709C4.04146 11.2459 3.6208 10.6051 3.6208 9.86516C3.6208 8.80333 4.48378 7.93961 5.54472 7.93961C5.74268 7.93961 5.93446 7.97365 6.11386 8.02939V6.23385C3.83732 6.28339 2 8.1532 2 10.4472C2 11.5554 2.42995 12.5647 3.13208 13.32C3.81566 13.7998 4.6508 14.0847 5.54781 14.0847C7.87076 14.0847 9.76373 12.1901 9.76373 9.86516Z" fill="#857155"/>
</svg>