<svg xmlns="http://www.w3.org/2000/svg" width="16" height="16" viewBox="0 0 16 16" fill="none">
  <path fill-rule="evenodd" clip-rule="evenodd" d="M13.7299 2.97333C14.3614 3.14236 14.8576 3.63857 15.0266 4.27001C15.3321 5.41335 15.3333 7.80024 15.3333 7.80024C15.3333 7.80024 15.3333 10.1871 15.0266 11.3305C14.8576 11.9619 14.3614 12.4581 13.7299 12.6271C12.5866 12.9338 7.99993 12.9338 7.99993 12.9338C7.99993 12.9338 3.4133 12.9338 2.26996 12.6271C1.63853 12.4581 1.14231 11.9619 0.973288 11.3305C0.666626 10.1871 0.666626 7.80024 0.666626 7.80024C0.666626 7.80024 0.666626 5.41335 0.973288 4.27001C1.14231 3.63857 1.63853 3.14236 2.26996 2.97333C3.4133 2.66667 7.99993 2.66667 7.99993 2.66667C7.99993 2.66667 12.5866 2.66667 13.7299 2.97333ZM10.3422 7.80045L6.53188 10.0002V5.60068L10.3422 7.80045Z" fill="#857155"/>
</svg>