<svg width="280" height="240" viewBox="0 0 280 240" fill="none" xmlns="http://www.w3.org/2000/svg">
<rect width="280" height="240" fill="#F3F4F6"/>
<g clip-path="url(#clip0_23026_2985)">
<path d="M204 75H76C72.6863 75 70 77.6863 70 81V159C70 162.314 72.6863 165 76 165H204C207.314 165 210 162.314 210 159V81C210 77.6863 207.314 75 204 75Z" fill="white"/>
<path d="M208 93H72V95H208V93Z" fill="#E5E7EB"/>
<path d="M84 89C86.2091 89 88 87.2091 88 85C88 82.7909 86.2091 81 84 81C81.7909 81 80 82.7909 80 85C80 87.2091 81.7909 89 84 89Z" fill="#9CA3AF"/>
<path d="M95 89C97.2091 89 99 87.2091 99 85C99 82.7909 97.2091 81 95 81C92.7909 81 91 82.7909 91 85C91 87.2091 92.7909 89 95 89Z" fill="#9CA3AF"/>
<path d="M106 89C108.209 89 110 87.2091 110 85C110 82.7909 108.209 81 106 81C103.791 81 102 82.7909 102 85C102 87.2091 103.791 89 106 89Z" fill="#9CA3AF"/>
<path opacity="0.3" d="M201 99H79C77.3431 99 76 100.343 76 102V156C76 157.657 77.3431 159 79 159H201C202.657 159 204 157.657 204 156V102C204 100.343 202.657 99 201 99Z" fill="#D7E2FA"/>
<path d="M157 109H123C121.343 109 120 110.343 120 112V146C120 147.657 121.343 149 123 149H157C158.657 149 160 147.657 160 146V112C160 110.343 158.657 109 157 109Z" fill="#265DD6"/>
<path d="M200 102H198C197.448 102 197 102.448 197 103V105C197 105.552 197.448 106 198 106H200C200.552 106 201 105.552 201 105V103C201 102.448 200.552 102 200 102Z" fill="#FD701D"/>
<path d="M152 115.5H155V124.5H152V118.5H146V115.5H152ZM128 115.5H134V118.5H128V124.5H125V115.5H128ZM152 139.5V133.5H155V142.5H146V139.5H152ZM128 139.5H134V142.5H125V133.5H128V139.5Z" fill="#FD701D"/>
<path d="M141.118 129.21L142.918 134.165L141.274 134.765L139.474 129.81L137.036 131.65L137.905 122.95L144.162 129.05L141.118 129.21Z" fill="#FD701D"/>
</g>
<defs>
<clipPath id="clip0_23026_2985">
<rect width="140" height="90" fill="white" transform="translate(70 75)"/>
</clipPath>
</defs>
</svg>
