<svg width="140" height="90" viewBox="0 0 140 90" fill="none" xmlns="http://www.w3.org/2000/svg">
<g clip-path="url(#clip0_23026_2436)">
<path d="M134 0H6C2.68629 0 0 2.68629 0 6V84C0 87.3137 2.68629 90 6 90H134C137.314 90 140 87.3137 140 84V6C140 2.68629 137.314 0 134 0Z" fill="white"/>
<path d="M138 18H2V20H138V18Z" fill="#E5E7EB"/>
<path d="M14 14C16.2091 14 18 12.2091 18 10C18 7.79086 16.2091 6 14 6C11.7909 6 10 7.79086 10 10C10 12.2091 11.7909 14 14 14Z" fill="#9CA3AF"/>
<path d="M25 14C27.2091 14 29 12.2091 29 10C29 7.79086 27.2091 6 25 6C22.7909 6 21 7.79086 21 10C21 12.2091 22.7909 14 25 14Z" fill="#9CA3AF"/>
<path d="M36 14C38.2091 14 40 12.2091 40 10C40 7.79086 38.2091 6 36 6C33.7909 6 32 7.79086 32 10C32 12.2091 33.7909 14 36 14Z" fill="#9CA3AF"/>
<path opacity="0.3" d="M92 24H9C7.34315 24 6 25.3431 6 27V81C6 82.6569 7.34315 84 9 84H92C93.6569 84 95 82.6569 95 81V27C95 25.3431 93.6569 24 92 24Z" fill="#D7E2FA"/>
<path d="M92 37H9C7.34315 37 6 38.3431 6 40V69C6 70.6569 7.34315 72 9 72H92C93.6569 72 95 70.6569 95 69V40C95 38.3431 93.6569 37 92 37Z" fill="#265DD6"/>
<path d="M51.075 66.361L47.646 62.932H54.503L51.075 66.361Z" fill="#FD701D"/>
<path d="M50.2842 45.334C49.3889 45.26 48.4899 45.4224 47.6772 45.805C47.1626 46.0759 46.7421 46.4964 46.4712 47.011C46.0886 47.8234 45.9262 48.7221 46.0002 49.617V54.382C45.9262 55.2772 46.0886 56.1762 46.4712 56.989C46.7421 57.5042 47.163 57.9251 47.6782 58.196C48.4906 58.5785 49.3893 58.7409 50.2842 58.667H51.7162C52.6114 58.741 53.5104 58.5786 54.3232 58.196C54.8394 57.9255 55.2614 57.5046 55.5332 56.989C55.9159 56.1763 56.0783 55.2773 56.0042 54.382V49.617C56.0782 48.7217 55.9158 47.8228 55.5332 47.01C55.2622 46.4948 54.8414 46.074 54.3262 45.803C53.5135 45.4212 52.615 45.2592 51.7202 45.333H50.2832L50.2842 45.334ZM50.2842 43.667H51.7162C52.8863 43.5862 54.057 43.8167 55.1092 44.335C55.9144 44.7612 56.573 45.4197 56.9992 46.225C57.5171 47.2773 57.7473 48.4479 57.6662 49.618V54.383C57.7473 55.553 57.5171 56.7237 56.9992 57.776C56.5731 58.5816 55.9146 59.2405 55.1092 59.667C54.0569 60.185 52.8862 60.4151 51.7162 60.334H50.2832C49.1131 60.4151 47.9425 60.185 46.8902 59.667C46.0849 59.2408 45.4264 58.5823 45.0002 57.777C44.4825 56.7243 44.2524 55.5533 44.3332 54.383V49.617C44.2524 48.4469 44.4829 47.2762 45.0012 46.224C45.4276 45.4191 46.0861 44.761 46.8912 44.335C47.9433 43.8164 49.114 43.5859 50.2842 43.667ZM50.1662 47H51.8332V51.167H50.1662V47Z" fill="#FD701D"/>
</g>
<defs>
<clipPath id="clip0_23026_2436">
<rect width="140" height="90" fill="white"/>
</clipPath>
</defs>
</svg>
