<svg width="140" height="90" viewBox="0 0 140 90" fill="none" xmlns="http://www.w3.org/2000/svg">
<g clip-path="url(#clip0_23026_566)">
<path d="M134 0H6C2.68629 0 0 2.68629 0 6V84C0 87.3137 2.68629 90 6 90H134C137.314 90 140 87.3137 140 84V6C140 2.68629 137.314 0 134 0Z" fill="white"/>
<path d="M138 18H2V20H138V18Z" fill="#E5E7EB"/>
<path d="M14 14C16.2091 14 18 12.2091 18 10C18 7.79086 16.2091 6 14 6C11.7909 6 10 7.79086 10 10C10 12.2091 11.7909 14 14 14Z" fill="#9CA3AF"/>
<path d="M25 14C27.2091 14 29 12.2091 29 10C29 7.79086 27.2091 6 25 6C22.7909 6 21 7.79086 21 10C21 12.2091 22.7909 14 25 14Z" fill="#9CA3AF"/>
<path d="M36 14C38.2091 14 40 12.2091 40 10C40 7.79086 38.2091 6 36 6C33.7909 6 32 7.79086 32 10C32 12.2091 33.7909 14 36 14Z" fill="#9CA3AF"/>
<path d="M88.1649 50.402C87.8294 50.2118 87.4321 50.1627 87.0604 50.2655C86.6887 50.3682 86.3731 50.6145 86.1829 50.95C85.9927 51.2855 85.9436 51.6828 86.0464 52.0545C86.1492 52.4262 86.3954 52.7418 86.7309 52.932C90.0069 54.788 91.9069 57.071 91.9069 59.361C91.9069 63.341 86.4359 67.102 78.4369 68.722C78.2497 68.7598 78.0718 68.8342 77.9133 68.9409C77.7549 69.0475 77.619 69.1843 77.5134 69.3435C77.4078 69.5026 77.3346 69.681 77.298 69.8685C77.2614 70.0559 77.262 70.2488 77.2999 70.436C77.3378 70.6232 77.4122 70.8011 77.5188 70.9595C77.6254 71.118 77.7623 71.2539 77.9214 71.3594C78.0806 71.465 78.259 71.5382 78.4464 71.5749C78.6339 71.6115 78.8267 71.6108 79.0139 71.573C88.5539 69.641 94.8139 64.847 94.8139 59.361C94.8139 55.974 92.3899 52.796 88.1649 50.402Z" fill="#265DD6"/>
<path d="M62.731 71.8749V76.8069C62.731 77.07 62.8025 77.3282 62.9377 77.5539C63.0729 77.7796 63.2668 77.9644 63.4987 78.0886C63.7307 78.2128 63.992 78.2717 64.2548 78.2591C64.5176 78.2465 64.772 78.1628 64.991 78.0169L73.714 72.2009C73.9131 72.0681 74.0762 71.8883 74.1891 71.6773C74.302 71.4663 74.361 71.2307 74.361 70.9914C74.361 70.7522 74.302 70.5166 74.1891 70.3056C74.0762 70.0946 73.9131 69.9147 73.714 69.7819L64.987 63.9679C64.768 63.8221 64.5136 63.7384 64.2508 63.7258C63.988 63.7131 63.7267 63.7721 63.4947 63.8963C63.2628 64.0204 63.0689 64.2052 62.9337 64.431C62.7985 64.6567 62.727 64.9148 62.727 65.1779V68.9019C54.227 67.4459 48.091 63.5779 48.091 59.3619C48.091 57.0719 49.991 54.7889 53.267 52.9329C53.6025 52.7428 53.8487 52.4271 53.9515 52.0554C54.0543 51.6837 54.0052 51.2864 53.815 50.9509C53.6249 50.6154 53.3092 50.3692 52.9375 50.2665C52.5658 50.1637 52.1685 50.2128 51.833 50.4029C47.611 52.7969 45.187 55.9749 45.187 59.3619C45.187 65.2849 52.247 70.2239 62.731 71.8749Z" fill="#265DD6"/>
<path d="M81.6321 37.381L70.6511 31.89C70.4492 31.7892 70.2267 31.7368 70.0011 31.7368C69.7755 31.7368 69.553 31.7892 69.3511 31.89L58.3701 37.381L70.0021 43.196L81.6321 37.381Z" fill="#265DD6"/>
<path d="M83.0851 53.5459V39.9059L71.4541 45.7219V60.2609L82.2821 54.8469C82.5235 54.7259 82.7264 54.5402 82.8683 54.3104C83.0101 54.0806 83.0852 53.816 83.0851 53.5459Z" fill="#265DD6"/>
<path d="M56.915 53.5459C56.9148 53.8155 56.9895 54.0798 57.1307 54.3094C57.272 54.5389 57.4743 54.7247 57.715 54.8459L68.543 60.2599V45.7209L56.915 39.9059V53.5459Z" fill="#265DD6"/>
<path d="M94 32H92C91.4477 32 91 32.4477 91 33V35C91 35.5523 91.4477 36 92 36H94C94.5523 36 95 35.5523 95 35V33C95 32.4477 94.5523 32 94 32Z" fill="#FD701D"/>
</g>
<defs>
<clipPath id="clip0_23026_566">
<rect width="140" height="90" fill="white"/>
</clipPath>
</defs>
</svg>
