<svg width="140" height="90" viewBox="0 0 140 90" fill="none" xmlns="http://www.w3.org/2000/svg">
<g clip-path="url(#clip0_23026_2420)">
<path d="M134 0H6C2.68629 0 0 2.68629 0 6V84C0 87.3137 2.68629 90 6 90H134C137.314 90 140 87.3137 140 84V6C140 2.68629 137.314 0 134 0Z" fill="white"/>
<path d="M138 18H2V20H138V18Z" fill="#E5E7EB"/>
<path d="M14 14C16.2091 14 18 12.2091 18 10C18 7.79086 16.2091 6 14 6C11.7909 6 10 7.79086 10 10C10 12.2091 11.7909 14 14 14Z" fill="#9CA3AF"/>
<path d="M25 14C27.2091 14 29 12.2091 29 10C29 7.79086 27.2091 6 25 6C22.7909 6 21 7.79086 21 10C21 12.2091 22.7909 14 25 14Z" fill="#9CA3AF"/>
<path d="M36 14C38.2091 14 40 12.2091 40 10C40 7.79086 38.2091 6 36 6C33.7909 6 32 7.79086 32 10C32 12.2091 33.7909 14 36 14Z" fill="#9CA3AF"/>
<path d="M131 24H90C88.3431 24 87 25.3431 87 27V69C87 70.6569 88.3431 72 90 72H131C132.657 72 134 70.6569 134 69V27C134 25.3431 132.657 24 131 24Z" fill="#265DD6"/>
<path d="M128 49H93C91.8954 49 91 49.8954 91 51V61C91 62.1046 91.8954 63 93 63H128C129.105 63 130 62.1046 130 61V51C130 49.8954 129.105 49 128 49Z" fill="#FD701D"/>
<path d="M104.208 43.156C104.555 43.1883 104.906 43.1471 105.236 43.0353C105.567 42.9234 105.87 42.7433 106.127 42.5066C106.383 42.2699 106.587 41.982 106.725 41.6615C106.863 41.3409 106.932 40.995 106.928 40.646C106.943 40.3359 106.893 40.026 106.783 39.7359C106.672 39.4457 106.503 39.1815 106.286 38.9597C106.068 38.7379 105.808 38.5634 105.52 38.4469C105.232 38.3305 104.923 38.2747 104.613 38.283C104.307 38.2643 104.002 38.3255 103.727 38.4607C103.452 38.5959 103.218 38.8004 103.046 39.054H103.017L103.178 37.125H106.5V35.954H102.021L101.674 40.007H102.992C103.124 39.8009 103.307 39.6327 103.524 39.5189C103.74 39.4051 103.983 39.3497 104.227 39.358C104.401 39.3523 104.575 39.383 104.737 39.4482C104.899 39.5133 105.045 39.6115 105.167 39.7365C105.289 39.8615 105.383 40.0104 105.444 40.1739C105.505 40.3374 105.531 40.5118 105.521 40.686C105.529 40.8588 105.5 41.0312 105.438 41.1924C105.375 41.3536 105.28 41.5 105.157 41.6223C105.035 41.7446 104.889 41.8401 104.727 41.9027C104.566 41.9653 104.394 41.9937 104.221 41.986C103.919 42.0091 103.619 41.9193 103.38 41.734C103.14 41.5487 102.978 41.2811 102.924 40.983H101.562C101.589 41.301 101.679 41.6103 101.828 41.8928C101.976 42.1753 102.18 42.4252 102.427 42.6277C102.673 42.8302 102.958 42.9813 103.264 43.0721C103.57 43.1628 103.891 43.1913 104.208 43.156ZM110.508 43.156C112.28 43.156 113.355 41.735 113.355 39.456C113.355 37.177 112.27 35.793 110.507 35.793C108.744 35.793 107.655 37.193 107.655 39.465C107.655 41.737 108.734 43.156 110.507 43.156H110.508ZM110.508 41.974C109.668 41.974 109.155 41.066 109.155 39.464C109.155 37.862 109.677 36.974 110.508 36.974C111.339 36.974 111.856 37.874 111.856 39.464C111.856 41.054 111.347 41.975 110.507 41.975L110.508 41.974ZM117.377 43.669V43.039C118.91 42.907 119.777 42.139 119.777 40.895C119.777 39.835 119.152 39.186 117.902 38.913L117.38 38.813V36.989C117.616 37.0085 117.837 37.1117 118.004 37.2801C118.17 37.4484 118.271 37.6708 118.288 37.907H119.645C119.609 37.3378 119.351 36.8054 118.928 36.4232C118.505 36.041 117.949 35.8393 117.379 35.861V35.187H116.691V35.856C115.226 35.973 114.367 36.745 114.367 37.941C114.37 38.4349 114.557 38.91 114.891 39.2738C115.225 39.6376 115.682 39.8641 116.174 39.909L116.692 40.031V41.931C116.428 41.9307 116.174 41.8344 115.976 41.6601C115.779 41.4858 115.651 41.2454 115.618 40.984H114.218C114.218 42.184 115.156 42.952 116.689 43.04V43.669H117.377ZM118.393 41.052C118.393 41.57 118.017 41.902 117.377 41.941V40.153C118.07 40.29 118.393 40.578 118.393 41.052ZM115.775 37.819C115.786 37.5873 115.888 37.3693 116.059 37.2128C116.23 37.0562 116.456 36.974 116.688 36.984V38.669C116.093 38.542 115.775 38.249 115.775 37.819Z" fill="white"/>
<path d="M92.6479 57.395C92.6829 58.454 93.5479 59.095 94.9019 59.095C96.3019 59.095 97.1869 58.404 97.1869 57.31C97.1869 56.451 96.6949 55.966 95.5659 55.724L94.8819 55.579C94.2339 55.431 93.9599 55.235 93.9599 54.888C93.9599 54.47 94.3509 54.188 94.9329 54.188C95.5149 54.188 95.9409 54.477 95.9799 54.954H97.0849C97.0649 53.934 96.2409 53.254 94.9289 53.254C93.6709 53.254 92.7729 53.942 92.7729 54.981C92.7729 55.805 93.2849 56.333 94.3239 56.555L95.0579 56.715C95.7379 56.867 96.0069 57.07 96.0069 57.438C96.0069 57.852 95.5769 58.153 94.9479 58.153C94.3189 58.153 93.8389 57.853 93.7839 57.383L92.6479 57.395ZM97.4589 59H98.5999V56.559C98.5906 56.4321 98.6081 56.3048 98.6512 56.1851C98.6943 56.0654 98.7621 55.9562 98.8502 55.8644C98.9383 55.7727 99.0447 55.7005 99.1625 55.6525C99.2803 55.6045 99.4068 55.5819 99.5339 55.586C99.653 55.5775 99.7726 55.5951 99.8841 55.6377C99.9956 55.6804 100.096 55.7469 100.179 55.8327C100.263 55.9185 100.326 56.0215 100.365 56.1343C100.404 56.2472 100.417 56.3672 100.405 56.486V59H101.546V56.25C101.567 56.0383 101.542 55.8245 101.472 55.6234C101.403 55.4224 101.29 55.2388 101.143 55.0855C100.995 54.9321 100.816 54.8126 100.618 54.7351C100.42 54.6577 100.207 54.6242 99.9949 54.637C99.7058 54.6166 99.4174 54.6855 99.1686 54.8343C98.9199 54.9831 98.7228 55.2046 98.6039 55.469H98.5809V53.094H97.4599L97.4589 59ZM103.859 59.074C104.151 59.0921 104.444 59.046 104.717 58.939C104.99 58.8321 105.236 58.6668 105.438 58.4547C105.64 58.2427 105.793 57.989 105.887 57.7114C105.981 57.4339 106.013 57.1392 105.981 56.848C106.011 56.5574 105.978 56.2637 105.883 55.9872C105.789 55.7108 105.635 55.4581 105.434 55.2467C105.232 55.0353 104.987 54.8703 104.715 54.7629C104.443 54.6556 104.152 54.6085 103.86 54.625C103.568 54.6092 103.277 54.6567 103.006 54.7643C102.734 54.8719 102.489 55.037 102.288 55.2482C102.086 55.4595 101.933 55.7118 101.838 55.988C101.743 56.2641 101.71 56.5575 101.739 56.848C101.707 57.139 101.74 57.4335 101.833 57.7108C101.927 57.9881 102.081 58.2416 102.283 58.4536C102.484 58.6655 102.73 58.8308 103.003 58.938C103.275 59.0452 103.568 59.0916 103.86 59.074H103.859ZM103.859 58.195C103.259 58.195 102.894 57.703 102.894 56.847C102.894 55.991 103.258 55.5 103.86 55.5C104.462 55.5 104.821 56 104.821 56.848C104.821 57.696 104.461 58.2 103.86 58.2L103.859 58.195ZM108.674 54.648C108.399 54.6361 108.127 54.7039 107.89 54.8432C107.653 54.9825 107.461 55.1873 107.338 55.433H107.315V54.7H106.19V60.352H107.331V58.277H107.354C107.476 58.5228 107.668 58.7272 107.906 58.8648C108.143 59.0024 108.416 59.0672 108.69 59.051C109.768 59.051 110.44 58.215 110.44 56.848C110.44 55.481 109.763 54.648 108.674 54.648ZM108.3 58.129C107.718 58.129 107.331 57.629 107.331 56.852C107.331 56.075 107.714 55.57 108.3 55.57C108.886 55.57 109.277 56.07 109.277 56.847C109.277 57.624 108.886 58.129 108.3 58.129ZM113.179 59V55.309H113.214L115.851 59H116.828V53.363H115.7V57.035H115.668L113.035 53.363H112.05V59H113.179ZM119.244 59.074C119.536 59.0919 119.829 59.0458 120.102 58.9387C120.375 58.8316 120.621 58.6661 120.823 58.454C121.025 58.2418 121.178 57.9881 121.272 57.7105C121.365 57.4329 121.397 57.1382 121.365 56.847C121.395 56.5565 121.362 56.2629 121.267 55.9866C121.172 55.7102 121.019 55.4577 120.817 55.2464C120.616 55.0351 120.371 54.8702 120.099 54.7629C119.827 54.6556 119.536 54.6085 119.244 54.625C118.952 54.6092 118.661 54.6567 118.39 54.7643C118.118 54.8719 117.873 55.037 117.672 55.2482C117.47 55.4595 117.317 55.7118 117.222 55.988C117.127 56.2641 117.093 56.5575 117.123 56.848C117.091 57.139 117.124 57.4335 117.217 57.7108C117.311 57.9881 117.465 58.2416 117.667 58.4536C117.868 58.6655 118.114 58.8308 118.387 58.938C118.659 59.0452 118.952 59.0916 119.244 59.074ZM119.244 58.195C118.644 58.195 118.279 57.703 118.279 56.847C118.279 55.991 118.643 55.5 119.244 55.5C119.845 55.5 120.205 56 120.205 56.848C120.205 57.696 119.846 58.2 119.244 58.2V58.195ZM127.532 54.695H126.407L125.739 57.91H125.716L124.934 54.7H123.84L123.063 57.91H123.04L122.375 54.7H121.227L122.375 59H123.575L124.36 55.938H124.383L125.176 59H126.387L127.532 54.695Z" fill="white"/>
</g>
<defs>
<clipPath id="clip0_23026_2420">
<rect width="140" height="90" fill="white"/>
</clipPath>
</defs>
</svg>
