<svg width="140" height="90" viewBox="0 0 140 90" fill="none" xmlns="http://www.w3.org/2000/svg">
<g clip-path="url(#clip0_23026_3106)">
<path d="M134 0H6C2.68629 0 0 2.68629 0 6V84C0 87.3137 2.68629 90 6 90H134C137.314 90 140 87.3137 140 84V6C140 2.68629 137.314 0 134 0Z" fill="white"/>
<path d="M138 18H2V20H138V18Z" fill="#E5E7EB"/>
<path d="M14 14C16.2091 14 18 12.2091 18 10C18 7.79086 16.2091 6 14 6C11.7909 6 10 7.79086 10 10C10 12.2091 11.7909 14 14 14Z" fill="#9CA3AF"/>
<path d="M25 14C27.2091 14 29 12.2091 29 10C29 7.79086 27.2091 6 25 6C22.7909 6 21 7.79086 21 10C21 12.2091 22.7909 14 25 14Z" fill="#9CA3AF"/>
<path d="M36 14C38.2091 14 40 12.2091 40 10C40 7.79086 38.2091 6 36 6C33.7909 6 32 7.79086 32 10C32 12.2091 33.7909 14 36 14Z" fill="#9CA3AF"/>
<path opacity="0.3" d="M131 24H9C7.34315 24 6 25.3431 6 27V81C6 82.6569 7.34315 84 9 84H131C132.657 84 134 82.6569 134 81V27C134 25.3431 132.657 24 131 24Z" fill="#D7E2FA"/>
<path d="M131 24H9C7.34315 24 6 25.3431 6 27V51C6 52.6569 7.34315 54 9 54H131C132.657 54 134 52.6569 134 51V27C134 25.3431 132.657 24 131 24Z" fill="#265DD6"/>
<path d="M76.667 31.5H78.334V36.5H76.667V33.167H73.334V31.5H76.667ZM63.334 31.5H66.667V33.167H63.334V36.5H61.667V31.5H63.334ZM76.667 44.833V41.5H78.334V46.5H73.334V44.833H76.667ZM63.334 44.833H66.667V46.5H61.667V41.5H63.334V44.833Z" fill="#FD701D"/>
</g>
<defs>
<clipPath id="clip0_23026_3106">
<rect width="140" height="90" fill="white"/>
</clipPath>
</defs>
</svg>
