<svg width="140" height="90" viewBox="0 0 140 90" fill="none" xmlns="http://www.w3.org/2000/svg">
<g clip-path="url(#clip0_23026_3143)">
<path d="M134 0H6C2.68629 0 0 2.68629 0 6V84C0 87.3137 2.68629 90 6 90H134C137.314 90 140 87.3137 140 84V6C140 2.68629 137.314 0 134 0Z" fill="white"/>
<path d="M138 18H2V20H138V18Z" fill="#E5E7EB"/>
<path d="M14 14C16.2091 14 18 12.2091 18 10C18 7.79086 16.2091 6 14 6C11.7909 6 10 7.79086 10 10C10 12.2091 11.7909 14 14 14Z" fill="#9CA3AF"/>
<path d="M25 14C27.2091 14 29 12.2091 29 10C29 7.79086 27.2091 6 25 6C22.7909 6 21 7.79086 21 10C21 12.2091 22.7909 14 25 14Z" fill="#9CA3AF"/>
<path d="M36 14C38.2091 14 40 12.2091 40 10C40 7.79086 38.2091 6 36 6C33.7909 6 32 7.79086 32 10C32 12.2091 33.7909 14 36 14Z" fill="#9CA3AF"/>
<path d="M92 49H9C7.34315 49 6 50.3431 6 52V81C6 82.6569 7.34315 84 9 84H92C93.6569 84 95 82.6569 95 81V52C95 50.3431 93.6569 49 92 49Z" fill="#265DD6"/>
<path d="M50.575 66.126L52.75 62.5L57.417 71.25H45.167L49.25 63.667L50.575 66.126ZM51.228 67.305L52.743 70.083H55.473L52.69 64.867L51.228 67.305ZM47.12 70.083H51.381L49.25 66.128L47.12 70.083ZM47.209 63.666C46.9206 63.666 46.6387 63.5805 46.399 63.4203C46.1592 63.2601 45.9723 63.0324 45.862 62.766C45.7516 62.4995 45.7227 62.2064 45.779 61.9236C45.8353 61.6407 45.9741 61.3809 46.178 61.177C46.3819 60.9731 46.6417 60.8343 46.9246 60.778C47.2074 60.7218 47.5005 60.7506 47.7669 60.861C48.0334 60.9713 48.2611 61.1582 48.4213 61.398C48.5815 61.6377 48.667 61.9196 48.667 62.208C48.6671 62.3996 48.6295 62.5893 48.5563 62.7663C48.4831 62.9433 48.3757 63.1041 48.2403 63.2396C48.1049 63.3751 47.9441 63.4826 47.7672 63.5559C47.5902 63.6293 47.4005 63.666 47.209 63.666Z" fill="white"/>
<path d="M90 75H11C9.89543 75 9 75.8954 9 77V79C9 80.1046 9.89543 81 11 81H90C91.1046 81 92 80.1046 92 79V77C92 75.8954 91.1046 75 90 75Z" fill="#FD701D"/>
<path d="M88 77H70C69.4477 77 69 77.4477 69 78C69 78.5523 69.4477 79 70 79H88C88.5523 79 89 78.5523 89 78C89 77.4477 88.5523 77 88 77Z" fill="white"/>
<path d="M12.9532 77.391C12.8328 77.391 12.715 77.4267 12.6149 77.4936C12.5147 77.5605 12.4367 77.6557 12.3906 77.7669C12.3445 77.8782 12.3324 78.0007 12.3559 78.1188C12.3794 78.2369 12.4374 78.3454 12.5226 78.4306C12.6078 78.5158 12.7163 78.5738 12.8344 78.5973C12.9526 78.6208 13.075 78.6087 13.1863 78.5626C13.2976 78.5165 13.3927 78.4385 13.4596 78.3383C13.5265 78.2382 13.5622 78.1204 13.5622 78C13.5617 77.8386 13.4974 77.684 13.3833 77.5699C13.2692 77.4558 13.1146 77.3915 12.9532 77.391ZM19.0462 77.391C18.9258 77.391 18.808 77.4267 18.7079 77.4936C18.6077 77.5605 18.5297 77.6557 18.4836 77.7669C18.4375 77.8782 18.4254 78.0007 18.4489 78.1188C18.4724 78.2369 18.5304 78.3454 18.6156 78.4306C18.7008 78.5158 18.8093 78.5738 18.9274 78.5973C19.0456 78.6208 19.168 78.6087 19.2793 78.5626C19.3906 78.5165 19.4857 78.4385 19.5526 78.3383C19.6195 78.2382 19.6552 78.1204 19.6552 78C19.6547 77.8383 19.5901 77.6834 19.4756 77.5692C19.361 77.4551 19.2059 77.391 19.0442 77.391H19.0462ZM16.0002 77.391C15.8798 77.391 15.762 77.4267 15.6619 77.4936C15.5617 77.5605 15.4837 77.6557 15.4376 77.7669C15.3915 77.8782 15.3794 78.0007 15.4029 78.1188C15.4264 78.2369 15.4844 78.3454 15.5696 78.4306C15.6548 78.5158 15.7633 78.5738 15.8814 78.5973C15.9996 78.6208 16.122 78.6087 16.2333 78.5626C16.3446 78.5165 16.4397 78.4385 16.5066 78.3383C16.5735 78.2382 16.6092 78.1204 16.6092 78C16.6087 77.8386 16.5444 77.684 16.4303 77.5699C16.3162 77.4558 16.1616 77.3915 16.0002 77.391Z" fill="#4B5563"/>
</g>
<defs>
<clipPath id="clip0_23026_3143">
<rect width="140" height="90" fill="white"/>
</clipPath>
</defs>
</svg>
