<svg width="140" height="90" viewBox="0 0 140 90" fill="none" xmlns="http://www.w3.org/2000/svg">
<g clip-path="url(#clip0_23026_548)">
<path d="M134 0H6C2.68629 0 0 2.68629 0 6V84C0 87.3137 2.68629 90 6 90H134C137.314 90 140 87.3137 140 84V6C140 2.68629 137.314 0 134 0Z" fill="white"/>
<path d="M138 18H2V20H138V18Z" fill="#E5E7EB"/>
<path d="M14 14C16.2091 14 18 12.2091 18 10C18 7.79086 16.2091 6 14 6C11.7909 6 10 7.79086 10 10C10 12.2091 11.7909 14 14 14Z" fill="#9CA3AF"/>
<path d="M25 14C27.2091 14 29 12.2091 29 10C29 7.79086 27.2091 6 25 6C22.7909 6 21 7.79086 21 10C21 12.2091 22.7909 14 25 14Z" fill="#9CA3AF"/>
<path d="M36 14C38.2091 14 40 12.2091 40 10C40 7.79086 38.2091 6 36 6C33.7909 6 32 7.79086 32 10C32 12.2091 33.7909 14 36 14Z" fill="#9CA3AF"/>
<path opacity="0.3" d="M92 32H9C7.34315 32 6 33.3431 6 35V74C6 75.6569 7.34315 77 9 77H92C93.6569 77 95 75.6569 95 74V35C95 33.3431 93.6569 32 92 32Z" fill="#D7E2FA"/>
<path d="M92 39H9C7.34315 39 6 40.3431 6 42V67C6 68.6569 7.34315 70 9 70H92C93.6569 70 95 68.6569 95 67V42C95 40.3431 93.6569 39 92 39Z" fill="#265DD6"/>
<path d="M52.8541 54.507C52.8541 54.9769 52.7147 55.4363 52.4536 55.827C52.1925 56.2178 51.8215 56.5223 51.3873 56.7021C50.9532 56.882 50.4754 56.929 50.0145 56.8373C49.5536 56.7456 49.1303 56.5194 48.798 56.1871C48.4657 55.8548 48.2394 55.4314 48.1477 54.9705C48.056 54.5096 48.1031 54.0319 48.2829 53.5977C48.4627 53.1636 48.7673 52.7925 49.158 52.5314C49.5487 52.2703 50.0081 52.131 50.4781 52.131C51.1082 52.131 51.7125 52.3813 52.1581 52.8269C52.6037 53.2725 52.8541 53.8768 52.8541 54.507Z" fill="#FD701D"/>
<path d="M53.6461 58.467H47.3101C47.1001 58.4673 46.8988 58.5508 46.7503 58.6993C46.6019 58.8478 46.5183 59.0491 46.5181 59.259C46.5184 59.4105 46.5606 59.559 46.6401 59.688C46.6541 59.7118 46.6698 59.7345 46.6871 59.756L49.9011 63.766C49.9764 63.8427 50.0662 63.9038 50.1652 63.9457C50.2642 63.9876 50.3705 64.0094 50.4781 64.01C50.5966 64.007 50.7133 63.9793 50.8205 63.9286C50.9278 63.878 51.0233 63.8056 51.1011 63.716L54.2691 59.756C54.2865 59.7344 54.3025 59.7117 54.3171 59.688C54.3964 59.5586 54.4386 59.4098 54.4391 59.258C54.4385 59.0481 54.3548 58.8469 54.2061 58.6986C54.0574 58.5503 53.856 58.467 53.6461 58.467Z" fill="#FD701D"/>
<path d="M47.3101 50.548H53.6451C53.855 50.5477 54.0563 50.4642 54.2048 50.3157C54.3533 50.1672 54.4368 49.966 54.4371 49.756C54.4367 49.6045 54.3945 49.456 54.3151 49.327C54.2995 49.3027 54.2821 49.2796 54.2631 49.258L51.0541 45.248C50.9754 45.1662 50.8802 45.102 50.7748 45.0599C50.6694 45.0177 50.5562 44.9984 50.4428 45.0033C50.3294 45.0082 50.2184 45.0372 50.117 45.0884C50.0157 45.1395 49.9264 45.2117 49.8551 45.3L46.6871 49.258C46.67 49.2796 46.6543 49.3023 46.6401 49.326C46.5606 49.455 46.5184 49.6035 46.5181 49.755C46.5183 49.965 46.6019 50.1662 46.7503 50.3147C46.8988 50.4632 47.1001 50.5477 47.3101 50.548Z" fill="#FD701D"/>
</g>
<defs>
<clipPath id="clip0_23026_548">
<rect width="140" height="90" fill="white"/>
</clipPath>
</defs>
</svg>
