<svg width="140" height="90" viewBox="0 0 140 90" fill="none" xmlns="http://www.w3.org/2000/svg">
<g clip-path="url(#clip0_23026_3168)">
<path d="M134 0H6C2.68629 0 0 2.68629 0 6V84C0 87.3137 2.68629 90 6 90H134C137.314 90 140 87.3137 140 84V6C140 2.68629 137.314 0 134 0Z" fill="white"/>
<path d="M138 18H2V20H138V18Z" fill="#E5E7EB"/>
<path d="M14 14C16.2091 14 18 12.2091 18 10C18 7.79086 16.2091 6 14 6C11.7909 6 10 7.79086 10 10C10 12.2091 11.7909 14 14 14Z" fill="#9CA3AF"/>
<path d="M25 14C27.2091 14 29 12.2091 29 10C29 7.79086 27.2091 6 25 6C22.7909 6 21 7.79086 21 10C21 12.2091 22.7909 14 25 14Z" fill="#9CA3AF"/>
<path d="M36 14C38.2091 14 40 12.2091 40 10C40 7.79086 38.2091 6 36 6C33.7909 6 32 7.79086 32 10C32 12.2091 33.7909 14 36 14Z" fill="#9CA3AF"/>
<path d="M92 24H9C7.34315 24 6 25.3431 6 27V56C6 57.6569 7.34315 59 9 59H92C93.6569 59 95 57.6569 95 56V27C95 25.3431 93.6569 24 92 24Z" fill="#265DD6"/>
<path d="M91 50H73C72.4477 50 72 50.4477 72 51C72 51.5523 72.4477 52 73 52H91C91.5523 52 92 51.5523 92 51C92 50.4477 91.5523 50 91 50Z" fill="#FD701D"/>
<path d="M91.5 54H9.5C9.22386 54 9 54.2239 9 54.5C9 54.7761 9.22386 55 9.5 55H91.5C91.7761 55 92 54.7761 92 54.5C92 54.2239 91.7761 54 91.5 54Z" fill="#FD701D"/>
<path d="M55.303 41.2419L49.12 45.3639C49.076 45.393 49.025 45.4096 48.9724 45.412C48.9197 45.4144 48.8674 45.4026 48.821 45.3777C48.7745 45.3527 48.7357 45.3157 48.7086 45.2705C48.6815 45.2253 48.6671 45.1736 48.667 45.1209V36.8779C48.6671 36.8252 48.6815 36.7736 48.7086 36.7284C48.7357 36.6832 48.7745 36.6461 48.821 36.6212C48.8674 36.5963 48.9197 36.5844 48.9724 36.5869C49.025 36.5893 49.076 36.6059 49.12 36.6349L55.303 40.7519C55.3428 40.7786 55.3754 40.8147 55.398 40.857C55.4205 40.8993 55.4323 40.9465 55.4323 40.9944C55.4323 41.0424 55.4205 41.0896 55.398 41.1319C55.3754 41.1742 55.3428 41.2102 55.303 41.2369V41.2419Z" fill="white"/>
<path d="M19.5 56C20.3284 56 21 55.3284 21 54.5C21 53.6716 20.3284 53 19.5 53C18.6716 53 18 53.6716 18 54.5C18 55.3284 18.6716 56 19.5 56Z" fill="white"/>
</g>
<defs>
<clipPath id="clip0_23026_3168">
<rect width="140" height="90" fill="white"/>
</clipPath>
</defs>
</svg>
